<svg xmlns="http://www.w3.org/2000/svg" width="338" height="126" viewBox="-96.16100311279297 -0.5665016174316406 338 126"><path d="M82.1157 74.9566C91.8709 71.4265 97.9296 62.9044 97.9296 52.7095C97.9296 43.5292 92.5056 37.6708 86.7878 34.3098L99.8988 11.7063H58.6277V26.1752H74.7225L65.0141 42.7487L68.6795 42.7695C70.0244 42.7695 71.4213 42.9334 72.8235 43.3158C79.5299 45.1342 82.9013 50.7949 81.4939 55.9534C80.0866 61.1172 74.4389 63.5339 67.7325 61.7103C63.6223 60.5943 60.3056 57.1839 58.7889 53.4327L50.7272 67.194C57.5117 73.9395 65.3237 76.5981 72.7454 76.5981C75.9009 76.5981 79.0616 76.0596 82.1105 74.9566M72.8391 124.867L0 0H145.678L72.8391 124.867Z"/></svg>