<svg xmlns="http://www.w3.org/2000/svg" width="338" height="126" viewBox="-68.63500213623047 -8.709999084472656 338 126"><path d="M17.8205 35.5507C22.6725 35.5507 27.1389 33.9665 30.5964 30.5542L26.2745 26.1841C24.0669 28.3947 20.751 29.5934 17.8205 29.5934C9.51111 29.5934 6.29155 23.7837 6.24336 18.2089C6.19517 12.589 9.70085 6.53538 17.8205 6.53538C20.751 6.53538 23.7296 7.54432 25.9402 9.70676L30.1687 5.62282C26.7082 2.21051 22.3864 0.481763 17.8236 0.481763C5.67113 0.481763 -0.0451838 9.41763 0.00300427 18.2089C0.0451688 26.949 5.3308 35.5507 17.8205 35.5507Z"/> <path d="M64.2196 34.7797V34.346L54.0369 22.8652C60.4248 21.5671 62.539 16.9079 62.539 12.297C62.539 6.48427 58.3617 1.19866 50.4348 1.15348C45.101 1.15348 39.7702 1.10529 34.4394 1.10529V34.7797H40.7821V23.5398H46.8839L56.6842 34.7797H64.2196ZM40.7791 17.8235V7.06253H50.4348C54.4224 7.06253 56.1993 9.75202 56.1993 12.4415C56.1993 15.131 54.4675 17.8205 50.4348 17.8205H40.7791V17.8235Z"/> <path d="M82.8563 35.5507C94.6714 35.5507 100.005 26.8557 100.102 18.1607C100.198 9.36944 94.4335 0.481763 82.8563 0.481763C71.231 0.481763 65.5628 9.36944 65.5628 18.2059C65.5628 27.0454 71.0412 35.5507 82.8563 35.5507ZM82.8563 6.24625C90.7832 6.24625 93.9516 12.589 93.8552 18.2541C93.7589 23.7777 90.7802 29.7349 82.8563 29.7349C74.9294 29.7349 71.9508 23.8259 71.8092 18.3023C71.6646 12.6372 74.9294 6.24625 82.8563 6.24625Z"/> <path d="M121.862 35.5507C126.713 35.5507 131.18 33.9665 134.637 30.5542L130.312 26.1841C128.105 28.3947 124.789 29.5934 121.859 29.5934C113.546 29.5934 110.33 23.7837 110.281 18.2089C110.233 12.589 113.739 6.53538 121.859 6.53538C124.789 6.53538 127.768 7.54432 129.975 9.70676L134.204 5.62282C130.743 2.21051 126.421 0.481763 121.859 0.481763C109.706 0.481763 103.987 9.41763 104.035 18.2089C104.086 26.949 109.372 35.5507 121.862 35.5507Z"/> <path d="M152.889 35.4995C161.343 35.4995 167.444 30.4067 167.444 20.4649V1.20176H161.153V20.4649C161.153 26.2294 158.174 29.7351 152.94 29.7351C147.702 29.7351 144.245 26.5155 144.245 20.4649V1.20176H137.953V20.4649C137.95 30.6024 144.82 35.4995 152.889 35.4995Z"/> <path d="M186.705 29.976C182.621 29.976 178.732 28.3436 177.242 24.6422L171.956 27.3798C174.456 33.5298 179.738 35.6411 186.608 35.6411C194.101 35.6411 200.73 32.4245 200.73 24.9283C200.73 16.908 194.198 15.0829 187.183 14.2155C183.151 13.7366 179.69 12.9204 179.69 9.98998C179.69 7.49023 181.949 5.52355 186.656 5.52355C190.307 5.52355 193.478 7.34868 194.631 9.27017L199.676 6.67706C197.131 1.48781 191.704 0 186.467 0C180.271 0.048188 173.447 2.88224 173.447 9.80024C173.447 17.3417 179.79 19.1668 186.656 19.983C191.126 20.4618 194.439 21.7599 194.439 24.9313C194.442 28.5845 190.692 29.976 186.705 29.976Z"/> <path d="M0 77.5014H6.31866V65.102H23.1152V59.2653H6.31866V50.1246H24.0729V44.0469H0V77.5014Z"/> <path d="M41.511 43.9957H30.0272V49.7421H35.2435V72.1375H30.2169V77.5014H46.1521V72.1375H41.511V43.9957Z"/> <path d="M48.6097 49.7421H59.2321V77.5014H65.5478V49.7421H76.1732V43.9957H48.6097V49.7421Z"/> <path d="M108.486 43.9505H102.171V58.3437L108.486 66.3369V43.9505Z"/> <path d="M80.6337 43.9957V77.5014H86.9493V54.9103L104.559 77.5496V77.5014H108.486V72.77L85.7476 43.9957H80.6337Z"/> <path d="M155.446 57.0152C151.431 56.5363 147.982 55.7231 147.982 52.8048C147.982 50.317 150.232 48.3534 154.925 48.3534C158.56 48.3534 161.719 50.1725 162.867 52.088L167.893 49.5009C165.357 44.3357 159.948 42.8509 154.732 42.8509C148.561 42.8991 141.763 45.7211 141.763 52.615C141.763 60.1263 148.079 61.9454 154.928 62.7586C159.376 63.2375 162.68 64.5295 162.68 67.6888C162.68 71.324 158.945 72.7154 154.973 72.7154C150.907 72.7154 147.031 71.0861 145.546 67.4027L140.315 70.1163V70.1976C142.808 76.2723 148.064 78.3655 154.882 78.3655C162.346 78.3655 168.95 75.158 168.95 67.6918C168.944 59.6956 162.439 57.8765 155.446 57.0152Z"/> <path d="M140.281 70.129C140.29 70.153 140.302 70.1741 140.312 70.1952V70.1139L140.281 70.129Z"/> <path d="M187.235 57.0152C183.214 56.5363 179.768 55.7231 179.768 52.8048C179.768 50.317 182.018 48.3534 186.708 48.3534C190.346 48.3534 193.505 50.1725 194.65 52.088L199.676 49.5009C197.14 44.3357 191.734 42.8509 186.515 42.8509C180.341 42.8991 173.549 45.7211 173.549 52.615C173.549 60.1263 179.865 61.9454 186.708 62.7586C191.159 63.2375 194.46 64.5295 194.46 67.6888C194.46 71.324 190.728 72.7154 186.759 72.7154C182.69 72.7154 178.814 71.0861 177.329 67.4027L172.061 70.1314C174.549 76.2573 179.814 78.3655 186.662 78.3655C194.129 78.3655 200.73 75.158 200.73 67.6918C200.73 59.6956 194.222 57.8765 187.235 57.0152Z"/> <path d="M135.643 50.1246V43.9987H114.332V77.5014H135.643V71.2761H120.603V63.7166H135.643V57.8287H120.603V50.1246H135.643Z"/> <path d="M58.9671 93.4845C58.8466 93.1833 58.6629 92.9002 58.3617 92.6352C57.9371 92.2918 57.4913 92.1533 56.9101 92.1533C55.6602 92.1533 55.0127 92.9002 55.0127 93.7676C55.0127 94.1712 55.1542 94.8789 56.4643 95.403L57.8166 95.9481C60.2983 96.9571 60.985 98.3696 60.985 99.9025C60.985 102.466 59.1689 104.221 56.648 104.221C55.094 104.221 54.1664 103.637 53.4797 102.869C52.7539 102.062 52.4316 101.174 52.3503 100.246L54.3892 99.8001C54.3892 100.466 54.6332 101.092 54.9554 101.517C55.3379 102.002 55.9011 102.324 56.7113 102.324C57.9612 102.324 58.931 101.417 58.931 100.065C58.931 98.6918 57.8799 98.1286 56.9944 97.7642L55.7024 97.2191C54.591 96.7553 52.9587 95.8276 52.9587 93.8098C52.9587 91.9937 54.3712 90.2589 56.892 90.2589C58.3437 90.2589 59.1719 90.804 59.5966 91.1654C59.961 91.4877 60.3435 91.9515 60.6266 92.5177L58.9671 93.4845Z"/> <path d="M63.2076 108.58V95.4608H65.1864V96.3884C65.9122 95.521 66.8609 95.2379 67.7102 95.2379C69.951 95.2379 71.8484 96.9516 71.8484 99.6562C71.8484 102.523 69.7492 104.219 67.7313 104.219C67.2675 104.219 66.0778 104.056 65.1894 102.966V108.58H63.2076ZM65.0629 99.7616C65.0629 101.539 66.2134 102.445 67.4633 102.445C68.8969 102.445 69.8245 101.213 69.8245 99.7405C69.8245 98.2286 68.8969 97.0179 67.4633 97.0179C66.2134 97.0149 65.0629 97.9033 65.0629 99.7616Z"/> <path d="M82.5401 99.7194C82.5401 102.322 80.5614 104.219 77.9984 104.219C75.4354 104.219 73.4566 102.322 73.4566 99.7194C73.4566 97.0962 75.4324 95.2379 77.9984 95.2379C80.5644 95.2379 82.5401 97.0962 82.5401 99.7194ZM80.5222 99.7405C80.5222 97.8039 79.2513 97.0179 77.9984 97.0179C76.7485 97.0179 75.4775 97.8039 75.4775 99.7405C75.4775 101.376 76.4473 102.445 77.9984 102.445C79.5554 102.445 80.5222 101.376 80.5222 99.7405Z"/> <path d="M86.5788 95.4608V96.2285C87.1661 95.5238 87.8528 95.2407 88.5756 95.2407C89.0816 95.2407 89.6659 95.4217 90.1689 95.7439L89.2804 97.5386C88.8377 97.2374 88.4943 97.1353 88.1691 97.1353C87.5035 97.1353 87.139 97.4573 86.9192 97.8006C86.5969 98.3036 86.5758 99.0114 86.5758 99.5565V103.957H84.6001V95.4608H86.5788Z"/> <path d="M93.3432 97.2769V103.957H91.3645V97.2769H90.5363V95.4638H91.3645V92.3527H93.3432V95.4638H94.8551V97.2769H93.3432Z"/> <path d="M111.787 99.0144L110.194 100.849L112.676 103.957H110.173L108.842 102.3C108.541 102.622 108.134 102.987 107.712 103.291C106.884 103.875 106.038 104.219 104.767 104.219C102.243 104.219 100.728 102.544 100.728 100.364C100.728 98.5867 101.638 97.6591 102.665 96.8911C103.026 96.6291 103.613 96.2255 103.734 96.1442C103.27 95.6804 102.403 94.6504 102.403 93.3583C102.403 91.8253 103.372 90.2502 105.592 90.2502C107.73 90.2502 108.821 91.7229 108.821 93.1565C108.821 94.0239 108.477 94.5901 108.236 94.9124C107.914 95.337 107.45 95.8008 106.562 96.4664L108.944 99.3728L110.477 97.638L111.787 99.0144ZM104.948 97.6229C104.505 97.8639 103.857 98.3096 103.475 98.7313C102.909 99.3366 102.749 99.9631 102.749 100.448C102.749 101.538 103.577 102.487 104.848 102.487C105.411 102.487 105.878 102.285 106.363 101.963C106.788 101.659 107.372 101.095 107.613 100.852L104.948 97.6229ZM106.119 94.4937C106.601 94.1504 106.926 93.6655 106.926 93.1625C106.926 92.5783 106.544 91.9518 105.595 91.9518C104.767 91.9518 104.303 92.4548 104.303 93.1415C104.303 93.6053 104.544 94.051 104.767 94.31L105.372 95.0389L106.119 94.4937Z"/> <path d="M124.807 93.4845C124.687 93.1833 124.503 92.9002 124.202 92.6352C123.777 92.2918 123.334 92.1533 122.747 92.1533C121.497 92.1533 120.85 92.9002 120.85 93.7676C120.85 94.1712 120.991 94.8789 122.301 95.403L123.654 95.9481C126.135 96.9571 126.822 98.3696 126.822 99.9025C126.822 102.466 125.006 104.221 122.485 104.221C120.931 104.221 120.003 103.637 119.317 102.869C118.591 102.062 118.265 101.174 118.187 100.246L120.226 99.8001C120.226 100.466 120.467 101.092 120.792 101.517C121.175 102.002 121.741 102.324 122.548 102.324C123.801 102.324 124.768 101.417 124.768 100.065C124.768 98.6918 123.72 98.1286 122.831 97.7642L121.539 97.2191C120.428 96.7553 118.796 95.8276 118.796 93.8098C118.796 91.9937 120.208 90.2589 122.729 90.2589C124.181 90.2589 125.009 90.804 125.433 91.1654C125.795 91.4877 126.18 91.9515 126.46 92.5177L124.807 93.4845Z"/> <path d="M131.026 108.58H129.051V95.4608H131.026V96.3884C131.752 95.521 132.701 95.2379 133.547 95.2379C135.788 95.2379 137.685 96.9516 137.685 99.6562C137.685 102.523 135.586 104.219 133.568 104.219C133.104 104.219 131.915 104.056 131.026 102.966V108.58ZM130.906 99.7616C130.906 101.539 132.056 102.445 133.306 102.445C134.74 102.445 135.667 101.213 135.667 99.7405C135.667 98.2286 134.74 97.0179 133.306 97.0179C132.053 97.0149 130.906 97.9033 130.906 99.7616Z"/> <path d="M145.962 95.4638H147.94V103.96H145.962V103.071C145.094 104.08 144.025 104.222 143.417 104.222C140.796 104.222 139.303 102.041 139.303 99.7013C139.303 96.9366 141.197 95.2407 143.438 95.2407C144.064 95.2407 145.154 95.4033 145.962 96.4544V95.4638ZM141.32 99.7402C141.32 101.213 142.251 102.445 143.682 102.445C144.932 102.445 146.082 101.538 146.082 99.7613C146.082 97.903 144.932 97.0176 143.682 97.0176C142.248 97.0146 141.32 98.2253 141.32 99.7402Z"/> <path d="M43.056 97.713H0V99.7068H43.056V97.713Z"/> <path d="M200.73 97.713H157.677V99.7068H200.73V97.713Z"/></svg>