<svg xmlns="http://www.w3.org/2000/svg" width="338" height="126" viewBox="-51.99700164794922 -22.282501220703125 338 126"><path fill-rule="evenodd" clip-rule="evenodd" d="M14.6764 14.3324C17.0235 14.6561 18.3028 15.8882 19.6877 19.0019L23.6872 27.5901H16.4884L13.1296 19.6472C12.1719 17.2843 11.104 16.6413 8.97039 16.6413H6.09043V27.5901H0.0112349V0.750904H6.09043V11.4344H9.44926C11.3153 11.3827 12.5428 10.733 13.2915 8.37686L15.796 0.750904H22.1967L19.3707 8.64215C18.1431 12.1853 16.8639 13.0442 14.6764 13.3117V14.3324ZM43.4199 0C49.8183 0 55.2567 4.56388 55.2567 14.1188C55.2567 24.1009 49.6047 28.341 42.9927 28.341C39.5799 28.341 36.1131 26.8932 34.1392 23.296H33.2332L33.4985 27.0551V37.2507H27.4215V0.753154H33.0196L33.3411 5.20463H34.1392C36.2188 1.4501 39.6856 0 43.4199 0ZM41.4999 23.1881C45.9806 23.1881 49.2338 20.506 49.2338 14.2267C49.2338 7.83729 45.9806 5.15517 41.4999 5.15517C37.1833 5.15517 33.4985 7.56975 33.4985 14.2267C33.4985 20.769 37.1788 23.1881 41.4999 23.1881ZM72.2713 28.341C64.1664 28.341 58.139 23.4579 58.139 14.1166C58.139 5.26083 64.1642 0.00224698 72.2713 0.00224698C80.3783 0.00224698 86.4036 5.26308 86.4036 14.1166C86.4036 23.4579 80.3761 28.341 72.2713 28.341ZM72.2713 5.36875C67.9524 5.36875 64.1664 7.99916 64.1664 14.2267C64.1664 20.3419 67.9524 22.9723 72.2713 22.9723C76.5923 22.9723 80.3761 20.3419 80.3761 14.2267C80.3761 7.99916 76.5923 5.36875 72.2713 5.36875ZM125.547 0.750904V27.5901H90.5605V0.750904H96.6397V22.0618H105.172V0.748655H110.932V22.0618H119.466V0.748655L125.547 0.750904ZM147.465 27.5901L144.106 19.6472C143.144 17.2821 142.078 16.6391 139.945 16.6391H137.063V27.5901H130.984V0.750904H137.063V11.4322H140.424C142.29 11.3782 143.517 10.7352 144.262 8.37462L146.771 0.753154H153.169L150.343 8.63991C149.115 12.1831 147.836 13.0419 145.649 13.3117V14.3324C147.996 14.6539 149.277 15.8859 150.662 19.0019L154.662 27.5901H147.465ZM180.955 10.8949V17.9296C180.955 23.2421 181.488 25.4453 182.074 27.5924H176.049C175.516 26.248 175.251 24.2628 175.197 22.8666V22.8149H174.289C172.796 25.9287 169.277 28.3433 164.797 28.3433C160.21 28.3433 156.37 25.9804 156.37 20.8275C156.37 16.8549 158.772 11.0567 174.981 11.0567V10.2541C174.981 7.572 173.277 5.15067 168.742 5.15067C164.529 5.15067 162.452 7.35393 162.452 10.0945V10.2519H156.532V10.0405C156.532 3.22395 162.452 0 168.531 0C177.65 0 180.955 4.72576 180.955 10.8971V10.8949ZM174.981 16.5334V15.1395C164.902 15.2452 162.238 17.7677 162.238 20.3981C162.238 22.4934 163.783 23.4557 166.022 23.4557C170.716 23.4557 174.716 19.8113 174.981 16.5334ZM14.6606 58.5144C17.0078 58.8381 18.287 60.0702 19.6742 63.1862L23.676 71.7744H16.4727L13.1184 63.8269C12.1561 61.4663 11.0905 60.8211 8.95916 60.8211H6.08143V71.7699H0V44.9352H6.07918V55.6164H9.43577C11.304 55.5647 12.5293 54.9195 13.2802 52.5589L15.7825 44.9374H22.1832L19.3572 52.8287C18.1296 56.3696 16.8504 57.2262 14.6629 57.4937L14.6606 58.5144ZM49.9667 55.0814V62.1138C49.9667 67.4263 50.4995 69.6273 51.0863 71.7744H45.0588C44.5282 70.4322 44.2607 68.4448 44.2045 67.0486V66.9969H43.3007C41.8079 70.1107 38.2872 72.5253 33.8087 72.5253C29.2224 72.5253 25.3779 70.1624 25.3779 65.0118C25.3779 61.0369 27.7812 55.241 43.9932 55.241V54.4361C43.9932 51.754 42.2845 49.3327 37.7543 49.3327C33.5389 49.3327 31.4593 51.5359 31.4593 54.2765V54.4339H25.542V54.2226C25.542 47.4037 31.4616 44.1843 37.5408 44.1843C46.6595 44.1843 49.9667 48.9055 49.9667 55.0814ZM43.9932 60.7177V59.3215C33.9144 59.4294 31.2458 61.9519 31.2458 64.5801C31.2458 66.6709 32.7948 67.6422 35.034 67.6422C39.7283 67.6422 43.7256 63.9911 43.9932 60.7177ZM71.1382 44.1843C77.5388 44.1843 82.9773 48.7481 82.9773 58.3031C82.9773 68.2852 77.323 72.5231 70.711 72.5231C67.2982 72.5231 63.8314 71.0752 61.8575 67.4781H60.9515L61.2168 71.2348V81.435H55.1376V44.9352H60.7356L61.0571 49.3889H61.8553C63.9349 45.6344 67.4039 44.1843 71.1382 44.1843ZM69.2182 67.3701C73.6989 67.3701 76.9498 64.688 76.9498 58.4065C76.9498 52.0215 73.6989 49.3349 69.2159 49.3349C64.8971 49.3349 61.2168 51.7518 61.2168 58.4065C61.2168 64.9555 64.8971 67.3701 69.2182 67.3701ZM84.4161 50.4635V44.9352H108.629V50.4658H99.5624V71.7744H93.4832V50.4635H84.4161ZM124.201 44.1843C132.305 44.1843 138.333 49.4451 138.333 58.3031C138.333 67.6422 132.308 72.5231 124.201 72.5231C116.094 72.5231 110.068 67.6444 110.068 58.3008C110.068 49.4428 116.096 44.1843 124.201 44.1843ZM124.201 67.1566C128.519 67.1566 132.305 64.5261 132.305 58.4065C132.305 52.1812 128.519 49.5508 124.201 49.5508C119.88 49.5508 116.096 52.1812 116.096 58.4087C116.096 64.5261 119.88 67.1566 124.201 67.1566ZM171.395 66.246V44.9329H177.477V71.7744H142.494V44.9352H148.571V66.246H157.103V44.9329H162.863V66.246H171.395ZM197.583 58.5144C199.93 58.8381 201.209 60.0702 202.594 63.1862L206.593 71.7744H199.395L196.036 63.8292C195.078 61.4686 194.01 60.8233 191.877 60.8233H188.997V71.7721H182.917V44.9352H188.997V55.6164H192.355C194.221 55.5647 195.449 54.9195 196.198 52.5589L198.702 44.9374H205.103L202.277 52.8287C201.049 56.3696 199.77 57.2262 197.583 57.4937V58.5144ZM232.886 62.1115C232.886 67.4263 233.417 69.6273 234.006 71.7744H227.978C227.446 70.43 227.18 68.4448 227.126 67.0509V66.9969H226.218C224.728 70.1107 221.207 72.5253 216.728 72.5253C212.14 72.5253 208.3 70.1647 208.3 65.0095C208.3 61.0369 210.701 55.241 226.913 55.241V54.4384C226.913 51.754 225.209 49.3349 220.674 49.3349C216.461 49.3349 214.381 51.5382 214.381 54.2765V54.4384H208.462V54.2226C208.462 47.406 214.381 44.182 220.46 44.182C229.579 44.182 232.886 48.91 232.886 55.0791V62.1115ZM226.913 60.7154V59.3215C216.832 59.4294 214.168 61.9519 214.168 64.5823C214.168 66.6732 215.712 67.6399 217.954 67.6399C222.646 67.6399 226.648 63.9911 226.913 60.7154Z"/></svg>