<svg xmlns="http://www.w3.org/2000/svg" width="338" height="126" viewBox="-50.20599365234375 -41.284000396728516 338 126"><path d="M196.583 34.229C198.006 35.6149 200.056 36.3077 202.735 36.3077C204.495 36.3553 206.227 35.8521 207.687 34.8683C209.069 33.912 209.916 32.8935 210.229 31.8231H218.594C217.257 35.9802 215.204 38.9474 212.436 40.7247C209.668 42.5018 206.324 43.394 202.402 43.4009C199.887 43.4374 197.388 42.9947 195.039 42.0965C192.938 41.2811 191.043 40.0126 189.489 38.381C187.938 36.7234 186.741 34.7657 185.976 32.6286C185.127 30.2677 184.706 27.774 184.734 25.2652C184.713 22.7999 185.145 20.3516 186.006 18.042C186.798 15.8903 188.024 13.9242 189.606 12.2658C191.19 10.6077 193.097 9.29266 195.21 8.40264C197.485 7.44438 199.934 6.96672 202.402 6.99953C205.067 6.93607 207.709 7.52094 210.098 8.70393C212.225 9.79265 214.067 11.362 215.481 13.2873C216.912 15.2552 217.946 17.4826 218.526 19.8452C219.155 22.3589 219.381 24.9565 219.197 27.5412H194.254C194.378 30.6141 195.155 32.8433 196.583 34.229ZM207.317 16.0414C206.182 14.7942 204.449 14.1706 202.122 14.1706C200.819 14.1243 199.525 14.3878 198.343 14.9398C197.413 15.3954 196.59 16.0457 195.933 16.8469C195.355 17.5574 194.925 18.3751 194.665 19.2527C194.435 19.993 194.289 20.7563 194.227 21.5289H209.682C209.246 19.1107 208.457 17.2765 207.317 16.0259V16.0414Z"/> <path d="M99.5955 32.3273V14.6593H94.6641V7.79482H99.5955V0H109.193V7.79482H116.765V14.6593H109.193V30.7684C109.193 33.5018 110.461 34.9255 113.065 34.9255C114.388 34.9289 115.707 34.7737 116.993 34.4631V42.58C114.99 43.0911 112.929 43.3477 110.862 43.3439C103.462 43.3283 99.5955 39.5973 99.5955 32.3273Z"/> <path d="M170.897 7.7945V14.4615C173.095 9.7275 176.499 7.3267 182.735 7.25923V16.2595C174.939 16.1919 170.897 18.5252 170.897 25.1922V42.6628H161.231V7.7945H170.897Z"/> <path d="M231.123 30.4619C227.253 30.4619 224.654 33.0602 224.654 36.9263C224.654 40.7926 227.253 43.396 231.123 43.396C234.994 43.396 237.588 40.7977 237.588 36.9263C237.588 33.0549 234.99 30.4619 231.123 30.4619Z"/> <path d="M231.123 8.83825C227.253 8.83825 224.654 11.4365 224.654 15.3027C224.654 19.169 227.253 21.7723 231.123 21.7723C234.994 21.7723 237.588 19.174 237.588 15.3027C237.588 11.4313 234.99 8.83825 231.123 8.83825Z"/> <path d="M121.436 17.7358C122.203 15.5898 123.426 13.6352 125.021 12.0065C126.615 10.3775 128.542 9.11275 130.671 8.29898C133.015 7.4011 135.509 6.9584 138.018 6.9946C140.543 6.96025 143.052 7.4028 145.414 8.29898C147.55 9.10535 149.485 10.3671 151.085 11.9968C152.686 13.6263 153.912 15.5847 154.679 17.7358C155.554 20.1465 155.985 22.6957 155.951 25.2603C155.988 27.8148 155.557 30.3544 154.679 32.7537C153.892 34.8926 152.661 36.8408 151.067 38.4698C149.468 40.0763 147.538 41.3173 145.414 42.1073C143.049 42.9882 140.541 43.4251 138.018 43.396C135.507 43.4326 133.012 43.0009 130.66 42.1229C128.547 41.3273 126.629 40.0867 125.038 38.4853C123.443 36.8564 122.213 34.9083 121.426 32.7692C120.546 30.3706 120.115 27.8305 120.153 25.2758C120.118 22.7053 120.554 20.15 121.436 17.7358ZM130.068 29.3083C130.309 30.564 130.774 31.7663 131.439 32.8575C132.074 33.8961 132.958 34.759 134.012 35.3675C135.244 36.0297 136.63 36.3525 138.029 36.3028C139.437 36.3504 140.832 36.0278 142.077 35.3675C143.143 34.7654 144.036 33.9015 144.676 32.8575C145.341 31.7663 145.806 30.564 146.047 29.3083C146.319 27.9762 146.455 26.6198 146.452 25.2603C146.453 23.8904 146.318 22.5238 146.047 21.181C145.814 19.9233 145.349 18.7198 144.676 17.6318C144.023 16.5996 143.131 15.739 142.077 15.122C140.839 14.4413 139.44 14.1073 138.029 14.1554C136.72 14.0872 135.415 14.3743 134.255 14.9861C133.095 15.5981 132.123 16.5123 131.439 17.6318C130.765 18.7229 130.3 19.93 130.068 21.1914C129.797 22.5343 129.662 23.9008 129.662 25.2706C129.66 26.6267 129.797 27.9796 130.068 29.3083Z"/> <path d="M88.5945 24.127C86.2613 22.5266 82.8783 21.5964 78.529 21.0092C73.4623 20.2765 71.7735 19.4086 71.7735 17.2105C71.7735 15.0125 73.5768 13.6093 76.7101 13.6093C80.0723 13.6093 81.6105 14.919 82.1561 17.725H91.0316C90.5484 13.7705 88.8906 11.0631 86.4432 9.41065C83.8449 7.7426 80.4412 7.00985 76.6425 7.00985C73.109 7.00985 69.5754 7.87769 67.1071 9.67574C65.7673 10.577 64.6747 11.7999 63.9295 13.2323C63.1841 14.6648 62.8098 16.2612 62.8408 17.8757C62.8408 21.2742 63.7086 23.675 65.8391 25.343C67.9697 27.0112 71.1083 28.0089 75.7125 28.7416C80.779 29.4742 82.7796 30.4772 82.7796 32.8988C82.7796 35.3203 81.0439 36.6974 77.3129 36.6974C73.0882 36.6974 71.6747 34.9306 71.1966 31.8595H62.2015C62.5757 39.332 68.0321 43.432 77.3961 43.432C86.6614 43.432 92.0606 39.4982 92.0606 31.9633C92.0606 28.1959 90.7978 25.7951 88.5945 24.127Z"/> <path d="M35.3458 34.2295C36.7697 35.6152 38.8205 36.308 41.4984 36.308C43.2589 36.3556 44.9901 35.8524 46.4506 34.8686C47.833 33.9125 48.6852 32.894 48.997 31.8234H57.358C56.0244 35.9807 53.9734 38.9479 51.2054 40.725C48.4375 42.5022 45.091 43.3943 41.1658 43.4012C38.6524 43.4386 36.1551 42.9959 33.8077 42.0968C31.7056 41.2815 29.8089 40.0129 28.2526 38.3813C26.7008 36.7213 25.5038 34.7621 24.7346 32.6236C23.8871 30.2624 23.4682 27.7689 23.4978 25.2603C23.4755 22.7953 23.9052 20.3472 24.7658 18.0371C25.5593 15.8866 26.7852 13.9216 28.3683 12.2635C29.9511 10.6057 31.8573 9.28988 33.9688 8.39771C36.2438 7.43961 38.6923 6.96194 41.1608 6.9946C43.8297 6.93622 46.4728 7.52833 48.8619 8.71995C50.9887 9.80975 52.8334 11.3788 54.2505 13.3031C55.6774 15.2726 56.7097 17.4995 57.2906 19.8612C57.922 22.3744 58.1483 24.9724 57.9609 27.5571H33.0178C33.1426 30.6196 33.9185 32.8436 35.3458 34.2295ZM46.087 16.0417C44.9472 14.7945 43.215 14.171 40.8904 14.171C39.5864 14.1246 38.2898 14.3881 37.1075 14.9401C36.1763 15.3957 35.3541 16.046 34.6962 16.8472C34.121 17.559 33.6903 18.3763 33.4283 19.2532C33.2039 19.9946 33.0577 20.7574 32.9918 21.5292H48.4514C48.0113 19.1112 47.2233 17.2768 46.087 16.0262V16.0417Z"/> <path d="M9.66542 7.7945V14.4615C11.8687 9.7275 15.2672 7.3267 21.503 7.25923V16.2595C13.7343 16.1919 9.66542 18.5252 9.66542 25.1922V42.6628H0V7.7945H9.66542Z"/></svg>