<svg xmlns="http://www.w3.org/2000/svg" width="338" height="126" viewBox="-13.800994873046875 -42.64125061035156 338 126"><path d="M0 8.13183H28.2339L0 32.5507V40.6942H40.6942V32.5507H12.4486L40.6942 8.13183V0H0V8.13183Z"/> <path d="M84.2817 0H70.7248C61.6868 0 57.1678 4.52287 57.1678 13.5686V27.1256C57.1678 36.1713 61.6907 40.6942 70.7365 40.6942H84.2934C93.3391 40.6942 97.862 36.1713 97.862 27.1256V13.5686C97.8542 4.52287 93.3275 0 84.2817 0ZM89.7068 25.7722C89.7068 30.2912 87.4473 32.5507 82.9284 32.5507H72.0781C67.5514 32.5507 65.3347 30.334 65.3347 25.7722V14.922C65.3347 10.3952 67.108 8.16683 70.7248 8.16683H82.9284C87.4435 8.16683 89.7068 10.4185 89.7068 14.9453V25.7722Z"/> <path d="M146.875 28.3506L122.619 0H114.312V40.6942H122.456V12.3436L146.735 40.6942H155.007V0H146.875V28.3506Z"/> <path d="M171.48 8.13183H204.673L212.163 0H171.48V8.13183Z"/> <path d="M171.48 24.4305H204.673L212.163 16.287H171.48V24.4305Z"/> <path d="M171.48 40.7175H204.673L212.163 32.574H171.48V40.7175Z"/> <path d="M245.11 24.4188H270.871C275.397 24.4188 277.661 25.7722 277.661 28.4789C277.661 31.1856 275.397 32.5429 270.871 32.5507H245.11V40.7175H272.236C281.305 40.7019 285.839 36.1713 285.839 27.1256C285.839 19.8921 281.32 16.2753 272.282 16.2753H253.242V8.16683H285.839V0H245.11V24.4188Z"/> <path d="M302.266 0.0116669V33.204L310.398 40.7058V0.0116669H302.266Z"/></svg>