<svg xmlns="http://www.w3.org/2000/svg" width="338" height="126" viewBox="-5.2050018310546875 -35.85499954223633 338 126"><path d="M61.8595 0H26.367V2.52316H0L25.9886 24.8531V12.4476L61.8595 0Z"/> <path d="M4.54169 10.4291L17.9144 33.3898L19.933 32.2123L33.0955 54.29L36.5438 21.573L25.3578 28.4697L4.54169 10.4291Z"/> <path d="M36.8802 47.6877L49.6642 25.526L47.3093 24.2223L59.7148 3.40627L29.1425 14.2138L39.7818 20.3956L36.8802 47.6877Z"/> <path d="M216.235 39.4034H237.471V35.4925H220.146V28.764H237.471V24.8531H216.235V39.4034Z"/> <path d="M216.235 14.2138L217.581 18.1247H237.471V14.2138H216.235Z"/> <path d="M95.039 14.2138H70.8588V18.0827H80.5309V39.4034H85.3669V18.0827H95.039V14.2138Z"/> <path d="M118.294 14.2138V24.8952H103.744V14.2138H99.8751V39.4034H103.744V28.722H118.294V39.4034H122.163V14.2138H118.294Z"/> <path d="M146.175 14.2138V35.2822H135.494C133.98 35.2822 132.76 34.0627 132.76 32.5488V14.2138H128.008V31.119C128.008 35.6607 131.709 39.3613 136.251 39.3613H151.221V14.2138H146.175Z"/> <path d="M175.528 14.2138V32.1283L161.861 14.2138H157.109V39.4034H161.861V21.4889L175.486 39.3613H175.528V39.4034H180.28V14.2138H175.528Z"/> <path d="M202.105 14.2138H187.176L188.48 18.1247H202.736C204.25 18.1247 205.469 19.3442 205.469 20.8581V32.8011C205.469 34.315 204.25 35.5345 202.736 35.5345H191.886V24.8531H187.176V39.3613H202.105C206.647 39.3613 210.347 35.6607 210.347 31.119V22.4561C210.347 17.9144 206.689 14.2138 202.105 14.2138Z"/> <path d="M256.774 28.764H259.591C263.376 28.764 266.446 25.6942 266.446 21.9094V21.1104C266.446 17.3257 263.376 14.2559 259.591 14.2559H243.233L244.536 18.1668H258.876C260.39 18.1668 261.61 19.3863 261.61 20.9002V22.1197C261.61 23.6336 260.39 24.8531 258.876 24.8531H243.191V39.4034H247.102V28.764H250.508L261.147 39.4034H267.329L267.371 39.3613L256.774 28.764Z"/> <path d="M289.701 28.722L300.803 14.2138H293.444L286 23.97H281.332L269.558 39.4034H276.917L285.033 28.722H289.701Z"/> <path d="M293.864 30.6985H286.295L293.612 39.4034H301.181L293.864 30.6985Z"/> <path d="M284.024 21.9515L277.506 14.2138H269.936L276.412 21.9515H284.024Z"/> <path d="M319.39 23.97L326.875 14.2138H307.279L303.116 20.0171H315.059L308.372 28.722H321.745V30.8246C321.745 32.3385 320.525 33.558 319.012 33.558H303.158L307.321 39.3613H319.642C324.058 39.1931 327.59 35.5766 327.59 31.119V23.928H319.39V23.97Z"/></svg>