<svg width="220" height="220" viewBox="0 0 220 220" fill="none" xmlns="http://www.w3.org/2000/svg">
<path d="M214.092 94.6716L207.175 87.2346C204.925 84.7865 203.245 81.8714 202.254 78.6981C201.264 75.5249 200.987 72.1719 201.445 68.8793L202.838 58.6257C203.682 53.0799 202.362 47.422 199.15 42.8217C195.939 38.2214 191.082 35.0307 185.584 33.9093L175.785 32.1213C172.581 31.5116 169.562 30.1705 166.962 28.2025C164.361 26.2346 162.251 23.693 160.795 20.7758L156.125 11.6456C154.927 9.18174 153.251 6.98025 151.194 5.16886C149.138 3.35747 146.742 1.97222 144.146 1.09347C141.55 0.214713 138.806 -0.140065 136.071 0.0497124C133.337 0.23949 130.668 0.970045 128.218 2.19901L119.29 6.75618C116.421 8.2228 113.245 8.98757 110.022 8.98757C106.8 8.98757 103.623 8.2228 100.754 6.75618L91.8108 2.19901C89.3583 0.971678 86.6863 0.24365 83.95 0.0572018C81.2138 -0.129246 78.4677 0.229601 75.8713 1.1129C73.2749 1.99621 70.8799 3.38636 68.8255 5.20264C66.7711 7.01892 65.0981 9.22512 63.9037 11.6931L59.234 20.8391C57.7779 23.7563 55.6675 26.2979 53.0673 28.2658C50.4672 30.2338 47.4475 31.5749 44.2437 32.1846L34.4453 33.9726C28.947 35.094 24.09 38.2847 20.8786 42.885C17.6673 47.4852 16.3472 53.1432 17.1914 58.689L18.5844 68.9426C19.0418 72.2352 18.7653 75.5882 17.7746 78.7614C16.784 81.9347 15.1037 84.8497 12.8542 87.2979L5.93674 94.7349C2.11805 98.9041 0 104.352 0 110.005C0 115.657 2.11805 121.105 5.93674 125.274L12.8542 132.711C15.1037 135.16 16.784 138.075 17.7746 141.248C18.7653 144.421 19.0418 147.774 18.5844 151.067L17.1914 161.32C16.3472 166.866 17.6673 172.524 20.8786 177.124C24.09 181.725 28.947 184.915 34.4453 186.037L44.2437 187.825C47.4475 188.434 50.4672 189.776 53.0673 191.743C55.6675 193.711 57.7779 196.253 59.234 199.17L63.9037 208.316C65.0981 210.784 66.7711 212.99 68.8255 214.807C70.8799 216.623 73.2749 218.013 75.8713 218.896C78.4677 219.78 81.2138 220.139 83.95 219.952C86.6863 219.766 89.3583 219.038 91.8108 217.81L100.754 213.269C103.623 211.802 106.8 211.038 110.022 211.038C113.245 211.038 116.421 211.802 119.29 213.269L128.218 217.684C130.671 218.911 133.343 219.639 136.079 219.825C138.815 220.012 141.561 219.653 144.158 218.77C146.754 217.886 149.149 216.496 151.203 214.68C153.258 212.864 154.931 210.658 156.125 208.19L160.795 199.044C162.251 196.126 164.361 193.585 166.962 191.617C169.562 189.649 172.581 188.308 175.785 187.698L185.584 185.91C191.082 184.789 195.939 181.598 199.15 176.998C202.362 172.397 203.682 166.739 202.838 161.194L201.445 150.94C200.987 147.647 201.264 144.295 202.254 141.121C203.245 137.948 204.925 135.033 207.175 132.585L214.092 125.148C217.893 120.982 220 115.548 220 109.91C220 104.272 217.893 98.8371 214.092 94.6716ZM34.6353 174.786C33.0761 174.849 31.5337 174.445 30.2064 173.624C28.8791 172.804 27.8277 171.605 27.1875 170.183C26.5473 168.76 26.3474 167.179 26.6137 165.642C26.88 164.105 27.6003 162.683 28.6818 161.558C29.7633 160.434 31.1567 159.658 32.6826 159.332C34.2086 159.006 35.7973 159.143 37.2444 159.727C38.6916 160.31 39.9309 161.313 40.8031 162.607C41.6752 163.9 42.1403 165.425 42.1384 166.985C42.1766 169.014 41.4079 170.975 40.0011 172.437C38.5944 173.9 36.6646 174.745 34.6353 174.786Z" fill="#E01F26"/>
<path fill-rule="evenodd" clip-rule="evenodd" d="M139.522 47.0101C138.315 49.1872 133.452 49.7116 130.147 48.9171C131.28 47.9707 132.608 47.2852 134.036 46.909C135.464 46.5328 136.957 46.4751 138.41 46.7399L139.507 47.0101L138.537 46.4221C137.326 45.5882 136.316 44.4954 135.579 43.2228C134.843 41.9503 134.398 40.5299 134.278 39.0645C137.171 40.8125 140.222 44.6264 139.507 47.0101H139.522ZM110.569 178.654C110.936 178.657 111.294 178.768 111.597 178.975C111.901 179.181 112.137 179.472 112.275 179.812C112.413 180.152 112.448 180.526 112.374 180.885C112.301 181.245 112.122 181.575 111.862 181.833C111.601 182.091 111.27 182.267 110.91 182.337C110.549 182.408 110.176 182.37 109.838 182.229C109.499 182.088 109.209 181.85 109.006 181.544C108.802 181.239 108.693 180.88 108.693 180.513C108.693 180.267 108.742 180.024 108.836 179.798C108.931 179.571 109.069 179.365 109.244 179.192C109.418 179.02 109.625 178.883 109.852 178.79C110.08 178.698 110.323 178.651 110.569 178.654ZM135.359 45.0873L134.501 44.3563C133.326 43.4596 131.968 42.8325 130.523 42.5194C129.079 42.2064 127.583 42.215 126.142 42.5446C128.701 44.7535 133.277 46.4857 135.343 45.1031L135.359 45.0873ZM86.096 45.0873C88.1778 46.4698 92.7385 44.7376 95.297 42.5288C93.855 42.2013 92.3586 42.1953 90.914 42.5111C89.4694 42.8269 88.112 43.4569 86.9382 44.3563L86.0801 45.0873H86.096ZM105.801 180.529C105.229 182.944 100.684 184.756 97.2835 184.851C98.1222 183.639 99.2177 182.626 100.492 181.884C101.766 181.142 103.188 180.691 104.657 180.56H105.785C105.785 178.081 101.876 175.221 98.6024 174.299C99.118 175.679 99.9326 176.927 100.988 177.955C102.043 178.982 103.312 179.764 104.705 180.243L105.801 180.545V180.529ZM98.6819 179.623C98.9679 177.16 95.3288 173.918 92.1665 172.678C92.5373 174.104 93.2201 175.429 94.1654 176.559C95.1108 177.688 96.2952 178.594 97.6331 179.21L98.6819 179.623L97.5536 179.543C96.0789 179.526 94.6184 179.833 93.2755 180.442C91.9326 181.052 90.7402 181.95 89.7828 183.071C93.1676 183.31 97.8714 181.975 98.6978 179.623H98.6819ZM91.7533 178.034C90.7045 180.29 85.8894 181.212 82.5363 180.576C83.604 179.554 84.8836 178.779 86.2842 178.307C87.6848 177.835 89.1722 177.676 90.6409 177.843L91.7533 178.034C92.2936 175.602 88.9882 172.027 85.9848 170.47C86.2077 171.923 86.7511 173.309 87.5757 174.526C88.4002 175.744 89.4852 176.763 90.7521 177.509L91.7533 178.034ZM85.0154 175.714C85.7941 173.346 82.886 169.468 80.0414 167.625C80.1159 169.094 80.5168 170.528 81.2151 171.823C81.9133 173.118 82.8912 174.24 84.0778 175.11L85.0313 175.73L83.9348 175.428C82.4907 175.118 80.9963 175.13 79.5573 175.462C78.1183 175.795 76.77 176.439 75.6077 177.35C78.8814 178.256 83.76 177.875 85.0313 175.761L85.0154 175.714ZM78.5476 172.726C77.0538 174.728 72.1911 174.617 69.0129 173.394C70.2618 172.603 71.6693 172.096 73.1357 171.909C74.602 171.723 76.0915 171.86 77.4988 172.313L78.5476 172.726C79.5647 170.454 77.0539 166.37 74.4159 164.177C74.3309 165.639 74.572 167.102 75.1216 168.459C75.6713 169.817 76.5158 171.036 77.5942 172.027L78.4682 172.726H78.5476ZM72.4136 169.119C73.6531 166.958 71.5872 162.572 69.2353 160.204C69.0089 161.636 69.1009 163.1 69.5047 164.493C69.9084 165.885 70.614 167.172 71.5714 168.261L72.3818 169.055L71.4124 168.499C70.0583 167.907 68.5904 167.62 67.1129 167.658C65.6354 167.696 64.1844 168.06 62.8629 168.721C65.8823 170.311 70.8086 170.851 72.3977 169.008L72.4136 169.119ZM66.6768 164.908C64.8176 166.497 60.0502 165.496 57.1421 163.668C58.5242 163.142 60.0049 162.927 61.4796 163.036C62.9542 163.146 64.3867 163.579 65.6757 164.304L66.6292 164.908L65.9141 164.034C65.0471 162.851 64.4547 161.49 64.1798 160.049C63.9049 158.609 63.9545 157.125 64.3249 155.706C66.4861 158.313 68.1071 162.889 66.6451 164.908H66.6768ZM61.4009 160.14C59.3827 161.618 54.7425 160.14 52.1045 157.947C53.5309 157.561 55.0248 157.493 56.4803 157.748C57.9358 158.004 59.3173 158.576 60.5269 159.425L61.4168 160.124C63.006 158.265 61.9253 153.545 60.0502 150.733C59.5379 152.109 59.3392 153.581 59.4684 155.044C59.5976 156.507 60.0515 157.922 60.7971 159.187L61.4327 160.124L61.4009 160.14ZM56.6335 154.88C54.4723 156.136 50.0228 154.133 47.6073 151.702C49.0656 151.461 50.559 151.544 51.9815 151.945C53.4041 152.346 54.7211 153.055 55.839 154.022L56.6494 154.817C58.4928 153.132 57.8254 148.317 56.2363 145.282C55.5876 146.599 55.2411 148.044 55.2219 149.512C55.2026 150.98 55.5112 152.434 56.125 153.768L56.6494 154.769L56.6335 154.88ZM52.5018 149.128C50.2294 150.16 46.0023 147.729 43.8252 145.139C45.3018 145.052 46.7794 145.291 48.1528 145.841C49.5262 146.39 50.7615 147.236 51.7708 148.317L52.4859 149.175L52.0569 148.142C51.5834 146.751 51.4262 145.272 51.5967 143.812C51.7671 142.352 52.2609 140.949 53.0421 139.704C54.3293 142.882 54.4882 147.65 52.4859 149.239L52.5018 149.128ZM48.8468 143.073L48.529 141.992C48.1979 140.561 48.1901 139.073 48.5062 137.638C48.8224 136.203 49.4545 134.857 50.3565 133.697C51.31 136.875 50.9921 141.77 48.7674 143.073L48.1317 142.135C47.2308 140.965 46.083 140.009 44.7701 139.333C43.4571 138.657 42.0113 138.279 40.5357 138.226C42.4267 141.023 46.3837 143.867 48.7515 142.993L48.8468 143.073ZM45.8751 136.716C43.4438 137.161 39.7888 133.92 38.1997 130.948C39.6597 131.147 41.0576 131.667 42.2938 132.469C43.5299 133.271 44.5737 134.336 45.3507 135.588L45.891 136.573C48.1476 135.509 48.9739 130.725 48.3383 127.404C47.3244 128.468 46.5602 129.745 46.1012 131.141C45.6421 132.538 45.4998 134.019 45.6844 135.477L45.891 136.573L45.8751 136.716ZM43.5709 130.026L43.4915 128.771C43.4585 127.302 43.7522 125.845 44.3513 124.504C44.9504 123.162 45.84 121.971 46.9558 121.016C47.2418 124.369 45.9387 129.057 43.5868 129.899L43.1577 128.85C42.5134 127.525 41.5836 126.359 40.4351 125.436C39.2866 124.513 37.9479 123.855 36.5152 123.511C37.8024 126.689 41.1078 130.201 43.5868 129.867L43.5709 130.026ZM41.9818 123.129V122.001C42.0774 120.506 42.5102 119.051 43.2478 117.747C43.9853 116.442 45.0085 115.322 46.2406 114.469C46.2406 117.838 44.4131 122.414 41.9818 122.97L41.664 121.89C41.1566 120.507 40.3491 119.254 39.2994 118.221C38.2497 117.188 36.9841 116.4 35.5935 115.915C36.5629 119.093 39.4868 123.034 41.95 122.97L41.9818 123.129ZM41.076 116.058C38.581 115.883 36.0702 111.719 35.4346 108.398C36.7683 109.02 37.9475 109.929 38.8873 111.061C39.8271 112.193 40.5041 113.52 40.8694 114.945L41.076 116.042C43.555 115.692 45.8434 111.354 46.1771 108.017C44.891 108.731 43.7792 109.721 42.9219 110.916C42.0645 112.112 41.4829 113.482 41.219 114.929L41.0919 116.042L41.076 116.058ZM40.9012 108.907C38.438 108.478 36.3563 104.139 36.1338 100.723C37.4026 101.471 38.4888 102.492 39.3134 103.713C40.1381 104.933 40.6804 106.322 40.9012 107.778L40.9965 108.891C43.4915 108.78 46.1453 104.695 46.8763 101.406C45.5261 101.985 44.3203 102.855 43.3451 103.954C42.3699 105.052 41.6494 106.353 41.2349 107.762L40.9965 108.859L40.9012 108.907ZM41.3779 101.851C38.9624 101.183 37.3415 96.6068 37.4051 93.222C38.584 94.1011 39.5522 95.2319 40.2394 96.5321C40.9266 97.8323 41.3156 99.2692 41.3779 100.739V101.867C43.8728 102.01 46.924 98.2118 47.9887 95.0177C46.5832 95.4607 45.293 96.209 44.2106 97.209C43.1281 98.209 42.2802 99.436 41.7275 100.802L41.3779 101.867V101.851ZM42.6333 94.8905L43.0942 93.8576C43.788 92.5479 44.7635 91.4082 45.9506 90.5206C47.1376 89.6331 48.5067 89.0197 49.9592 88.7247C48.5767 91.8076 45.1918 95.2878 42.681 94.8905L42.8081 93.7782C42.8955 92.3133 42.6556 90.8473 42.1059 89.4867C41.5561 88.1261 40.7103 86.905 39.6299 85.912C39.2326 89.265 40.3927 93.9689 42.7128 94.8905H42.6333ZM44.588 88.0891C42.3632 86.9449 41.6957 82.1457 42.4267 78.8404C43.4055 79.9334 44.1287 81.2307 44.5437 82.638C44.9588 84.0453 45.0553 85.5274 44.8263 86.9767L44.588 88.0732C47.0034 88.7088 50.7538 85.5941 52.4541 82.6702C50.987 82.827 49.5726 83.3057 48.3118 84.0721C47.0509 84.8385 45.9748 85.8737 45.16 87.1038L44.588 88.0732V88.0891ZM47.2259 81.5101C45.1283 80.1593 44.9535 75.3125 46.0182 72.1024C46.8874 73.2871 47.4812 74.6508 47.7561 76.0942C48.0311 77.5376 47.9802 79.0241 47.6073 80.4454L47.2577 81.5101C49.5937 82.3841 53.6142 79.6667 55.6324 76.9175C54.1571 76.9268 52.702 77.2604 51.37 77.8948C50.0381 78.5292 48.862 79.4488 47.9251 80.5884L47.2577 81.5101H47.2259ZM50.5154 75.1536C52.7561 76.266 57.0626 73.9458 59.3033 71.4191C57.8328 71.2814 56.3501 71.4691 54.9604 71.9689C53.5707 72.4688 52.3081 73.2685 51.2623 74.3113L50.5154 75.1536L50.9763 74.1206C51.4932 72.747 51.6973 71.2753 51.5736 69.8128C51.4499 68.3503 51.0015 66.9338 50.2611 65.6665C48.8786 68.7494 48.5608 73.6121 50.5154 75.2012V75.1536ZM54.4247 69.2261C52.6448 67.4781 53.4553 62.6948 55.1398 59.6913C55.7462 61.0285 56.0467 62.4842 56.0192 63.9523C55.9917 65.4203 55.637 66.8637 54.9809 68.1773L54.4247 69.1626L55.251 68.3998C56.4175 67.4789 57.7733 66.8276 59.2212 66.4924C60.6691 66.1572 62.1732 66.1465 63.6257 66.461C61.1308 68.7494 56.6177 70.6246 54.5041 69.2897L54.4247 69.2261ZM58.906 63.7277L59.8118 63.0444C61.0664 62.2263 62.4874 61.6978 63.9717 61.4971C65.456 61.2965 66.9663 61.4287 68.3931 61.8843C65.6757 63.9184 61.0037 65.3169 59.0331 63.7913L59.6847 62.8696C60.4698 61.6297 60.9685 60.2303 61.1444 58.7733C61.3204 57.3163 61.1691 55.8384 60.7017 54.4472C58.7312 57.1964 57.4281 61.8685 59.0331 63.7913L58.906 63.7277ZM63.9753 58.8491C62.5769 56.7832 64.3408 52.2542 66.5815 49.7275C66.9057 51.159 66.9071 52.6448 66.5855 54.0769C66.2639 55.509 65.6274 56.8515 64.7222 58.0069L63.9753 58.8491C65.7869 60.5654 70.5861 59.6278 73.5101 57.8797C72.1441 57.3129 70.6703 57.0533 69.1929 57.1192C67.7155 57.1851 66.2706 57.575 64.9606 58.2611L63.9912 58.8491H63.9753ZM69.4896 54.3519C68.3136 52.1589 70.5225 47.8364 73.0175 45.5322C73.1935 46.9915 73.0424 48.4716 72.5751 49.8652C72.1078 51.2588 71.3361 52.5309 70.3159 53.5891L69.4896 54.3519L70.5066 53.8751C71.8771 53.3242 73.3518 53.0814 74.8265 53.1638C76.3012 53.2461 77.7397 53.6518 79.0403 54.3519C75.9732 55.798 71.0946 56.2588 69.5055 54.3519H69.4896ZM75.417 50.4267L76.4818 50.0453C77.899 49.6337 79.3894 49.5385 80.8476 49.7664C82.3057 49.9944 83.696 50.5398 84.92 51.3643C81.7418 52.4926 76.8314 52.4608 75.3853 50.4108L76.2911 49.7275C77.4105 48.7769 78.3049 47.5895 78.9095 46.2512C79.5141 44.9128 79.8139 43.4568 79.7872 41.9885C77.0856 44.0225 74.4318 48.1225 75.3853 50.4108L75.417 50.4267ZM81.7736 47.1213C81.0585 44.7376 84.1096 40.9396 87.0018 39.1757C86.8638 40.631 86.4063 42.0379 85.6619 43.2961C84.9174 44.5542 83.9045 45.6324 82.6953 46.4539L81.7259 47.0419L82.8224 46.7717C84.274 46.5036 85.7668 46.5582 87.1949 46.9317C88.623 47.3052 89.9514 47.9885 91.0859 48.9329C87.7805 49.7434 82.9177 49.219 81.7259 47.0419L81.7736 47.1213ZM115.415 180.608C115.987 183.024 120.532 184.835 123.917 184.931C123.08 183.716 121.985 182.702 120.71 181.961C119.436 181.219 118.013 180.768 116.544 180.64H115.415C115.415 178.161 119.341 175.3 122.598 174.379C122.084 175.761 121.27 177.012 120.215 178.042C119.16 179.072 117.89 179.856 116.496 180.338L115.415 180.64V180.608ZM122.423 179.623C122.137 177.16 125.777 173.918 128.939 172.678C128.567 174.103 127.884 175.428 126.939 176.558C125.993 177.687 124.81 178.593 123.472 179.21L122.423 179.623L123.552 179.543C125.027 179.525 126.487 179.831 127.831 180.441C129.174 181.051 130.366 181.949 131.323 183.071C127.938 183.31 123.234 181.975 122.423 179.623ZM129.368 178.034L130.369 177.509C131.635 176.762 132.72 175.743 133.544 174.525C134.369 173.308 134.912 171.923 135.137 170.47C132.117 172.059 128.78 175.602 129.352 178.034L130.464 177.843C131.931 177.678 133.415 177.837 134.813 178.309C136.211 178.781 137.488 179.555 138.553 180.576C135.2 181.164 130.385 180.29 129.336 178.034H129.368ZM136.106 175.714C135.327 173.346 138.251 169.452 141.096 167.609C141.02 169.078 140.619 170.512 139.921 171.806C139.222 173.101 138.245 174.224 137.059 175.094L136.106 175.714L137.202 175.412C138.645 175.1 140.139 175.109 141.578 175.439C143.017 175.768 144.366 176.41 145.529 177.319C142.256 178.224 137.377 177.859 136.106 175.73V175.714ZM142.574 172.726C144.052 174.728 148.93 174.617 152.108 173.378C150.858 172.59 149.45 172.086 147.984 171.902C146.517 171.718 145.029 171.858 143.622 172.313L142.574 172.726C141.557 170.454 144.067 166.37 146.705 164.177C146.788 165.639 146.546 167.101 145.996 168.458C145.447 169.815 144.604 171.034 143.527 172.027L142.653 172.726H142.574ZM148.708 169.103C147.468 166.942 149.534 162.556 151.886 160.172C152.096 161.612 151.986 163.081 151.563 164.474C151.14 165.867 150.415 167.149 149.439 168.229L148.628 169.023L149.629 168.515C150.982 167.92 152.45 167.63 153.927 167.666C155.405 167.702 156.856 168.062 158.179 168.721C155.16 170.311 150.233 170.867 148.644 169.023L148.708 169.103ZM154.444 164.892C156.304 166.481 161.071 165.48 163.979 163.636C162.597 163.11 161.116 162.895 159.642 163.005C158.167 163.115 156.735 163.547 155.446 164.272L154.492 164.892L155.207 164.018C156.074 162.835 156.667 161.474 156.941 160.033C157.216 158.593 157.167 157.109 156.796 155.691C154.635 158.297 153.014 162.873 154.476 164.892H154.444ZM159.72 160.124L160.356 159.187C161.102 157.922 161.555 156.507 161.685 155.044C161.814 153.581 161.615 152.109 161.103 150.733C159.212 153.545 158.068 158.249 159.72 160.124L160.61 159.425C161.819 158.574 163.2 158 164.655 157.742C166.111 157.483 167.605 157.548 169.033 157.931C166.379 160.045 161.754 161.602 159.736 160.124H159.72ZM164.488 154.864C166.649 156.12 171.098 154.117 173.53 151.686C172.077 151.45 170.589 151.536 169.173 151.936C167.756 152.337 166.444 153.044 165.33 154.006L164.519 154.801C162.692 153.116 163.344 148.301 164.933 145.266C165.581 146.583 165.928 148.028 165.947 149.496C165.966 150.964 165.658 152.418 165.044 153.752L164.519 154.753L164.488 154.864ZM168.699 149.143C170.971 150.176 175.198 147.745 177.376 145.139C175.899 145.052 174.421 145.291 173.048 145.841C171.675 146.39 170.439 147.236 169.43 148.317L168.699 149.175L169.128 148.142C169.605 146.752 169.765 145.273 169.598 143.813C169.43 142.354 168.938 140.95 168.159 139.704C166.871 142.882 166.713 147.65 168.699 149.239V149.143ZM172.306 143.041C174.674 143.852 178.663 140.991 180.538 138.274C179.062 138.328 177.617 138.706 176.304 139.382C174.991 140.058 173.844 141.014 172.942 142.183L172.306 143.121C170.161 141.833 169.843 136.987 170.812 133.745C171.715 134.904 172.348 136.251 172.664 137.686C172.981 139.121 172.972 140.608 172.64 142.04L172.322 143.121L172.306 143.041ZM175.278 136.685C177.709 137.257 181.364 134.015 182.969 131.043C181.508 131.246 180.11 131.768 178.874 132.573C177.638 133.377 176.594 134.445 175.818 135.699L175.278 136.685C173.021 135.62 172.211 130.837 172.831 127.515C173.843 128.577 174.607 129.851 175.066 131.245C175.525 132.638 175.668 134.117 175.484 135.572L175.278 136.669V136.685ZM177.582 129.994C180.061 130.312 183.367 126.737 184.654 123.638C183.247 123.966 181.927 124.594 180.786 125.48C179.645 126.366 178.709 127.489 178.043 128.771L177.614 129.82C175.262 128.977 173.959 124.305 174.245 120.936C175.366 121.903 176.257 123.108 176.851 124.464C177.445 125.82 177.727 127.291 177.677 128.771L177.582 129.899V129.994ZM179.171 123.098C181.682 123.098 184.606 119.268 185.528 116.042C184.138 116.529 182.874 117.318 181.824 118.35C180.775 119.383 179.967 120.635 179.457 122.017L179.139 123.098C176.756 122.414 174.992 117.822 174.865 114.469C176.072 115.308 177.077 116.404 177.808 117.68C178.539 118.955 178.978 120.377 179.092 121.842V122.97L179.171 123.098ZM180.077 116.074C182.572 115.899 185.083 111.735 185.718 108.414C184.384 109.039 183.205 109.952 182.265 111.086C181.326 112.221 180.649 113.55 180.284 114.977L180.077 116.074C177.598 115.724 175.31 111.402 174.992 108.049C176.279 108.761 177.392 109.751 178.25 110.946C179.107 112.142 179.688 113.513 179.95 114.961L180.077 116.074ZM180.268 109.002L180.029 107.906C179.619 106.497 178.901 105.196 177.929 104.097C176.956 102.998 175.752 102.128 174.404 101.549C175.135 104.838 177.773 108.923 180.284 109.034L180.379 107.921C180.6 106.463 181.142 105.072 181.966 103.849C182.791 102.626 183.877 101.601 185.146 100.85C184.844 104.203 182.763 108.605 180.379 109.034L180.268 109.002ZM179.743 101.756C182.159 101.072 183.78 96.4956 183.732 93.1266C182.551 94.0025 181.579 95.1296 180.887 96.4268C180.194 97.7239 179.798 99.1586 179.727 100.627V101.756C177.233 101.899 174.181 98.1006 173.117 94.9064C174.52 95.3495 175.808 96.098 176.888 97.0981C177.968 98.0983 178.813 99.3253 179.362 100.691L179.712 101.756H179.743ZM178.504 94.7952C180.84 93.8894 181.984 89.1697 181.603 85.8166C180.523 86.8103 179.678 88.0316 179.128 89.392C178.579 90.7525 178.338 92.2181 178.424 93.6828L178.551 94.7952C176.072 95.1925 172.672 91.7123 171.289 88.6453C172.725 88.9567 174.075 89.581 175.243 90.4737C176.41 91.3664 177.366 92.5055 178.043 93.8099L178.504 94.8429V94.7952ZM176.565 87.9937C178.79 86.8496 179.457 82.0504 178.726 78.745C177.743 79.8391 177.017 81.1385 176.599 82.5486C176.181 83.9588 176.083 85.4443 176.311 86.8972L176.549 87.9937C174.134 88.6294 170.383 85.5147 168.699 82.5907C170.165 82.7446 171.579 83.2204 172.84 83.9841C174.101 84.7478 175.177 85.7805 175.993 87.0085L176.549 87.9778L176.565 87.9937ZM173.943 81.4147L173.291 80.493C172.355 79.3526 171.179 78.4324 169.847 77.7979C168.515 77.1635 167.06 76.8303 165.584 76.8222C167.571 79.5555 171.607 82.2888 173.943 81.4147L173.593 80.35C173.222 78.9287 173.171 77.4424 173.446 75.9992C173.721 74.556 174.314 73.1922 175.183 72.0071C176.231 75.1853 176.057 80.064 173.959 81.4147H173.943ZM170.669 75.0582C168.429 76.1706 164.122 73.8664 161.882 71.3397C163.351 71.1987 164.833 71.3834 166.223 71.8806C167.613 72.3777 168.876 73.1751 169.923 74.216L170.669 75.0582L170.209 74.0253C169.692 72.6516 169.487 71.1799 169.611 69.7174C169.735 68.2549 170.183 66.8384 170.924 65.5711C172.306 68.654 172.624 73.5168 170.669 75.1059V75.0582ZM166.776 69.1467C168.556 67.3986 167.745 62.6153 166.061 59.6119C165.452 60.9479 165.149 62.403 165.174 63.871C165.198 65.3391 165.55 66.7831 166.204 68.0978L166.76 69.0831L165.934 68.3203C164.787 67.3889 163.45 66.721 162.016 66.364C160.583 66.007 159.088 65.9696 157.639 66.2544C160.134 68.5428 164.647 70.4021 166.76 69.0831L166.776 69.1467ZM162.295 63.6483L161.389 62.965C160.153 62.1528 158.754 61.6222 157.29 61.4108C155.826 61.1993 154.334 61.3122 152.919 61.7413C155.636 63.7754 160.308 65.1738 162.279 63.6483L161.627 62.7266C160.845 61.4854 160.349 60.0854 160.176 58.6284C160.003 57.1715 160.156 55.6942 160.626 54.3042C162.597 57.0534 163.884 61.7254 162.215 63.6483H162.295ZM157.273 58.6266C158.671 56.5608 156.908 52.0317 154.667 49.505C154.342 50.9365 154.34 52.4225 154.661 53.8548C154.983 55.287 155.62 56.6295 156.526 57.7844L157.273 58.6266C155.461 60.3429 150.662 59.4212 147.738 57.6731C149.103 57.1028 150.576 56.8399 152.054 56.9031C153.531 56.9663 154.977 57.354 156.288 58.0387L157.257 58.6266H157.273ZM151.743 54.2406C152.919 52.0476 150.71 47.7252 148.231 45.421C148.052 46.8791 148.2 48.3588 148.664 49.7525C149.129 51.1463 149.898 52.4189 150.917 53.4778L151.743 54.2406L150.726 53.7639C149.355 53.213 147.881 52.9701 146.406 53.0525C144.931 53.1349 143.493 53.5405 142.192 54.2406C145.259 55.6867 150.138 56.1317 151.727 54.2406H151.743ZM145.815 50.3155C146.769 48.0112 144.131 43.959 141.429 41.8931C141.402 43.3616 141.701 44.818 142.306 46.1565C142.91 47.4951 143.805 48.6823 144.926 49.6322L145.831 50.3155C144.401 52.3655 139.475 52.3972 136.297 51.269C137.521 50.4395 138.914 49.8899 140.375 49.6592C141.836 49.4285 143.33 49.5223 144.751 49.9341L145.815 50.3155Z" fill="white"/>
<path d="M168.725 114.751V118.505H157.934V114.751H168.725ZM159.673 98.2598V118.505H154.792V98.2598H159.673ZM167.334 106.297V109.926H157.934V106.297H167.334ZM168.766 98.2598V102.028H157.934V98.2598H168.766Z" fill="white"/>
<path d="M151.705 98.2598V118.505H146.838L139.677 105.907V118.505H134.797V98.2598H139.677L146.838 110.858V98.2598H151.705Z" fill="white"/>
<path d="M131.362 98.2598V118.505H126.495V98.2598H131.362Z" fill="white"/>
<path d="M124.118 114.751V118.505H113.884V114.751H124.118ZM115.622 98.2598V118.505H110.741V98.2598H115.622Z" fill="white"/>
<path d="M107.891 107.687V116.002C107.548 116.382 107.019 116.79 106.306 117.226C105.601 117.652 104.711 118.019 103.636 118.325C102.561 118.63 101.295 118.783 99.8398 118.783C98.4956 118.783 97.2766 118.57 96.1828 118.144C95.0889 117.708 94.1481 117.073 93.3601 116.239C92.5814 115.395 91.9789 114.366 91.5525 113.152C91.1353 111.928 90.9268 110.529 90.9268 108.953V107.826C90.9268 106.25 91.14 104.851 91.5664 103.627C91.9928 102.403 92.5907 101.374 93.3601 100.54C94.1388 99.6966 95.0519 99.057 96.0994 98.6213C97.1561 98.1856 98.3149 97.9678 99.5756 97.9678C101.439 97.9678 102.954 98.2644 104.122 98.8577C105.29 99.4417 106.176 100.253 106.778 101.291C107.381 102.32 107.747 103.511 107.877 104.865H103.191C103.098 104.197 102.922 103.632 102.662 103.168C102.412 102.695 102.051 102.339 101.578 102.098C101.105 101.847 100.493 101.722 99.7424 101.722C99.1584 101.722 98.6254 101.847 98.1434 102.098C97.6706 102.348 97.2674 102.728 96.9337 103.238C96.5999 103.738 96.3404 104.369 96.155 105.129C95.9789 105.889 95.8908 106.779 95.8908 107.799V108.953C95.8908 109.963 95.9742 110.848 96.1411 111.608C96.3172 112.369 96.5768 113.004 96.9198 113.513C97.272 114.014 97.717 114.394 98.2546 114.654C98.8015 114.904 99.4458 115.029 100.187 115.029C100.707 115.029 101.151 114.987 101.522 114.904C101.893 114.811 102.199 114.7 102.44 114.57C102.69 114.431 102.88 114.301 103.01 114.181V111.038H99.6173V107.687H107.891Z" fill="white"/>
<path d="M80.8043 102.515L75.8681 118.505H70.626L78.0651 98.2598H81.3883L80.8043 102.515ZM84.8924 118.505L79.9422 102.515L79.3026 98.2598H82.6676L90.1484 118.505H84.8924ZM84.6977 110.955V114.723H74.3108V110.955H84.6977Z" fill="white"/>
<path d="M64.0295 98.1592V118.506H59.1245V98.1592H64.0295ZM70.1502 98.1592V101.946H53.1436V98.1592H70.1502Z" fill="white"/>
</svg>
