<svg width="560" height="560" viewBox="0 0 560 560" fill="none" xmlns="http://www.w3.org/2000/svg">
<g clip-path="url(#clip0_2290_2)">
<mask id="mask0_2290_2" style="mask-type:luminance" maskUnits="userSpaceOnUse" x="0" y="0" width="560" height="560">
<path d="M0 0H40V40H0V0Z" fill="white"/>
<path d="M40 0H80V40H40V0Z" fill="white"/>
<path d="M80 0H120V40H80V0Z" fill="white"/>
<path d="M120 0H160V40H120V0Z" fill="white"/>
<path d="M160 0H200V40H160V0Z" fill="white"/>
<path d="M200 0H240V40H200V0Z" fill="white"/>
<path d="M240 0H280V40H240V0Z" fill="white"/>
<path d="M280 0H320V40H280V0Z" fill="white"/>
<path d="M320 0H360V40H320V0Z" fill="white"/>
<path d="M360 0H400V40H360V0Z" fill="white"/>
<path d="M400 0H440V40H400V0Z" fill="white"/>
<path d="M440 0H480V40H440V0Z" fill="white"/>
<path d="M480 0H520V40H480V0Z" fill="white"/>
<path d="M520 0H560V40H520V0Z" fill="white"/>
<path d="M0 40H40V80H0V40Z" fill="white"/>
<path d="M40 40H80V80H40V40Z" fill="white"/>
<path d="M80 40H120V80H80V40Z" fill="white"/>
<path d="M120 40H160V80H120V40Z" fill="white"/>
<path d="M160 40H200V80H160V40Z" fill="white"/>
<path d="M200 40H240V80H200V40Z" fill="white"/>
<path d="M240 40H280V80H240V40Z" fill="white"/>
<path d="M280 40H320V80H280V40Z" fill="white"/>
<path d="M320 40H360V80H320V40Z" fill="white"/>
<path d="M360 40H400V80H360V40Z" fill="white"/>
<path d="M400 40H440V80H400V40Z" fill="white"/>
<path d="M440 40H480V80H440V40Z" fill="white"/>
<path d="M480 40H520V80H480V40Z" fill="white"/>
<path d="M520 40H560V80H520V40Z" fill="white"/>
<path d="M0 80H40V120H0V80Z" fill="white"/>
<path d="M40 80H80V120H40V80Z" fill="white"/>
<path d="M80 80H120V120H80V80Z" fill="white"/>
<path d="M120 80H160V120H120V80Z" fill="white"/>
<path d="M160 80H200V120H160V80Z" fill="white"/>
<path d="M200 80H240V120H200V80Z" fill="white"/>
<path d="M240 80H280V120H240V80Z" fill="white"/>
<path d="M280 80H320V120H280V80Z" fill="white"/>
<path d="M320 80H360V120H320V80Z" fill="white"/>
<path d="M360 80H400V120H360V80Z" fill="white"/>
<path d="M400 80H440V120H400V80Z" fill="white"/>
<path d="M440 80H480V120H440V80Z" fill="white"/>
<path d="M480 80H520V120H480V80Z" fill="white"/>
<path d="M520 80H560V120H520V80Z" fill="white"/>
<path d="M0 120H40V160H0V120Z" fill="white"/>
<path d="M40 120H80V160H40V120Z" fill="white"/>
<path d="M80 120H120V160H80V120Z" fill="white"/>
<path d="M120 120H160V160H120V120Z" fill="white"/>
<path d="M160 120H200V160H160V120Z" fill="white"/>
<path d="M200 120H240V160H200V120Z" fill="white"/>
<path d="M240 120H280V160H240V120Z" fill="white"/>
<path d="M280 120H320V160H280V120Z" fill="white"/>
<path d="M320 120H360V160H320V120Z" fill="white"/>
<path d="M360 120H400V160H360V120Z" fill="white"/>
<path d="M400 120H440V160H400V120Z" fill="white"/>
<path d="M440 120H480V160H440V120Z" fill="white"/>
<path d="M480 120H520V160H480V120Z" fill="white"/>
<path d="M520 120H560V160H520V120Z" fill="white"/>
<path d="M0 160H40V200H0V160Z" fill="white"/>
<path d="M40 160H80V200H40V160Z" fill="white"/>
<path d="M80 160H120V200H80V160Z" fill="white"/>
<path d="M120 160H160V200H120V160Z" fill="white"/>
<path d="M160 160H200V200H160V160Z" fill="white"/>
<path d="M200 160H240V200H200V160Z" fill="white"/>
<path d="M240 160H280V200H240V160Z" fill="white"/>
<path d="M280 160H320V200H280V160Z" fill="white"/>
<path d="M320 160H360V200H320V160Z" fill="white"/>
<path d="M360 160H400V200H360V160Z" fill="white"/>
<path d="M400 160H440V200H400V160Z" fill="white"/>
<path d="M440 160H480V200H440V160Z" fill="white"/>
<path d="M480 160H520V200H480V160Z" fill="white"/>
<path d="M520 160H560V200H520V160Z" fill="white"/>
<path d="M0 200H40V240H0V200Z" fill="white"/>
<path d="M40 200H80V240H40V200Z" fill="white"/>
<path d="M80 200H120V240H80V200Z" fill="white"/>
<path d="M120 200H160V240H120V200Z" fill="white"/>
<path d="M160 200H200V240H160V200Z" fill="white"/>
<path d="M200 200H240V240H200V200Z" fill="white"/>
<path d="M240 200H280V240H240V200Z" fill="white"/>
<path d="M280 200H320V240H280V200Z" fill="white"/>
<path d="M320 200H360V240H320V200Z" fill="white"/>
<path d="M360 200H400V240H360V200Z" fill="white"/>
<path d="M400 200H440V240H400V200Z" fill="white"/>
<path d="M440 200H480V240H440V200Z" fill="white"/>
<path d="M480 200H520V240H480V200Z" fill="white"/>
<path d="M520 200H560V240H520V200Z" fill="white"/>
<path d="M0 240H40V280H0V240Z" fill="white"/>
<path d="M40 240H80V280H40V240Z" fill="white"/>
<path d="M80 240H120V280H80V240Z" fill="white"/>
<path d="M120 240H160V280H120V240Z" fill="white"/>
<path d="M160 240H200V280H160V240Z" fill="white"/>
<path d="M200 240H240V280H200V240Z" fill="white"/>
<path d="M240 240H280V280H240V240Z" fill="white"/>
<path d="M280 240H320V280H280V240Z" fill="white"/>
<path d="M320 240H360V280H320V240Z" fill="white"/>
<path d="M360 240H400V280H360V240Z" fill="white"/>
<path d="M400 240H440V280H400V240Z" fill="white"/>
<path d="M440 240H480V280H440V240Z" fill="white"/>
<path d="M480 240H520V280H480V240Z" fill="white"/>
<path d="M520 240H560V280H520V240Z" fill="white"/>
<path d="M0 280H40V320H0V280Z" fill="white"/>
<path d="M40 280H80V320H40V280Z" fill="white"/>
<path d="M80 280H120V320H80V280Z" fill="white"/>
<path d="M120 280H160V320H120V280Z" fill="white"/>
<path d="M160 280H200V320H160V280Z" fill="white"/>
<path d="M200 280H240V320H200V280Z" fill="white"/>
<path d="M240 280H280V320H240V280Z" fill="white"/>
<path d="M280 280H320V320H280V280Z" fill="white"/>
<path d="M320 280H360V320H320V280Z" fill="white"/>
<path d="M360 280H400V320H360V280Z" fill="white"/>
<path d="M400 280H440V320H400V280Z" fill="white"/>
<path d="M440 280H480V320H440V280Z" fill="white"/>
<path d="M480 280H520V320H480V280Z" fill="white"/>
<path d="M520 280H560V320H520V280Z" fill="white"/>
<path d="M0 320H40V360H0V320Z" fill="white"/>
<path d="M40 320H80V360H40V320Z" fill="white"/>
<path d="M80 320H120V360H80V320Z" fill="white"/>
<path d="M120 320H160V360H120V320Z" fill="white"/>
<path d="M160 320H200V360H160V320Z" fill="white"/>
<path d="M200 320H240V360H200V320Z" fill="white"/>
<path d="M240 320H280V360H240V320Z" fill="white"/>
<path d="M280 320H320V360H280V320Z" fill="white"/>
<path d="M320 320H360V360H320V320Z" fill="white"/>
<path d="M360 320H400V360H360V320Z" fill="white"/>
<path d="M400 320H440V360H400V320Z" fill="white"/>
<path d="M440 320H480V360H440V320Z" fill="white"/>
<path d="M480 320H520V360H480V320Z" fill="white"/>
<path d="M520 320H560V360H520V320Z" fill="white"/>
<path d="M0 360H40V400H0V360Z" fill="white"/>
<path d="M40 360H80V400H40V360Z" fill="white"/>
<path d="M80 360H120V400H80V360Z" fill="white"/>
<path d="M120 360H160V400H120V360Z" fill="white"/>
<path d="M160 360H200V400H160V360Z" fill="white"/>
<path d="M200 360H240V400H200V360Z" fill="white"/>
<path d="M240 360H280V400H240V360Z" fill="white"/>
<path d="M280 360H320V400H280V360Z" fill="white"/>
<path d="M320 360H360V400H320V360Z" fill="white"/>
<path d="M360 360H400V400H360V360Z" fill="white"/>
<path d="M400 360H440V400H400V360Z" fill="white"/>
<path d="M440 360H480V400H440V360Z" fill="white"/>
<path d="M480 360H520V400H480V360Z" fill="white"/>
<path d="M520 360H560V400H520V360Z" fill="white"/>
<path d="M0 400H40V440H0V400Z" fill="white"/>
<path d="M40 400H80V440H40V400Z" fill="white"/>
<path d="M80 400H120V440H80V400Z" fill="white"/>
<path d="M120 400H160V440H120V400Z" fill="white"/>
<path d="M160 400H200V440H160V400Z" fill="white"/>
<path d="M200 400H240V440H200V400Z" fill="white"/>
<path d="M240 400H280V440H240V400Z" fill="white"/>
<path d="M280 400H320V440H280V400Z" fill="white"/>
<path d="M320 400H360V440H320V400Z" fill="white"/>
<path d="M360 400H400V440H360V400Z" fill="white"/>
<path d="M400 400H440V440H400V400Z" fill="white"/>
<path d="M440 400H480V440H440V400Z" fill="white"/>
<path d="M480 400H520V440H480V400Z" fill="white"/>
<path d="M520 400H560V440H520V400Z" fill="white"/>
<path d="M0 440H40V480H0V440Z" fill="white"/>
<path d="M40 440H80V480H40V440Z" fill="white"/>
<path d="M80 440H120V480H80V440Z" fill="white"/>
<path d="M120 440H160V480H120V440Z" fill="white"/>
<path d="M160 440H200V480H160V440Z" fill="white"/>
<path d="M200 440H240V480H200V440Z" fill="white"/>
<path d="M240 440H280V480H240V440Z" fill="white"/>
<path d="M280 440H320V480H280V440Z" fill="white"/>
<path d="M320 440H360V480H320V440Z" fill="white"/>
<path d="M360 440H400V480H360V440Z" fill="white"/>
<path d="M400 440H440V480H400V440Z" fill="white"/>
<path d="M440 440H480V480H440V440Z" fill="white"/>
<path d="M480 440H520V480H480V440Z" fill="white"/>
<path d="M520 440H560V480H520V440Z" fill="white"/>
<path d="M0 480H40V520H0V480Z" fill="white"/>
<path d="M40 480H80V520H40V480Z" fill="white"/>
<path d="M80 480H120V520H80V480Z" fill="white"/>
<path d="M120 480H160V520H120V480Z" fill="white"/>
<path d="M160 480H200V520H160V480Z" fill="white"/>
<path d="M200 480H240V520H200V480Z" fill="white"/>
<path d="M240 480H280V520H240V480Z" fill="white"/>
<path d="M280 480H320V520H280V480Z" fill="white"/>
<path d="M320 480H360V520H320V480Z" fill="white"/>
<path d="M360 480H400V520H360V480Z" fill="white"/>
<path d="M400 480H440V520H400V480Z" fill="white"/>
<path d="M440 480H480V520H440V480Z" fill="white"/>
<path d="M480 480H520V520H480V480Z" fill="white"/>
<path d="M520 480H560V520H520V480Z" fill="white"/>
<path d="M0 520H40V560H0V520Z" fill="white"/>
<path d="M40 520H80V560H40V520Z" fill="white"/>
<path d="M80 520H120V560H80V520Z" fill="white"/>
<path d="M120 520H160V560H120V520Z" fill="white"/>
<path d="M160 520H200V560H160V520Z" fill="white"/>
<path d="M200 520H240V560H200V520Z" fill="white"/>
<path d="M240 520H280V560H240V520Z" fill="white"/>
<path d="M280 520H320V560H280V520Z" fill="white"/>
<path d="M320 520H360V560H320V520Z" fill="white"/>
<path d="M360 520H400V560H360V520Z" fill="white"/>
<path d="M400 520H440V560H400V520Z" fill="white"/>
<path d="M440 520H480V560H440V520Z" fill="white"/>
<path d="M480 520H520V560H480V520Z" fill="white"/>
<path d="M520 520H560V560H520V520Z" fill="white"/>
</mask>
<g mask="url(#mask0_2290_2)">
<path d="M40 0H39.5V40H40H40.5V0H40ZM40 40V39.5H0V40V40.5H40V40ZM80 0H79.5V40H80H80.5V0H80ZM80 40V39.5H40V40V40.5H80V40ZM120 0H119.5V40H120H120.5V0H120ZM120 40V39.5H80V40V40.5H120V40ZM160 0H159.5V40H160H160.5V0H160ZM160 40V39.5H120V40V40.5H160V40ZM200 0H199.5V40H200H200.5V0H200ZM200 40V39.5H160V40V40.5H200V40ZM240 0H239.5V40H240H240.5V0H240ZM240 40V39.5H200V40V40.5H240V40ZM280 0H279.5V40H280H280.5V0H280ZM280 40V39.5H240V40V40.5H280V40ZM320 0H319.5V40H320H320.5V0H320ZM320 40V39.5H280V40V40.5H320V40ZM360 0H359.5V40H360H360.5V0H360ZM360 40V39.5H320V40V40.5H360V40ZM400 0H399.5V40H400H400.5V0H400ZM400 40V39.5H360V40V40.5H400V40ZM440 0H439.5V40H440H440.5V0H440ZM440 40V39.5H400V40V40.5H440V40ZM480 0H479.5V40H480H480.5V0H480ZM480 40V39.5H440V40V40.5H480V40ZM520 0H519.5V40H520H520.5V0H520ZM520 40V39.5H480V40V40.5H520V40ZM560 40V39.5H520V40V40.5H560V40ZM40 40H39.5V80H40H40.5V40H40ZM40 80V79.5H0V80V80.5H40V80ZM80 40H79.5V80H80H80.5V40H80ZM80 80V79.5H40V80V80.5H80V80ZM120 40H119.5V80H120H120.5V40H120ZM120 80V79.5H80V80V80.5H120V80ZM160 40H159.5V80H160H160.5V40H160ZM160 80V79.5H120V80V80.5H160V80ZM200 40H199.5V80H200H200.5V40H200ZM200 80V79.5H160V80V80.5H200V80ZM240 40H239.5V80H240H240.5V40H240ZM240 80V79.5H200V80V80.5H240V80ZM280 40H279.5V80H280H280.5V40H280ZM280 80V79.5H240V80V80.5H280V80ZM320 40H319.5V80H320H320.5V40H320ZM320 80V79.5H280V80V80.5H320V80ZM360 40H359.5V80H360H360.5V40H360ZM360 80V79.5H320V80V80.5H360V80ZM400 40H399.5V80H400H400.5V40H400ZM400 80V79.5H360V80V80.5H400V80ZM440 40H439.5V80H440H440.5V40H440ZM440 80V79.5H400V80V80.5H440V80ZM480 40H479.5V80H480H480.5V40H480ZM480 80V79.5H440V80V80.5H480V80ZM520 40H519.5V80H520H520.5V40H520ZM520 80V79.5H480V80V80.5H520V80ZM560 80V79.5H520V80V80.5H560V80ZM40 80H39.5V120H40H40.5V80H40ZM40 120V119.5H0V120V120.5H40V120ZM80 80H79.5V120H80H80.5V80H80ZM80 120V119.5H40V120V120.5H80V120ZM120 80H119.5V120H120H120.5V80H120ZM120 120V119.5H80V120V120.5H120V120ZM160 80H159.5V120H160H160.5V80H160ZM160 120V119.5H120V120V120.5H160V120ZM200 80H199.5V120H200H200.5V80H200ZM200 120V119.5H160V120V120.5H200V120ZM240 80H239.5V120H240H240.5V80H240ZM240 120V119.5H200V120V120.5H240V120ZM280 80H279.5V120H280H280.5V80H280ZM280 120V119.5H240V120V120.5H280V120ZM320 80H319.5V120H320H320.5V80H320ZM320 120V119.5H280V120V120.5H320V120ZM360 80H359.5V120H360H360.5V80H360ZM360 120V119.5H320V120V120.5H360V120ZM400 80H399.5V120H400H400.5V80H400ZM400 120V119.5H360V120V120.5H400V120ZM440 80H439.5V120H440H440.5V80H440ZM440 120V119.5H400V120V120.5H440V120ZM480 80H479.5V120H480H480.5V80H480ZM480 120V119.5H440V120V120.5H480V120ZM520 80H519.5V120H520H520.5V80H520ZM520 120V119.5H480V120V120.5H520V120ZM560 120V119.5H520V120V120.5H560V120ZM40 120H39.5V160H40H40.5V120H40ZM40 160V159.5H0V160V160.5H40V160ZM80 120H79.5V160H80H80.5V120H80ZM80 160V159.5H40V160V160.5H80V160ZM120 120H119.5V160H120H120.5V120H120ZM120 160V159.5H80V160V160.5H120V160ZM160 120H159.5V160H160H160.5V120H160ZM160 160V159.5H120V160V160.5H160V160ZM200 120H199.5V160H200H200.5V120H200ZM200 160V159.5H160V160V160.5H200V160ZM240 120H239.5V160H240H240.5V120H240ZM240 160V159.5H200V160V160.5H240V160ZM280 120H279.5V160H280H280.5V120H280ZM280 160V159.5H240V160V160.5H280V160ZM320 120H319.5V160H320H320.5V120H320ZM320 160V159.5H280V160V160.5H320V160ZM360 120H359.5V160H360H360.5V120H360ZM360 160V159.5H320V160V160.5H360V160ZM400 120H399.5V160H400H400.5V120H400ZM400 160V159.5H360V160V160.5H400V160ZM440 120H439.5V160H440H440.5V120H440ZM440 160V159.5H400V160V160.5H440V160ZM480 120H479.5V160H480H480.5V120H480ZM480 160V159.5H440V160V160.5H480V160ZM520 120H519.5V160H520H520.5V120H520ZM520 160V159.5H480V160V160.5H520V160ZM560 160V159.5H520V160V160.5H560V160ZM40 160H39.5V200H40H40.5V160H40ZM40 200V199.5H0V200V200.5H40V200ZM80 160H79.5V200H80H80.5V160H80ZM80 200V199.5H40V200V200.5H80V200ZM120 160H119.5V200H120H120.5V160H120ZM120 200V199.5H80V200V200.5H120V200ZM160 160H159.5V200H160H160.5V160H160ZM160 200V199.5H120V200V200.5H160V200ZM200 160H199.5V200H200H200.5V160H200ZM200 200V199.5H160V200V200.5H200V200ZM240 160H239.5V200H240H240.5V160H240ZM240 200V199.5H200V200V200.5H240V200ZM280 160H279.5V200H280H280.5V160H280ZM280 200V199.5H240V200V200.5H280V200ZM320 160H319.5V200H320H320.5V160H320ZM320 200V199.5H280V200V200.5H320V200ZM360 160H359.5V200H360H360.5V160H360ZM360 200V199.5H320V200V200.5H360V200ZM400 160H399.5V200H400H400.5V160H400ZM400 200V199.5H360V200V200.5H400V200ZM440 160H439.5V200H440H440.5V160H440ZM440 200V199.5H400V200V200.5H440V200ZM480 160H479.5V200H480H480.5V160H480ZM480 200V199.5H440V200V200.5H480V200ZM520 160H519.5V200H520H520.5V160H520ZM520 200V199.5H480V200V200.5H520V200ZM560 200V199.5H520V200V200.5H560V200ZM40 200H39.5V240H40H40.5V200H40ZM40 240V239.5H0V240V240.5H40V240ZM80 200H79.5V240H80H80.5V200H80ZM80 240V239.5H40V240V240.5H80V240ZM120 200H119.5V240H120H120.5V200H120ZM120 240V239.5H80V240V240.5H120V240ZM160 200H159.5V240H160H160.5V200H160ZM160 240V239.5H120V240V240.5H160V240ZM200 200H199.5V240H200H200.5V200H200ZM200 240V239.5H160V240V240.5H200V240ZM240 200H239.5V240H240H240.5V200H240ZM240 240V239.5H200V240V240.5H240V240ZM280 200H279.5V240H280H280.5V200H280ZM280 240V239.5H240V240V240.5H280V240ZM320 200H319.5V240H320H320.5V200H320ZM320 240V239.5H280V240V240.5H320V240ZM360 200H359.5V240H360H360.5V200H360ZM360 240V239.5H320V240V240.5H360V240ZM400 200H399.5V240H400H400.5V200H400ZM400 240V239.5H360V240V240.5H400V240ZM440 200H439.5V240H440H440.5V200H440ZM440 240V239.5H400V240V240.5H440V240ZM480 200H479.5V240H480H480.5V200H480ZM480 240V239.5H440V240V240.5H480V240ZM520 200H519.5V240H520H520.5V200H520ZM520 240V239.5H480V240V240.5H520V240ZM560 240V239.5H520V240V240.5H560V240ZM40 240H39.5V280H40H40.5V240H40ZM40 280V279.5H0V280V280.5H40V280ZM80 240H79.5V280H80H80.5V240H80ZM80 280V279.5H40V280V280.5H80V280ZM120 240H119.5V280H120H120.5V240H120ZM120 280V279.5H80V280V280.5H120V280ZM160 240H159.5V280H160H160.5V240H160ZM160 280V279.5H120V280V280.5H160V280ZM200 240H199.5V280H200H200.5V240H200ZM200 280V279.5H160V280V280.5H200V280ZM240 240H239.5V280H240H240.5V240H240ZM240 280V279.5H200V280V280.5H240V280ZM280 240H279.5V280H280H280.5V240H280ZM280 280V279.5H240V280V280.5H280V280ZM320 240H319.5V280H320H320.5V240H320ZM320 280V279.5H280V280V280.5H320V280ZM360 240H359.5V280H360H360.5V240H360ZM360 280V279.5H320V280V280.5H360V280ZM400 240H399.5V280H400H400.5V240H400ZM400 280V279.5H360V280V280.5H400V280ZM440 240H439.5V280H440H440.5V240H440ZM440 280V279.5H400V280V280.5H440V280ZM480 240H479.5V280H480H480.5V240H480ZM480 280V279.5H440V280V280.5H480V280ZM520 240H519.5V280H520H520.5V240H520ZM520 280V279.5H480V280V280.5H520V280ZM560 280V279.5H520V280V280.5H560V280ZM40 280H39.5V320H40H40.5V280H40ZM40 320V319.5H0V320V320.5H40V320ZM80 280H79.5V320H80H80.5V280H80ZM80 320V319.5H40V320V320.5H80V320ZM120 280H119.5V320H120H120.5V280H120ZM120 320V319.5H80V320V320.5H120V320ZM160 280H159.5V320H160H160.5V280H160ZM160 320V319.5H120V320V320.5H160V320ZM200 280H199.5V320H200H200.5V280H200ZM200 320V319.5H160V320V320.5H200V320ZM240 280H239.5V320H240H240.5V280H240ZM240 320V319.5H200V320V320.5H240V320ZM280 280H279.5V320H280H280.5V280H280ZM280 320V319.5H240V320V320.5H280V320ZM320 280H319.5V320H320H320.5V280H320ZM320 320V319.5H280V320V320.5H320V320ZM360 280H359.5V320H360H360.5V280H360ZM360 320V319.5H320V320V320.5H360V320ZM400 280H399.5V320H400H400.5V280H400ZM400 320V319.5H360V320V320.5H400V320ZM440 280H439.5V320H440H440.5V280H440ZM440 320V319.5H400V320V320.5H440V320ZM480 280H479.5V320H480H480.5V280H480ZM480 320V319.5H440V320V320.5H480V320ZM520 280H519.5V320H520H520.5V280H520ZM520 320V319.5H480V320V320.5H520V320ZM560 320V319.5H520V320V320.5H560V320ZM40 320H39.5V360H40H40.5V320H40ZM40 360V359.5H0V360V360.5H40V360ZM80 320H79.5V360H80H80.5V320H80ZM80 360V359.5H40V360V360.5H80V360ZM120 320H119.5V360H120H120.5V320H120ZM120 360V359.5H80V360V360.5H120V360ZM160 320H159.5V360H160H160.5V320H160ZM160 360V359.5H120V360V360.5H160V360ZM200 320H199.5V360H200H200.5V320H200ZM200 360V359.5H160V360V360.5H200V360ZM240 320H239.5V360H240H240.5V320H240ZM240 360V359.5H200V360V360.5H240V360ZM280 320H279.5V360H280H280.5V320H280ZM280 360V359.5H240V360V360.5H280V360ZM320 320H319.5V360H320H320.5V320H320ZM320 360V359.5H280V360V360.5H320V360ZM360 320H359.5V360H360H360.5V320H360ZM360 360V359.5H320V360V360.5H360V360ZM400 320H399.5V360H400H400.5V320H400ZM400 360V359.5H360V360V360.5H400V360ZM440 320H439.5V360H440H440.5V320H440ZM440 360V359.5H400V360V360.5H440V360ZM480 320H479.5V360H480H480.5V320H480ZM480 360V359.5H440V360V360.5H480V360ZM520 320H519.5V360H520H520.5V320H520ZM520 360V359.5H480V360V360.5H520V360ZM560 360V359.5H520V360V360.5H560V360ZM40 360H39.5V400H40H40.5V360H40ZM40 400V399.5H0V400V400.5H40V400ZM80 360H79.5V400H80H80.5V360H80ZM80 400V399.5H40V400V400.5H80V400ZM120 360H119.5V400H120H120.5V360H120ZM120 400V399.5H80V400V400.5H120V400ZM160 360H159.5V400H160H160.5V360H160ZM160 400V399.5H120V400V400.5H160V400ZM200 360H199.5V400H200H200.5V360H200ZM200 400V399.5H160V400V400.5H200V400ZM240 360H239.5V400H240H240.5V360H240ZM240 400V399.5H200V400V400.5H240V400ZM280 360H279.5V400H280H280.5V360H280ZM280 400V399.5H240V400V400.5H280V400ZM320 360H319.5V400H320H320.5V360H320ZM320 400V399.5H280V400V400.5H320V400ZM360 360H359.5V400H360H360.5V360H360ZM360 400V399.5H320V400V400.5H360V400ZM400 360H399.5V400H400H400.5V360H400ZM400 400V399.5H360V400V400.5H400V400ZM440 360H439.5V400H440H440.5V360H440ZM440 400V399.5H400V400V400.5H440V400ZM480 360H479.5V400H480H480.5V360H480ZM480 400V399.5H440V400V400.5H480V400ZM520 360H519.5V400H520H520.5V360H520ZM520 400V399.5H480V400V400.5H520V400ZM560 400V399.5H520V400V400.5H560V400ZM40 400H39.5V440H40H40.5V400H40ZM40 440V439.5H0V440V440.5H40V440ZM80 400H79.5V440H80H80.5V400H80ZM80 440V439.5H40V440V440.5H80V440ZM120 400H119.5V440H120H120.5V400H120ZM120 440V439.5H80V440V440.5H120V440ZM160 400H159.5V440H160H160.5V400H160ZM160 440V439.5H120V440V440.5H160V440ZM200 400H199.5V440H200H200.5V400H200ZM200 440V439.5H160V440V440.5H200V440ZM240 400H239.5V440H240H240.5V400H240ZM240 440V439.5H200V440V440.5H240V440ZM280 400H279.5V440H280H280.5V400H280ZM280 440V439.5H240V440V440.5H280V440ZM320 400H319.5V440H320H320.5V400H320ZM320 440V439.5H280V440V440.5H320V440ZM360 400H359.5V440H360H360.5V400H360ZM360 440V439.5H320V440V440.5H360V440ZM400 400H399.5V440H400H400.5V400H400ZM400 440V439.5H360V440V440.5H400V440ZM440 400H439.5V440H440H440.5V400H440ZM440 440V439.5H400V440V440.5H440V440ZM480 400H479.5V440H480H480.5V400H480ZM480 440V439.5H440V440V440.5H480V440ZM520 400H519.5V440H520H520.5V400H520ZM520 440V439.5H480V440V440.5H520V440ZM560 440V439.5H520V440V440.5H560V440ZM40 440H39.5V480H40H40.5V440H40ZM40 480V479.5H0V480V480.5H40V480ZM80 440H79.5V480H80H80.5V440H80ZM80 480V479.5H40V480V480.5H80V480ZM120 440H119.5V480H120H120.5V440H120ZM120 480V479.5H80V480V480.5H120V480ZM160 440H159.5V480H160H160.5V440H160ZM160 480V479.5H120V480V480.5H160V480ZM200 440H199.5V480H200H200.5V440H200ZM200 480V479.5H160V480V480.5H200V480ZM240 440H239.5V480H240H240.5V440H240ZM240 480V479.5H200V480V480.5H240V480ZM280 440H279.5V480H280H280.5V440H280ZM280 480V479.5H240V480V480.5H280V480ZM320 440H319.5V480H320H320.5V440H320ZM320 480V479.5H280V480V480.5H320V480ZM360 440H359.5V480H360H360.5V440H360ZM360 480V479.5H320V480V480.5H360V480ZM400 440H399.5V480H400H400.5V440H400ZM400 480V479.5H360V480V480.5H400V480ZM440 440H439.5V480H440H440.5V440H440ZM440 480V479.5H400V480V480.5H440V480ZM480 440H479.5V480H480H480.5V440H480ZM480 480V479.5H440V480V480.5H480V480ZM520 440H519.5V480H520H520.5V440H520ZM520 480V479.5H480V480V480.5H520V480ZM560 480V479.5H520V480V480.5H560V480ZM40 480H39.5V520H40H40.5V480H40ZM40 520V519.5H0V520V520.5H40V520ZM80 480H79.5V520H80H80.5V480H80ZM80 520V519.5H40V520V520.5H80V520ZM120 480H119.5V520H120H120.5V480H120ZM120 520V519.5H80V520V520.5H120V520ZM160 480H159.5V520H160H160.5V480H160ZM160 520V519.5H120V520V520.5H160V520ZM200 480H199.5V520H200H200.5V480H200ZM200 520V519.5H160V520V520.5H200V520ZM240 480H239.5V520H240H240.5V480H240ZM240 520V519.5H200V520V520.5H240V520ZM280 480H279.5V520H280H280.5V480H280ZM280 520V519.5H240V520V520.5H280V520ZM320 480H319.5V520H320H320.5V480H320ZM320 520V519.5H280V520V520.5H320V520ZM360 480H359.5V520H360H360.5V480H360ZM360 520V519.5H320V520V520.5H360V520ZM400 480H399.5V520H400H400.5V480H400ZM400 520V519.5H360V520V520.5H400V520ZM440 480H439.5V520H440H440.5V480H440ZM440 520V519.5H400V520V520.5H440V520ZM480 480H479.5V520H480H480.5V480H480ZM480 520V519.5H440V520V520.5H480V520ZM520 480H519.5V520H520H520.5V480H520ZM520 520V519.5H480V520V520.5H520V520ZM560 520V519.5H520V520V520.5H560V520ZM40 520H39.5V560H40H40.5V520H40ZM80 520H79.5V560H80H80.5V520H80ZM120 520H119.5V560H120H120.5V520H120ZM160 520H159.5V560H160H160.5V520H160ZM200 520H199.5V560H200H200.5V520H200ZM240 520H239.5V560H240H240.5V520H240ZM280 520H279.5V560H280H280.5V520H280ZM320 520H319.5V560H320H320.5V520H320ZM360 520H359.5V560H360H360.5V520H360ZM400 520H399.5V560H400H400.5V520H400ZM440 520H439.5V560H440H440.5V520H440ZM480 520H479.5V560H480H480.5V520H480ZM520 520H519.5V560H520H520.5V520H520ZM0 0V-1H-1V0H0ZM560 0H561V-1H560V0ZM0 560H-1V561H0V560ZM560 560V561H561V560H560ZM0 0V1H40V0V-1H0V0ZM0 40H1V0H0H-1V40H0ZM40 0V1H80V0V-1H40V0ZM80 0V1H120V0V-1H80V0ZM120 0V1H160V0V-1H120V0ZM160 0V1H200V0V-1H160V0ZM200 0V1H240V0V-1H200V0ZM240 0V1H280V0V-1H240V0ZM280 0V1H320V0V-1H280V0ZM320 0V1H360V0V-1H320V0ZM360 0V1H400V0V-1H360V0ZM400 0V1H440V0V-1H400V0ZM440 0V1H480V0V-1H440V0ZM480 0V1H520V0V-1H480V0ZM520 0V1H560V0V-1H520V0ZM560 0H559V40H560H561V0H560ZM0 80H1V40H0H-1V80H0ZM560 40H559V80H560H561V40H560ZM0 120H1V80H0H-1V120H0ZM560 80H559V120H560H561V80H560ZM0 160H1V120H0H-1V160H0ZM560 120H559V160H560H561V120H560ZM0 200H1V160H0H-1V200H0ZM560 160H559V200H560H561V160H560ZM0 240H1V200H0H-1V240H0ZM560 200H559V240H560H561V200H560ZM0 280H1V240H0H-1V280H0ZM560 240H559V280H560H561V240H560ZM0 320H1V280H0H-1V320H0ZM560 280H559V320H560H561V280H560ZM0 360H1V320H0H-1V360H0ZM560 320H559V360H560H561V320H560ZM0 400H1V360H0H-1V400H0ZM560 360H559V400H560H561V360H560ZM0 440H1V400H0H-1V440H0ZM560 400H559V440H560H561V400H560ZM0 480H1V440H0H-1V480H0ZM560 440H559V480H560H561V440H560ZM0 520H1V480H0H-1V520H0ZM560 480H559V520H560H561V480H560ZM40 560V559H0V560V561H40V560ZM0 560H1V520H0H-1V560H0ZM80 560V559H40V560V561H80V560ZM120 560V559H80V560V561H120V560ZM160 560V559H120V560V561H160V560ZM200 560V559H160V560V561H200V560ZM240 560V559H200V560V561H240V560ZM280 560V559H240V560V561H280V560ZM320 560V559H280V560V561H320V560ZM360 560V559H320V560V561H360V560ZM400 560V559H360V560V561H400V560ZM440 560V559H400V560V561H440V560ZM480 560V559H440V560V561H480V560ZM520 560V559H480V560V561H520V560ZM560 520H559V560H560H561V520H560ZM560 560V559H520V560V561H560V560Z" fill="#272727"/>
</g>
<path d="M80 480H160V520H40V400H80V480ZM200 480H160V440H200V480ZM160 440H120V400H160V440ZM240 440H200V400H240V440ZM120 400H80V360H120V400ZM280 400H240V360H280V400ZM160 360H120V320H160V360ZM320 360H280V320H320V360ZM200 320H160V280H200V320ZM360 320H320V280H360V320ZM240 280H200V240H240V280ZM400 280H360V240H400V280ZM280 240H240V200H280V240ZM440 240H400V200H440V240ZM320 200H280V160H320V200ZM400 200H360V160H400V200ZM480 200H440V160H480V200ZM360 160H320V120H360V160ZM520 160H480V120H520V160ZM400 120H360V80H400V120ZM480 120H440V80H480V120ZM440 80H400V40H440V80Z" fill="#442CBF"/>
</g>
<defs>
<clipPath id="clip0_2290_2">
<rect width="560" height="560" fill="white"/>
</clipPath>
</defs>
</svg>
