<svg width="680" height="480" viewBox="0 0 680 480" fill="none" xmlns="http://www.w3.org/2000/svg">
<path d="M200 480H120V440H200V480ZM560 480H480V440H560V480ZM120 440H80V400H120V440ZM240 440H200V400H240V440ZM480 440H440V400H480V440ZM600 440H560V400H600V440ZM80 400H40V320H80V400ZM280 400H240V360H200V320H280V400ZM440 400H400V320H440V400ZM640 400H600V360H560V320H640V400ZM40 320H0V160H40V320ZM200 320H160V160H200V320ZM320 320H280V280H240V200H280V160H320V320ZM400 320H360V160H400V320ZM560 320H520V160H560V320ZM680 320H640V280H600V200H640V160H680V320ZM80 160H40V80H80V160ZM280 160H200V120H240V80H280V160ZM440 160H400V80H440V160ZM640 160H560V120H600V80H640V160ZM120 80H80V40H120V80ZM240 80H200V40H240V80ZM480 80H440V40H480V80ZM600 80H560V40H600V80ZM200 40H120V0H200V40ZM560 40H480V0H560V40Z" fill="#442CBF"/>
</svg>
