<svg width="760" height="760" viewBox="0 0 760 760" fill="none" xmlns="http://www.w3.org/2000/svg">
<mask id="path-1-inside-1_230_9063" fill="white">
<path d="M0 0H54.2857V54.2857H0V0Z"/>
<path d="M54.2857 0H108.571V54.2857H54.2857V0Z"/>
<path d="M108.571 0H162.857V54.2857H108.571V0Z"/>
<path d="M162.857 0H217.143V54.2857H162.857V0Z"/>
<path d="M217.143 0H271.429V54.2857H217.143V0Z"/>
<path d="M271.429 0H325.714V54.2857H271.429V0Z"/>
<path d="M325.714 0H380V54.2857H325.714V0Z"/>
<path d="M380 0H434.286V54.2857H380V0Z"/>
<path d="M434.286 0H488.571V54.2857H434.286V0Z"/>
<path d="M488.571 0H542.857V54.2857H488.571V0Z"/>
<path d="M542.857 0H597.143V54.2857H542.857V0Z"/>
<path d="M597.143 0H651.429V54.2857H597.143V0Z"/>
<path d="M651.429 0H705.714V54.2857H651.429V0Z"/>
<path d="M705.714 0H760V54.2857H705.714V0Z"/>
<path d="M0 54.2857H54.2857V108.571H0V54.2857Z"/>
<path d="M54.2857 54.2857H108.571V108.571H54.2857V54.2857Z"/>
<path d="M108.571 54.2857H162.857V108.571H108.571V54.2857Z"/>
<path d="M162.857 54.2857H217.143V108.571H162.857V54.2857Z"/>
<path d="M217.143 54.2857H271.429V108.571H217.143V54.2857Z"/>
<path d="M271.429 54.2857H325.714V108.571H271.429V54.2857Z"/>
<path d="M325.714 54.2857H380V108.571H325.714V54.2857Z"/>
<path d="M380 54.2857H434.286V108.571H380V54.2857Z"/>
<path d="M434.286 54.2857H488.571V108.571H434.286V54.2857Z"/>
<path d="M488.571 54.2857H542.857V108.571H488.571V54.2857Z"/>
<path d="M542.857 54.2857H597.143V108.571H542.857V54.2857Z"/>
<path d="M597.143 54.2857H651.429V108.571H597.143V54.2857Z"/>
<path d="M651.429 54.2857H705.714V108.571H651.429V54.2857Z"/>
<path d="M705.714 54.2857H760V108.571H705.714V54.2857Z"/>
<path d="M0 108.571H54.2857V162.857H0V108.571Z"/>
<path d="M54.2857 108.571H108.571V162.857H54.2857V108.571Z"/>
<path d="M108.571 108.571H162.857V162.857H108.571V108.571Z"/>
<path d="M162.857 108.571H217.143V162.857H162.857V108.571Z"/>
<path d="M217.143 108.571H271.429V162.857H217.143V108.571Z"/>
<path d="M271.429 108.571H325.714V162.857H271.429V108.571Z"/>
<path d="M325.714 108.571H380V162.857H325.714V108.571Z"/>
<path d="M380 108.571H434.286V162.857H380V108.571Z"/>
<path d="M434.286 108.571H488.571V162.857H434.286V108.571Z"/>
<path d="M488.571 108.571H542.857V162.857H488.571V108.571Z"/>
<path d="M542.857 108.571H597.143V162.857H542.857V108.571Z"/>
<path d="M597.143 108.571H651.429V162.857H597.143V108.571Z"/>
<path d="M651.429 108.571H705.714V162.857H651.429V108.571Z"/>
<path d="M705.714 108.571H760V162.857H705.714V108.571Z"/>
<path d="M0 162.857H54.2857V217.143H0V162.857Z"/>
<path d="M54.2857 162.857H108.571V217.143H54.2857V162.857Z"/>
<path d="M108.571 162.857H162.857V217.143H108.571V162.857Z"/>
<path d="M162.857 162.857H217.143V217.143H162.857V162.857Z"/>
<path d="M217.143 162.857H271.429V217.143H217.143V162.857Z"/>
<path d="M271.429 162.857H325.714V217.143H271.429V162.857Z"/>
<path d="M325.714 162.857H380V217.143H325.714V162.857Z"/>
<path d="M380 162.857H434.286V217.143H380V162.857Z"/>
<path d="M434.286 162.857H488.571V217.143H434.286V162.857Z"/>
<path d="M488.571 162.857H542.857V217.143H488.571V162.857Z"/>
<path d="M542.857 162.857H597.143V217.143H542.857V162.857Z"/>
<path d="M597.143 162.857H651.429V217.143H597.143V162.857Z"/>
<path d="M651.429 162.857H705.714V217.143H651.429V162.857Z"/>
<path d="M705.714 162.857H760V217.143H705.714V162.857Z"/>
<path d="M0 217.143H54.2857V271.429H0V217.143Z"/>
<path d="M54.2857 217.143H108.571V271.429H54.2857V217.143Z"/>
<path d="M108.571 217.143H162.857V271.429H108.571V217.143Z"/>
<path d="M162.857 217.143H217.143V271.429H162.857V217.143Z"/>
<path d="M217.143 217.143H271.429V271.429H217.143V217.143Z"/>
<path d="M271.429 217.143H325.714V271.429H271.429V217.143Z"/>
<path d="M325.714 217.143H380V271.429H325.714V217.143Z"/>
<path d="M380 217.143H434.286V271.429H380V217.143Z"/>
<path d="M434.286 217.143H488.571V271.429H434.286V217.143Z"/>
<path d="M488.571 217.143H542.857V271.429H488.571V217.143Z"/>
<path d="M542.857 217.143H597.143V271.429H542.857V217.143Z"/>
<path d="M597.143 217.143H651.429V271.429H597.143V217.143Z"/>
<path d="M651.429 217.143H705.714V271.429H651.429V217.143Z"/>
<path d="M705.714 217.143H760V271.429H705.714V217.143Z"/>
<path d="M0 271.429H54.2857V325.714H0V271.429Z"/>
<path d="M54.2857 271.429H108.571V325.714H54.2857V271.429Z"/>
<path d="M108.571 271.429H162.857V325.714H108.571V271.429Z"/>
<path d="M162.857 271.429H217.143V325.714H162.857V271.429Z"/>
<path d="M217.143 271.429H271.429V325.714H217.143V271.429Z"/>
<path d="M271.429 271.429H325.714V325.714H271.429V271.429Z"/>
<path d="M325.714 271.429H380V325.714H325.714V271.429Z"/>
<path d="M380 271.429H434.286V325.714H380V271.429Z"/>
<path d="M434.286 271.429H488.571V325.714H434.286V271.429Z"/>
<path d="M488.571 271.429H542.857V325.714H488.571V271.429Z"/>
<path d="M542.857 271.429H597.143V325.714H542.857V271.429Z"/>
<path d="M597.143 271.429H651.429V325.714H597.143V271.429Z"/>
<path d="M651.429 271.429H705.714V325.714H651.429V271.429Z"/>
<path d="M705.714 271.429H760V325.714H705.714V271.429Z"/>
<path d="M0 325.714H54.2857V380H0V325.714Z"/>
<path d="M54.2857 325.714H108.571V380H54.2857V325.714Z"/>
<path d="M108.571 325.714H162.857V380H108.571V325.714Z"/>
<path d="M162.857 325.714H217.143V380H162.857V325.714Z"/>
<path d="M217.143 325.714H271.429V380H217.143V325.714Z"/>
<path d="M271.429 325.714H325.714V380H271.429V325.714Z"/>
<path d="M325.714 325.714H380V380H325.714V325.714Z"/>
<path d="M380 325.714H434.286V380H380V325.714Z"/>
<path d="M434.286 325.714H488.571V380H434.286V325.714Z"/>
<path d="M488.571 325.714H542.857V380H488.571V325.714Z"/>
<path d="M542.857 325.714H597.143V380H542.857V325.714Z"/>
<path d="M597.143 325.714H651.429V380H597.143V325.714Z"/>
<path d="M651.429 325.714H705.714V380H651.429V325.714Z"/>
<path d="M705.714 325.714H760V380H705.714V325.714Z"/>
<path d="M0 380H54.2857V434.286H0V380Z"/>
<path d="M54.2857 380H108.571V434.286H54.2857V380Z"/>
<path d="M108.571 380H162.857V434.286H108.571V380Z"/>
<path d="M162.857 380H217.143V434.286H162.857V380Z"/>
<path d="M217.143 380H271.429V434.286H217.143V380Z"/>
<path d="M271.429 380H325.714V434.286H271.429V380Z"/>
<path d="M325.714 380H380V434.286H325.714V380Z"/>
<path d="M380 380H434.286V434.286H380V380Z"/>
<path d="M434.286 380H488.571V434.286H434.286V380Z"/>
<path d="M488.571 380H542.857V434.286H488.571V380Z"/>
<path d="M542.857 380H597.143V434.286H542.857V380Z"/>
<path d="M597.143 380H651.429V434.286H597.143V380Z"/>
<path d="M651.429 380H705.714V434.286H651.429V380Z"/>
<path d="M705.714 380H760V434.286H705.714V380Z"/>
<path d="M0 434.286H54.2857V488.571H0V434.286Z"/>
<path d="M54.2857 434.286H108.571V488.571H54.2857V434.286Z"/>
<path d="M108.571 434.286H162.857V488.571H108.571V434.286Z"/>
<path d="M162.857 434.286H217.143V488.571H162.857V434.286Z"/>
<path d="M217.143 434.286H271.429V488.571H217.143V434.286Z"/>
<path d="M271.429 434.286H325.714V488.571H271.429V434.286Z"/>
<path d="M325.714 434.286H380V488.571H325.714V434.286Z"/>
<path d="M380 434.286H434.286V488.571H380V434.286Z"/>
<path d="M434.286 434.286H488.571V488.571H434.286V434.286Z"/>
<path d="M488.571 434.286H542.857V488.571H488.571V434.286Z"/>
<path d="M542.857 434.286H597.143V488.571H542.857V434.286Z"/>
<path d="M597.143 434.286H651.429V488.571H597.143V434.286Z"/>
<path d="M651.429 434.286H705.714V488.571H651.429V434.286Z"/>
<path d="M705.714 434.286H760V488.571H705.714V434.286Z"/>
<path d="M0 488.571H54.2857V542.857H0V488.571Z"/>
<path d="M54.2857 488.571H108.571V542.857H54.2857V488.571Z"/>
<path d="M108.571 488.571H162.857V542.857H108.571V488.571Z"/>
<path d="M162.857 488.571H217.143V542.857H162.857V488.571Z"/>
<path d="M217.143 488.571H271.429V542.857H217.143V488.571Z"/>
<path d="M271.429 488.571H325.714V542.857H271.429V488.571Z"/>
<path d="M325.714 488.571H380V542.857H325.714V488.571Z"/>
<path d="M380 488.571H434.286V542.857H380V488.571Z"/>
<path d="M434.286 488.571H488.571V542.857H434.286V488.571Z"/>
<path d="M488.571 488.571H542.857V542.857H488.571V488.571Z"/>
<path d="M542.857 488.571H597.143V542.857H542.857V488.571Z"/>
<path d="M597.143 488.571H651.429V542.857H597.143V488.571Z"/>
<path d="M651.429 488.571H705.714V542.857H651.429V488.571Z"/>
<path d="M705.714 488.571H760V542.857H705.714V488.571Z"/>
<path d="M0 542.857H54.2857V597.143H0V542.857Z"/>
<path d="M54.2857 542.857H108.571V597.143H54.2857V542.857Z"/>
<path d="M108.571 542.857H162.857V597.143H108.571V542.857Z"/>
<path d="M162.857 542.857H217.143V597.143H162.857V542.857Z"/>
<path d="M217.143 542.857H271.429V597.143H217.143V542.857Z"/>
<path d="M271.429 542.857H325.714V597.143H271.429V542.857Z"/>
<path d="M325.714 542.857H380V597.143H325.714V542.857Z"/>
<path d="M380 542.857H434.286V597.143H380V542.857Z"/>
<path d="M434.286 542.857H488.571V597.143H434.286V542.857Z"/>
<path d="M488.571 542.857H542.857V597.143H488.571V542.857Z"/>
<path d="M542.857 542.857H597.143V597.143H542.857V542.857Z"/>
<path d="M597.143 542.857H651.429V597.143H597.143V542.857Z"/>
<path d="M651.429 542.857H705.714V597.143H651.429V542.857Z"/>
<path d="M705.714 542.857H760V597.143H705.714V542.857Z"/>
<path d="M0 597.143H54.2857V651.429H0V597.143Z"/>
<path d="M54.2857 597.143H108.571V651.429H54.2857V597.143Z"/>
<path d="M108.571 597.143H162.857V651.429H108.571V597.143Z"/>
<path d="M162.857 597.143H217.143V651.429H162.857V597.143Z"/>
<path d="M217.143 597.143H271.429V651.429H217.143V597.143Z"/>
<path d="M271.429 597.143H325.714V651.429H271.429V597.143Z"/>
<path d="M325.714 597.143H380V651.429H325.714V597.143Z"/>
<path d="M380 597.143H434.286V651.429H380V597.143Z"/>
<path d="M434.286 597.143H488.571V651.429H434.286V597.143Z"/>
<path d="M488.571 597.143H542.857V651.429H488.571V597.143Z"/>
<path d="M542.857 597.143H597.143V651.429H542.857V597.143Z"/>
<path d="M597.143 597.143H651.429V651.429H597.143V597.143Z"/>
<path d="M651.429 597.143H705.714V651.429H651.429V597.143Z"/>
<path d="M705.714 597.143H760V651.429H705.714V597.143Z"/>
<path d="M0 651.429H54.2857V705.714H0V651.429Z"/>
<path d="M54.2857 651.429H108.571V705.714H54.2857V651.429Z"/>
<path d="M108.571 651.429H162.857V705.714H108.571V651.429Z"/>
<path d="M162.857 651.429H217.143V705.714H162.857V651.429Z"/>
<path d="M217.143 651.429H271.429V705.714H217.143V651.429Z"/>
<path d="M271.429 651.429H325.714V705.714H271.429V651.429Z"/>
<path d="M325.714 651.429H380V705.714H325.714V651.429Z"/>
<path d="M380 651.429H434.286V705.714H380V651.429Z"/>
<path d="M434.286 651.429H488.571V705.714H434.286V651.429Z"/>
<path d="M488.571 651.429H542.857V705.714H488.571V651.429Z"/>
<path d="M542.857 651.429H597.143V705.714H542.857V651.429Z"/>
<path d="M597.143 651.429H651.429V705.714H597.143V651.429Z"/>
<path d="M651.429 651.429H705.714V705.714H651.429V651.429Z"/>
<path d="M705.714 651.429H760V705.714H705.714V651.429Z"/>
<path d="M0 705.714H54.2857V760H0V705.714Z"/>
<path d="M54.2857 705.714H108.571V760H54.2857V705.714Z"/>
<path d="M108.571 705.714H162.857V760H108.571V705.714Z"/>
<path d="M162.857 705.714H217.143V760H162.857V705.714Z"/>
<path d="M217.143 705.714H271.429V760H217.143V705.714Z"/>
<path d="M271.429 705.714H325.714V760H271.429V705.714Z"/>
<path d="M325.714 705.714H380V760H325.714V705.714Z"/>
<path d="M380 705.714H434.286V760H380V705.714Z"/>
<path d="M434.286 705.714H488.571V760H434.286V705.714Z"/>
<path d="M488.571 705.714H542.857V760H488.571V705.714Z"/>
<path d="M542.857 705.714H597.143V760H542.857V705.714Z"/>
<path d="M597.143 705.714H651.429V760H597.143V705.714Z"/>
<path d="M651.429 705.714H705.714V760H651.429V705.714Z"/>
<path d="M705.714 705.714H760V760H705.714V705.714Z"/>
</mask>
<path d="M54.2857 0H53.7857V54.2857H54.2857H54.7857V0H54.2857ZM54.2857 54.2857V53.7857H0V54.2857V54.7857H54.2857V54.2857ZM108.571 0H108.071V54.2857H108.571H109.071V0H108.571ZM108.571 54.2857V53.7857H54.2857V54.2857V54.7857H108.571V54.2857ZM162.857 0H162.357V54.2857H162.857H163.357V0H162.857ZM162.857 54.2857V53.7857H108.571V54.2857V54.7857H162.857V54.2857ZM217.143 0H216.643V54.2857H217.143H217.643V0H217.143ZM217.143 54.2857V53.7857H162.857V54.2857V54.7857H217.143V54.2857ZM271.429 0H270.929V54.2857H271.429H271.929V0H271.429ZM271.429 54.2857V53.7857H217.143V54.2857V54.7857H271.429V54.2857ZM325.714 0H325.214V54.2857H325.714H326.214V0H325.714ZM325.714 54.2857V53.7857H271.429V54.2857V54.7857H325.714V54.2857ZM380 0H379.5V54.2857H380H380.5V0H380ZM380 54.2857V53.7857H325.714V54.2857V54.7857H380V54.2857ZM434.286 0H433.786V54.2857H434.286H434.786V0H434.286ZM434.286 54.2857V53.7857H380V54.2857V54.7857H434.286V54.2857ZM488.571 0H488.071V54.2857H488.571H489.071V0H488.571ZM488.571 54.2857V53.7857H434.286V54.2857V54.7857H488.571V54.2857ZM542.857 0H542.357V54.2857H542.857H543.357V0H542.857ZM542.857 54.2857V53.7857H488.571V54.2857V54.7857H542.857V54.2857ZM597.143 0H596.643V54.2857H597.143H597.643V0H597.143ZM597.143 54.2857V53.7857H542.857V54.2857V54.7857H597.143V54.2857ZM651.429 0H650.929V54.2857H651.429H651.929V0H651.429ZM651.429 54.2857V53.7857H597.143V54.2857V54.7857H651.429V54.2857ZM705.714 0H705.214V54.2857H705.714H706.214V0H705.714ZM705.714 54.2857V53.7857H651.429V54.2857V54.7857H705.714V54.2857ZM760 54.2857V53.7857H705.714V54.2857V54.7857H760V54.2857ZM54.2857 54.2857H53.7857V108.571H54.2857H54.7857V54.2857H54.2857ZM54.2857 108.571V108.071H0V108.571V109.071H54.2857V108.571ZM108.571 54.2857H108.071V108.571H108.571H109.071V54.2857H108.571ZM108.571 108.571V108.071H54.2857V108.571V109.071H108.571V108.571ZM162.857 54.2857H162.357V108.571H162.857H163.357V54.2857H162.857ZM162.857 108.571V108.071H108.571V108.571V109.071H162.857V108.571ZM217.143 54.2857H216.643V108.571H217.143H217.643V54.2857H217.143ZM217.143 108.571V108.071H162.857V108.571V109.071H217.143V108.571ZM271.429 54.2857H270.929V108.571H271.429H271.929V54.2857H271.429ZM271.429 108.571V108.071H217.143V108.571V109.071H271.429V108.571ZM325.714 54.2857H325.214V108.571H325.714H326.214V54.2857H325.714ZM325.714 108.571V108.071H271.429V108.571V109.071H325.714V108.571ZM380 54.2857H379.5V108.571H380H380.5V54.2857H380ZM380 108.571V108.071H325.714V108.571V109.071H380V108.571ZM434.286 54.2857H433.786V108.571H434.286H434.786V54.2857H434.286ZM434.286 108.571V108.071H380V108.571V109.071H434.286V108.571ZM488.571 54.2857H488.071V108.571H488.571H489.071V54.2857H488.571ZM488.571 108.571V108.071H434.286V108.571V109.071H488.571V108.571ZM542.857 54.2857H542.357V108.571H542.857H543.357V54.2857H542.857ZM542.857 108.571V108.071H488.571V108.571V109.071H542.857V108.571ZM597.143 54.2857H596.643V108.571H597.143H597.643V54.2857H597.143ZM597.143 108.571V108.071H542.857V108.571V109.071H597.143V108.571ZM651.429 54.2857H650.929V108.571H651.429H651.929V54.2857H651.429ZM651.429 108.571V108.071H597.143V108.571V109.071H651.429V108.571ZM705.714 54.2857H705.214V108.571H705.714H706.214V54.2857H705.714ZM705.714 108.571V108.071H651.429V108.571V109.071H705.714V108.571ZM760 108.571V108.071H705.714V108.571V109.071H760V108.571ZM54.2857 108.571H53.7857V162.857H54.2857H54.7857V108.571H54.2857ZM54.2857 162.857V162.357H0V162.857V163.357H54.2857V162.857ZM108.571 108.571H108.071V162.857H108.571H109.071V108.571H108.571ZM108.571 162.857V162.357H54.2857V162.857V163.357H108.571V162.857ZM162.857 108.571H162.357V162.857H162.857H163.357V108.571H162.857ZM162.857 162.857V162.357H108.571V162.857V163.357H162.857V162.857ZM217.143 108.571H216.643V162.857H217.143H217.643V108.571H217.143ZM217.143 162.857V162.357H162.857V162.857V163.357H217.143V162.857ZM271.429 108.571H270.929V162.857H271.429H271.929V108.571H271.429ZM271.429 162.857V162.357H217.143V162.857V163.357H271.429V162.857ZM325.714 108.571H325.214V162.857H325.714H326.214V108.571H325.714ZM325.714 162.857V162.357H271.429V162.857V163.357H325.714V162.857ZM380 108.571H379.5V162.857H380H380.5V108.571H380ZM380 162.857V162.357H325.714V162.857V163.357H380V162.857ZM434.286 108.571H433.786V162.857H434.286H434.786V108.571H434.286ZM434.286 162.857V162.357H380V162.857V163.357H434.286V162.857ZM488.571 108.571H488.071V162.857H488.571H489.071V108.571H488.571ZM488.571 162.857V162.357H434.286V162.857V163.357H488.571V162.857ZM542.857 108.571H542.357V162.857H542.857H543.357V108.571H542.857ZM542.857 162.857V162.357H488.571V162.857V163.357H542.857V162.857ZM597.143 108.571H596.643V162.857H597.143H597.643V108.571H597.143ZM597.143 162.857V162.357H542.857V162.857V163.357H597.143V162.857ZM651.429 108.571H650.929V162.857H651.429H651.929V108.571H651.429ZM651.429 162.857V162.357H597.143V162.857V163.357H651.429V162.857ZM705.714 108.571H705.214V162.857H705.714H706.214V108.571H705.714ZM705.714 162.857V162.357H651.429V162.857V163.357H705.714V162.857ZM760 162.857V162.357H705.714V162.857V163.357H760V162.857ZM54.2857 162.857H53.7857V217.143H54.2857H54.7857V162.857H54.2857ZM54.2857 217.143V216.643H0V217.143V217.643H54.2857V217.143ZM108.571 162.857H108.071V217.143H108.571H109.071V162.857H108.571ZM108.571 217.143V216.643H54.2857V217.143V217.643H108.571V217.143ZM162.857 162.857H162.357V217.143H162.857H163.357V162.857H162.857ZM162.857 217.143V216.643H108.571V217.143V217.643H162.857V217.143ZM217.143 162.857H216.643V217.143H217.143H217.643V162.857H217.143ZM217.143 217.143V216.643H162.857V217.143V217.643H217.143V217.143ZM271.429 162.857H270.929V217.143H271.429H271.929V162.857H271.429ZM271.429 217.143V216.643H217.143V217.143V217.643H271.429V217.143ZM325.714 162.857H325.214V217.143H325.714H326.214V162.857H325.714ZM325.714 217.143V216.643H271.429V217.143V217.643H325.714V217.143ZM380 162.857H379.5V217.143H380H380.5V162.857H380ZM380 217.143V216.643H325.714V217.143V217.643H380V217.143ZM434.286 162.857H433.786V217.143H434.286H434.786V162.857H434.286ZM434.286 217.143V216.643H380V217.143V217.643H434.286V217.143ZM488.571 162.857H488.071V217.143H488.571H489.071V162.857H488.571ZM488.571 217.143V216.643H434.286V217.143V217.643H488.571V217.143ZM542.857 162.857H542.357V217.143H542.857H543.357V162.857H542.857ZM542.857 217.143V216.643H488.571V217.143V217.643H542.857V217.143ZM597.143 162.857H596.643V217.143H597.143H597.643V162.857H597.143ZM597.143 217.143V216.643H542.857V217.143V217.643H597.143V217.143ZM651.429 162.857H650.929V217.143H651.429H651.929V162.857H651.429ZM651.429 217.143V216.643H597.143V217.143V217.643H651.429V217.143ZM705.714 162.857H705.214V217.143H705.714H706.214V162.857H705.714ZM705.714 217.143V216.643H651.429V217.143V217.643H705.714V217.143ZM760 217.143V216.643H705.714V217.143V217.643H760V217.143ZM54.2857 217.143H53.7857V271.429H54.2857H54.7857V217.143H54.2857ZM54.2857 271.429V270.929H0V271.429V271.929H54.2857V271.429ZM108.571 217.143H108.071V271.429H108.571H109.071V217.143H108.571ZM108.571 271.429V270.929H54.2857V271.429V271.929H108.571V271.429ZM162.857 217.143H162.357V271.429H162.857H163.357V217.143H162.857ZM162.857 271.429V270.929H108.571V271.429V271.929H162.857V271.429ZM217.143 217.143H216.643V271.429H217.143H217.643V217.143H217.143ZM217.143 271.429V270.929H162.857V271.429V271.929H217.143V271.429ZM271.429 217.143H270.929V271.429H271.429H271.929V217.143H271.429ZM271.429 271.429V270.929H217.143V271.429V271.929H271.429V271.429ZM325.714 217.143H325.214V271.429H325.714H326.214V217.143H325.714ZM325.714 271.429V270.929H271.429V271.429V271.929H325.714V271.429ZM380 217.143H379.5V271.429H380H380.5V217.143H380ZM380 271.429V270.929H325.714V271.429V271.929H380V271.429ZM434.286 217.143H433.786V271.429H434.286H434.786V217.143H434.286ZM434.286 271.429V270.929H380V271.429V271.929H434.286V271.429ZM488.571 217.143H488.071V271.429H488.571H489.071V217.143H488.571ZM488.571 271.429V270.929H434.286V271.429V271.929H488.571V271.429ZM542.857 217.143H542.357V271.429H542.857H543.357V217.143H542.857ZM542.857 271.429V270.929H488.571V271.429V271.929H542.857V271.429ZM597.143 217.143H596.643V271.429H597.143H597.643V217.143H597.143ZM597.143 271.429V270.929H542.857V271.429V271.929H597.143V271.429ZM651.429 217.143H650.929V271.429H651.429H651.929V217.143H651.429ZM651.429 271.429V270.929H597.143V271.429V271.929H651.429V271.429ZM705.714 217.143H705.214V271.429H705.714H706.214V217.143H705.714ZM705.714 271.429V270.929H651.429V271.429V271.929H705.714V271.429ZM760 271.429V270.929H705.714V271.429V271.929H760V271.429ZM54.2857 271.429H53.7857V325.714H54.2857H54.7857V271.429H54.2857ZM54.2857 325.714V325.214H0V325.714V326.214H54.2857V325.714ZM108.571 271.429H108.071V325.714H108.571H109.071V271.429H108.571ZM108.571 325.714V325.214H54.2857V325.714V326.214H108.571V325.714ZM162.857 271.429H162.357V325.714H162.857H163.357V271.429H162.857ZM162.857 325.714V325.214H108.571V325.714V326.214H162.857V325.714ZM217.143 271.429H216.643V325.714H217.143H217.643V271.429H217.143ZM217.143 325.714V325.214H162.857V325.714V326.214H217.143V325.714ZM271.429 271.429H270.929V325.714H271.429H271.929V271.429H271.429ZM271.429 325.714V325.214H217.143V325.714V326.214H271.429V325.714ZM325.714 271.429H325.214V325.714H325.714H326.214V271.429H325.714ZM325.714 325.714V325.214H271.429V325.714V326.214H325.714V325.714ZM380 271.429H379.5V325.714H380H380.5V271.429H380ZM380 325.714V325.214H325.714V325.714V326.214H380V325.714ZM434.286 271.429H433.786V325.714H434.286H434.786V271.429H434.286ZM434.286 325.714V325.214H380V325.714V326.214H434.286V325.714ZM488.571 271.429H488.071V325.714H488.571H489.071V271.429H488.571ZM488.571 325.714V325.214H434.286V325.714V326.214H488.571V325.714ZM542.857 271.429H542.357V325.714H542.857H543.357V271.429H542.857ZM542.857 325.714V325.214H488.571V325.714V326.214H542.857V325.714ZM597.143 271.429H596.643V325.714H597.143H597.643V271.429H597.143ZM597.143 325.714V325.214H542.857V325.714V326.214H597.143V325.714ZM651.429 271.429H650.929V325.714H651.429H651.929V271.429H651.429ZM651.429 325.714V325.214H597.143V325.714V326.214H651.429V325.714ZM705.714 271.429H705.214V325.714H705.714H706.214V271.429H705.714ZM705.714 325.714V325.214H651.429V325.714V326.214H705.714V325.714ZM760 325.714V325.214H705.714V325.714V326.214H760V325.714ZM54.2857 325.714H53.7857V380H54.2857H54.7857V325.714H54.2857ZM54.2857 380V379.5H0V380V380.5H54.2857V380ZM108.571 325.714H108.071V380H108.571H109.071V325.714H108.571ZM108.571 380V379.5H54.2857V380V380.5H108.571V380ZM162.857 325.714H162.357V380H162.857H163.357V325.714H162.857ZM162.857 380V379.5H108.571V380V380.5H162.857V380ZM217.143 325.714H216.643V380H217.143H217.643V325.714H217.143ZM217.143 380V379.5H162.857V380V380.5H217.143V380ZM271.429 325.714H270.929V380H271.429H271.929V325.714H271.429ZM271.429 380V379.5H217.143V380V380.5H271.429V380ZM325.714 325.714H325.214V380H325.714H326.214V325.714H325.714ZM325.714 380V379.5H271.429V380V380.5H325.714V380ZM380 325.714H379.5V380H380H380.5V325.714H380ZM380 380V379.5H325.714V380V380.5H380V380ZM434.286 325.714H433.786V380H434.286H434.786V325.714H434.286ZM434.286 380V379.5H380V380V380.5H434.286V380ZM488.571 325.714H488.071V380H488.571H489.071V325.714H488.571ZM488.571 380V379.5H434.286V380V380.5H488.571V380ZM542.857 325.714H542.357V380H542.857H543.357V325.714H542.857ZM542.857 380V379.5H488.571V380V380.5H542.857V380ZM597.143 325.714H596.643V380H597.143H597.643V325.714H597.143ZM597.143 380V379.5H542.857V380V380.5H597.143V380ZM651.429 325.714H650.929V380H651.429H651.929V325.714H651.429ZM651.429 380V379.5H597.143V380V380.5H651.429V380ZM705.714 325.714H705.214V380H705.714H706.214V325.714H705.714ZM705.714 380V379.5H651.429V380V380.5H705.714V380ZM760 380V379.5H705.714V380V380.5H760V380ZM54.2857 380H53.7857V434.286H54.2857H54.7857V380H54.2857ZM54.2857 434.286V433.786H0V434.286V434.786H54.2857V434.286ZM108.571 380H108.071V434.286H108.571H109.071V380H108.571ZM108.571 434.286V433.786H54.2857V434.286V434.786H108.571V434.286ZM162.857 380H162.357V434.286H162.857H163.357V380H162.857ZM162.857 434.286V433.786H108.571V434.286V434.786H162.857V434.286ZM217.143 380H216.643V434.286H217.143H217.643V380H217.143ZM217.143 434.286V433.786H162.857V434.286V434.786H217.143V434.286ZM271.429 380H270.929V434.286H271.429H271.929V380H271.429ZM271.429 434.286V433.786H217.143V434.286V434.786H271.429V434.286ZM325.714 380H325.214V434.286H325.714H326.214V380H325.714ZM325.714 434.286V433.786H271.429V434.286V434.786H325.714V434.286ZM380 380H379.5V434.286H380H380.5V380H380ZM380 434.286V433.786H325.714V434.286V434.786H380V434.286ZM434.286 380H433.786V434.286H434.286H434.786V380H434.286ZM434.286 434.286V433.786H380V434.286V434.786H434.286V434.286ZM488.571 380H488.071V434.286H488.571H489.071V380H488.571ZM488.571 434.286V433.786H434.286V434.286V434.786H488.571V434.286ZM542.857 380H542.357V434.286H542.857H543.357V380H542.857ZM542.857 434.286V433.786H488.571V434.286V434.786H542.857V434.286ZM597.143 380H596.643V434.286H597.143H597.643V380H597.143ZM597.143 434.286V433.786H542.857V434.286V434.786H597.143V434.286ZM651.429 380H650.929V434.286H651.429H651.929V380H651.429ZM651.429 434.286V433.786H597.143V434.286V434.786H651.429V434.286ZM705.714 380H705.214V434.286H705.714H706.214V380H705.714ZM705.714 434.286V433.786H651.429V434.286V434.786H705.714V434.286ZM760 434.286V433.786H705.714V434.286V434.786H760V434.286ZM54.2857 434.286H53.7857V488.571H54.2857H54.7857V434.286H54.2857ZM54.2857 488.571V488.071H0V488.571V489.071H54.2857V488.571ZM108.571 434.286H108.071V488.571H108.571H109.071V434.286H108.571ZM108.571 488.571V488.071H54.2857V488.571V489.071H108.571V488.571ZM162.857 434.286H162.357V488.571H162.857H163.357V434.286H162.857ZM162.857 488.571V488.071H108.571V488.571V489.071H162.857V488.571ZM217.143 434.286H216.643V488.571H217.143H217.643V434.286H217.143ZM217.143 488.571V488.071H162.857V488.571V489.071H217.143V488.571ZM271.429 434.286H270.929V488.571H271.429H271.929V434.286H271.429ZM271.429 488.571V488.071H217.143V488.571V489.071H271.429V488.571ZM325.714 434.286H325.214V488.571H325.714H326.214V434.286H325.714ZM325.714 488.571V488.071H271.429V488.571V489.071H325.714V488.571ZM380 434.286H379.5V488.571H380H380.5V434.286H380ZM380 488.571V488.071H325.714V488.571V489.071H380V488.571ZM434.286 434.286H433.786V488.571H434.286H434.786V434.286H434.286ZM434.286 488.571V488.071H380V488.571V489.071H434.286V488.571ZM488.571 434.286H488.071V488.571H488.571H489.071V434.286H488.571ZM488.571 488.571V488.071H434.286V488.571V489.071H488.571V488.571ZM542.857 434.286H542.357V488.571H542.857H543.357V434.286H542.857ZM542.857 488.571V488.071H488.571V488.571V489.071H542.857V488.571ZM597.143 434.286H596.643V488.571H597.143H597.643V434.286H597.143ZM597.143 488.571V488.071H542.857V488.571V489.071H597.143V488.571ZM651.429 434.286H650.929V488.571H651.429H651.929V434.286H651.429ZM651.429 488.571V488.071H597.143V488.571V489.071H651.429V488.571ZM705.714 434.286H705.214V488.571H705.714H706.214V434.286H705.714ZM705.714 488.571V488.071H651.429V488.571V489.071H705.714V488.571ZM760 488.571V488.071H705.714V488.571V489.071H760V488.571ZM54.2857 488.571H53.7857V542.857H54.2857H54.7857V488.571H54.2857ZM54.2857 542.857V542.357H0V542.857V543.357H54.2857V542.857ZM108.571 488.571H108.071V542.857H108.571H109.071V488.571H108.571ZM108.571 542.857V542.357H54.2857V542.857V543.357H108.571V542.857ZM162.857 488.571H162.357V542.857H162.857H163.357V488.571H162.857ZM162.857 542.857V542.357H108.571V542.857V543.357H162.857V542.857ZM217.143 488.571H216.643V542.857H217.143H217.643V488.571H217.143ZM217.143 542.857V542.357H162.857V542.857V543.357H217.143V542.857ZM271.429 488.571H270.929V542.857H271.429H271.929V488.571H271.429ZM271.429 542.857V542.357H217.143V542.857V543.357H271.429V542.857ZM325.714 488.571H325.214V542.857H325.714H326.214V488.571H325.714ZM325.714 542.857V542.357H271.429V542.857V543.357H325.714V542.857ZM380 488.571H379.5V542.857H380H380.5V488.571H380ZM380 542.857V542.357H325.714V542.857V543.357H380V542.857ZM434.286 488.571H433.786V542.857H434.286H434.786V488.571H434.286ZM434.286 542.857V542.357H380V542.857V543.357H434.286V542.857ZM488.571 488.571H488.071V542.857H488.571H489.071V488.571H488.571ZM488.571 542.857V542.357H434.286V542.857V543.357H488.571V542.857ZM542.857 488.571H542.357V542.857H542.857H543.357V488.571H542.857ZM542.857 542.857V542.357H488.571V542.857V543.357H542.857V542.857ZM597.143 488.571H596.643V542.857H597.143H597.643V488.571H597.143ZM597.143 542.857V542.357H542.857V542.857V543.357H597.143V542.857ZM651.429 488.571H650.929V542.857H651.429H651.929V488.571H651.429ZM651.429 542.857V542.357H597.143V542.857V543.357H651.429V542.857ZM705.714 488.571H705.214V542.857H705.714H706.214V488.571H705.714ZM705.714 542.857V542.357H651.429V542.857V543.357H705.714V542.857ZM760 542.857V542.357H705.714V542.857V543.357H760V542.857ZM54.2857 542.857H53.7857V597.143H54.2857H54.7857V542.857H54.2857ZM54.2857 597.143V596.643H0V597.143V597.643H54.2857V597.143ZM108.571 542.857H108.071V597.143H108.571H109.071V542.857H108.571ZM108.571 597.143V596.643H54.2857V597.143V597.643H108.571V597.143ZM162.857 542.857H162.357V597.143H162.857H163.357V542.857H162.857ZM162.857 597.143V596.643H108.571V597.143V597.643H162.857V597.143ZM217.143 542.857H216.643V597.143H217.143H217.643V542.857H217.143ZM217.143 597.143V596.643H162.857V597.143V597.643H217.143V597.143ZM271.429 542.857H270.929V597.143H271.429H271.929V542.857H271.429ZM271.429 597.143V596.643H217.143V597.143V597.643H271.429V597.143ZM325.714 542.857H325.214V597.143H325.714H326.214V542.857H325.714ZM325.714 597.143V596.643H271.429V597.143V597.643H325.714V597.143ZM380 542.857H379.5V597.143H380H380.5V542.857H380ZM380 597.143V596.643H325.714V597.143V597.643H380V597.143ZM434.286 542.857H433.786V597.143H434.286H434.786V542.857H434.286ZM434.286 597.143V596.643H380V597.143V597.643H434.286V597.143ZM488.571 542.857H488.071V597.143H488.571H489.071V542.857H488.571ZM488.571 597.143V596.643H434.286V597.143V597.643H488.571V597.143ZM542.857 542.857H542.357V597.143H542.857H543.357V542.857H542.857ZM542.857 597.143V596.643H488.571V597.143V597.643H542.857V597.143ZM597.143 542.857H596.643V597.143H597.143H597.643V542.857H597.143ZM597.143 597.143V596.643H542.857V597.143V597.643H597.143V597.143ZM651.429 542.857H650.929V597.143H651.429H651.929V542.857H651.429ZM651.429 597.143V596.643H597.143V597.143V597.643H651.429V597.143ZM705.714 542.857H705.214V597.143H705.714H706.214V542.857H705.714ZM705.714 597.143V596.643H651.429V597.143V597.643H705.714V597.143ZM760 597.143V596.643H705.714V597.143V597.643H760V597.143ZM54.2857 597.143H53.7857V651.429H54.2857H54.7857V597.143H54.2857ZM54.2857 651.429V650.929H0V651.429V651.929H54.2857V651.429ZM108.571 597.143H108.071V651.429H108.571H109.071V597.143H108.571ZM108.571 651.429V650.929H54.2857V651.429V651.929H108.571V651.429ZM162.857 597.143H162.357V651.429H162.857H163.357V597.143H162.857ZM162.857 651.429V650.929H108.571V651.429V651.929H162.857V651.429ZM217.143 597.143H216.643V651.429H217.143H217.643V597.143H217.143ZM217.143 651.429V650.929H162.857V651.429V651.929H217.143V651.429ZM271.429 597.143H270.929V651.429H271.429H271.929V597.143H271.429ZM271.429 651.429V650.929H217.143V651.429V651.929H271.429V651.429ZM325.714 597.143H325.214V651.429H325.714H326.214V597.143H325.714ZM325.714 651.429V650.929H271.429V651.429V651.929H325.714V651.429ZM380 597.143H379.5V651.429H380H380.5V597.143H380ZM380 651.429V650.929H325.714V651.429V651.929H380V651.429ZM434.286 597.143H433.786V651.429H434.286H434.786V597.143H434.286ZM434.286 651.429V650.929H380V651.429V651.929H434.286V651.429ZM488.571 597.143H488.071V651.429H488.571H489.071V597.143H488.571ZM488.571 651.429V650.929H434.286V651.429V651.929H488.571V651.429ZM542.857 597.143H542.357V651.429H542.857H543.357V597.143H542.857ZM542.857 651.429V650.929H488.571V651.429V651.929H542.857V651.429ZM597.143 597.143H596.643V651.429H597.143H597.643V597.143H597.143ZM597.143 651.429V650.929H542.857V651.429V651.929H597.143V651.429ZM651.429 597.143H650.929V651.429H651.429H651.929V597.143H651.429ZM651.429 651.429V650.929H597.143V651.429V651.929H651.429V651.429ZM705.714 597.143H705.214V651.429H705.714H706.214V597.143H705.714ZM705.714 651.429V650.929H651.429V651.429V651.929H705.714V651.429ZM760 651.429V650.929H705.714V651.429V651.929H760V651.429ZM54.2857 651.429H53.7857V705.714H54.2857H54.7857V651.429H54.2857ZM54.2857 705.714V705.214H0V705.714V706.214H54.2857V705.714ZM108.571 651.429H108.071V705.714H108.571H109.071V651.429H108.571ZM108.571 705.714V705.214H54.2857V705.714V706.214H108.571V705.714ZM162.857 651.429H162.357V705.714H162.857H163.357V651.429H162.857ZM162.857 705.714V705.214H108.571V705.714V706.214H162.857V705.714ZM217.143 651.429H216.643V705.714H217.143H217.643V651.429H217.143ZM217.143 705.714V705.214H162.857V705.714V706.214H217.143V705.714ZM271.429 651.429H270.929V705.714H271.429H271.929V651.429H271.429ZM271.429 705.714V705.214H217.143V705.714V706.214H271.429V705.714ZM325.714 651.429H325.214V705.714H325.714H326.214V651.429H325.714ZM325.714 705.714V705.214H271.429V705.714V706.214H325.714V705.714ZM380 651.429H379.5V705.714H380H380.5V651.429H380ZM380 705.714V705.214H325.714V705.714V706.214H380V705.714ZM434.286 651.429H433.786V705.714H434.286H434.786V651.429H434.286ZM434.286 705.714V705.214H380V705.714V706.214H434.286V705.714ZM488.571 651.429H488.071V705.714H488.571H489.071V651.429H488.571ZM488.571 705.714V705.214H434.286V705.714V706.214H488.571V705.714ZM542.857 651.429H542.357V705.714H542.857H543.357V651.429H542.857ZM542.857 705.714V705.214H488.571V705.714V706.214H542.857V705.714ZM597.143 651.429H596.643V705.714H597.143H597.643V651.429H597.143ZM597.143 705.714V705.214H542.857V705.714V706.214H597.143V705.714ZM651.429 651.429H650.929V705.714H651.429H651.929V651.429H651.429ZM651.429 705.714V705.214H597.143V705.714V706.214H651.429V705.714ZM705.714 651.429H705.214V705.714H705.714H706.214V651.429H705.714ZM705.714 705.714V705.214H651.429V705.714V706.214H705.714V705.714ZM760 705.714V705.214H705.714V705.714V706.214H760V705.714ZM54.2857 705.714H53.7857V760H54.2857H54.7857V705.714H54.2857ZM108.571 705.714H108.071V760H108.571H109.071V705.714H108.571ZM162.857 705.714H162.357V760H162.857H163.357V705.714H162.857ZM217.143 705.714H216.643V760H217.143H217.643V705.714H217.143ZM271.429 705.714H270.929V760H271.429H271.929V705.714H271.429ZM325.714 705.714H325.214V760H325.714H326.214V705.714H325.714ZM380 705.714H379.5V760H380H380.5V705.714H380ZM434.286 705.714H433.786V760H434.286H434.786V705.714H434.286ZM488.571 705.714H488.071V760H488.571H489.071V705.714H488.571ZM542.857 705.714H542.357V760H542.857H543.357V705.714H542.857ZM597.143 705.714H596.643V760H597.143H597.643V705.714H597.143ZM651.429 705.714H650.929V760H651.429H651.929V705.714H651.429ZM705.714 705.714H705.214V760H705.714H706.214V705.714H705.714ZM0 0V-1H-1V0H0ZM760 0H761V-1H760V0ZM0 760H-1V761H0V760ZM760 760V761H761V760H760ZM0 0V1H54.2857V0V-1H0V0ZM0 54.2857H1V0H0H-1V54.2857H0ZM54.2857 0V1H108.571V0V-1H54.2857V0ZM108.571 0V1H162.857V0V-1H108.571V0ZM162.857 0V1H217.143V0V-1H162.857V0ZM217.143 0V1H271.429V0V-1H217.143V0ZM271.429 0V1H325.714V0V-1H271.429V0ZM325.714 0V1H380V0V-1H325.714V0ZM380 0V1H434.286V0V-1H380V0ZM434.286 0V1H488.571V0V-1H434.286V0ZM488.571 0V1H542.857V0V-1H488.571V0ZM542.857 0V1H597.143V0V-1H542.857V0ZM597.143 0V1H651.429V0V-1H597.143V0ZM651.429 0V1H705.714V0V-1H651.429V0ZM705.714 0V1H760V0V-1H705.714V0ZM760 0H759V54.2857H760H761V0H760ZM0 108.571H1V54.2857H0H-1V108.571H0ZM760 54.2857H759V108.571H760H761V54.2857H760ZM0 162.857H1V108.571H0H-1V162.857H0ZM760 108.571H759V162.857H760H761V108.571H760ZM0 217.143H1V162.857H0H-1V217.143H0ZM760 162.857H759V217.143H760H761V162.857H760ZM0 271.429H1V217.143H0H-1V271.429H0ZM760 217.143H759V271.429H760H761V217.143H760ZM0 325.714H1V271.429H0H-1V325.714H0ZM760 271.429H759V325.714H760H761V271.429H760ZM0 380H1V325.714H0H-1V380H0ZM760 325.714H759V380H760H761V325.714H760ZM0 434.286H1V380H0H-1V434.286H0ZM760 380H759V434.286H760H761V380H760ZM0 488.571H1V434.286H0H-1V488.571H0ZM760 434.286H759V488.571H760H761V434.286H760ZM0 542.857H1V488.571H0H-1V542.857H0ZM760 488.571H759V542.857H760H761V488.571H760ZM0 597.143H1V542.857H0H-1V597.143H0ZM760 542.857H759V597.143H760H761V542.857H760ZM0 651.429H1V597.143H0H-1V651.429H0ZM760 597.143H759V651.429H760H761V597.143H760ZM0 705.714H1V651.429H0H-1V705.714H0ZM760 651.429H759V705.714H760H761V651.429H760ZM54.2857 760V759H0V760V761H54.2857V760ZM0 760H1V705.714H0H-1V760H0ZM108.571 760V759H54.2857V760V761H108.571V760ZM162.857 760V759H108.571V760V761H162.857V760ZM217.143 760V759H162.857V760V761H217.143V760ZM271.429 760V759H217.143V760V761H271.429V760ZM325.714 760V759H271.429V760V761H325.714V760ZM380 760V759H325.714V760V761H380V760ZM434.286 760V759H380V760V761H434.286V760ZM488.571 760V759H434.286V760V761H488.571V760ZM542.857 760V759H488.571V760V761H542.857V760ZM597.143 760V759H542.857V760V761H597.143V760ZM651.429 760V759H597.143V760V761H651.429V760ZM705.714 760V759H651.429V760V761H705.714V760ZM760 705.714H759V760H760H761V705.714H760ZM760 760V759H705.714V760V761H760V760Z" fill="#272727" mask="url(#path-1-inside-1_230_9063)"/>
<path d="M380.002 651.429H325.717V597.143H380.002V651.429ZM542.859 542.857H488.575V597.143H434.291V651.429H380.005V597.143H434.289V542.857H488.574V488.571H542.859V542.857ZM217.148 488.571H271.433V542.857H325.714V597.143H271.428V542.857H217.147V488.571H162.862V434.286H217.148V488.571ZM705.714 380H651.433V434.286H597.148V488.571H542.862V434.286H597.147V380H651.428V217.143H597.147V162.857H651.433V217.143H705.714V380ZM162.859 217.143H108.575V380H162.859V434.286H108.574V380H54.2891V217.143H108.574V162.857H162.859V217.143ZM380.002 271.429H325.717V217.143H380.002V271.429ZM597.146 162.857H488.575V217.143H434.291V271.429H380.005V217.143H434.289V162.857H488.574V108.571H597.146V162.857ZM271.434 162.857H325.714V217.143H271.428V162.857H162.862V108.571H271.434V162.857Z" fill="#442CBF"/>
</svg>
