<svg width="385" height="385" viewBox="0 0 385 385" xmlns="http://www.w3.org/2000/svg"><path d="M220 0H165V55H220V0Z"/><path d="M220 55H165V110H220V55Z"/><path d="M165 110H110V165H165V110Z"/><path d="M275 110H220V165H275V110Z"/><path d="M110 165H55V220H110V165Z"/><path d="M55 165H0V220H55V165Z"/><path d="M165 220H110V275H165V220Z"/><path d="M275 220H220V275H275V220Z"/><path d="M330 165H275V220H330V165Z"/><path d="M385 165H330V220H385V165Z"/><path d="M220 275H165V330H220V275Z"/><path d="M220 330H165V385H220V330Z"/></svg>