<svg width="490" height="490" viewBox="0 0 490 490" xmlns="http://www.w3.org/2000/svg"><path d="M217.003 271.251H271.253V325.501H217.003V271.251Z"/><path d="M217.003 162.751H271.253V217.001H217.003V162.751Z"/><path d="M271.24 217.002H325.491V271.252H271.24V217.002Z"/><path d="M162.75 217.002H217.001V271.252H162.75V217.002Z"/><path d="M433.99 217.002H488.241V271.252H433.99V217.002Z"/><path d="M379.757 217.002H434.008V271.252H379.757V217.002Z"/><path d="M54.2488 217.002H108.499V271.252H54.2488V217.002Z"/><path d="M0 217.002H54.2504V271.252H0V217.002Z"/><path d="M108.49 108.501H162.74V162.751H108.49V108.501Z"/><path d="M54.2488 54.25H108.499V108.5H54.2488V54.25Z"/><path d="M379.757 54.25H434.008V108.5H379.757V54.25Z"/><path d="M325.501 108.501H379.751V162.751H325.501V108.501Z"/><path d="M54.2488 379.752H108.499V434.002H54.2488V379.752Z"/><path d="M108.49 325.504H162.74V379.754H108.49V325.504Z"/><path d="M379.757 379.752H434.008V434.002H379.757V379.752Z"/><path d="M325.501 325.504H379.751V379.754H325.501V325.504Z"/><path d="M217.003 434.004H271.253V488.254H217.003V434.004Z"/><path d="M217.003 379.752H271.253V434.002H217.003V379.752Z"/><path d="M217.003 54.25H271.253V108.5H217.003V54.25Z"/><path d="M217.003 0H271.253V54.25H217.003V0Z"/></svg>