<svg width="922" height="651" viewBox="0 0 922 651" xmlns="http://www.w3.org/2000/svg"><path d="M162.703 596.588H216.937V650.823H162.702V596.588H108.468V542.353H162.703V596.588ZM379.646 542.353H325.413V596.588H271.183V650.823H216.947V596.588H271.178V542.353H325.411V488.117H271.178V433.882H379.646V542.353ZM650.828 596.588H705.058V650.823H650.822V596.588H596.593V542.353H650.828V596.588ZM813.525 596.588H759.296V650.823H705.061V596.588H759.29V542.353H813.525V596.588ZM108.465 542.353H54.2305V433.882H108.465V542.353ZM596.582 542.353H542.347V433.882H596.582V542.353ZM867.764 542.353H813.528V433.882H867.764V542.353ZM813.525 488.117H759.29V433.882H813.525V488.117ZM108.465 216.94H54.2354V433.881H0V216.94H54.2305V108.47H108.465V216.94ZM325.413 108.47H379.646V216.94H271.183V433.881H216.947V216.94H271.178V162.705H325.411V108.471H271.178V54.2354H325.413V108.47ZM433.885 433.881H379.649V216.94H433.885V433.881ZM596.582 216.94H542.353V433.881H488.117V216.94H542.347V108.47H596.582V216.94ZM813.525 216.94H759.296V433.881H705.061V216.94H759.29V162.705H813.525V216.94ZM922.001 433.881H867.766V216.94H922.001V433.881ZM379.646 379.646H325.411V271.176H379.646V379.646ZM867.764 379.646H813.528V271.176H867.764V379.646ZM867.764 216.94H813.528V108.47H867.764V216.94ZM162.703 108.471H108.468V54.2354H162.703V108.471ZM650.828 108.471H596.593V54.2354H650.828V108.471ZM813.525 108.471H759.29V54.2354H813.525V108.471ZM216.937 54.2344H162.702V0H216.937V54.2344ZM271.183 54.2344H216.947V0H271.183V54.2344ZM705.058 54.2344H650.822V0H705.058V54.2344ZM759.296 54.2344H705.061V0H759.296V54.2344Z"/></svg>