<svg width="490" height="490" viewBox="0 0 490 490" xmlns="http://www.w3.org/2000/svg"><path d="M163.333 108.889H217.778V163.333H163.333V108.889Z"/><path d="M163.333 326.667H217.778V381.111H163.333V326.667Z"/><path d="M108.889 163.333H163.333V217.778H108.889V163.333Z"/><path d="M108.889 272.222H163.333V326.667H108.889V272.222Z"/><path d="M272.222 108.889H326.667V163.333H272.222V108.889Z"/><path d="M272.222 326.667H326.667V381.111H272.222V326.667Z"/><path d="M326.667 163.333H381.111V217.778H326.667V163.333Z"/><path d="M326.667 272.222H381.111V326.667H326.667V272.222Z"/><path d="M217.778 54.4444H272.222V108.889H217.778V54.4444Z"/><path d="M217.778 435.556H272.222V490H217.778V435.556Z"/><path d="M54.4444 217.778H108.889V272.222H54.4444V217.778Z"/><path d="M435.556 217.778H490V272.222H435.556V217.778Z"/><path d="M0 217.778H54.4444V272.222H0V217.778Z"/><path d="M381.111 217.778H435.556V272.222H381.111V217.778Z"/><path d="M217.778 0H272.222V54.4444H217.778V0Z"/><path d="M217.778 381.111H272.222V435.556H217.778V381.111Z"/></svg>