<svg xmlns="http://www.w3.org/2000/svg" width="338" height="126" viewBox="-72.87715911865234 -18.210750579833984 338 126"><path fill-rule="evenodd" clip-rule="evenodd" d="M140.699 44.8423C140.699 36.8762 135.318 31.2314 127.457 31.2314C119.544 31.2314 114.163 36.8234 114.163 44.8423C114.163 52.6501 119.544 58.3476 127.457 58.3476C135.265 58.3476 140.699 52.6501 140.699 44.8423ZM127.457 66.9468C114.954 66.9468 104.931 57.5563 104.931 44.8423C104.931 32.181 115.007 22.6323 127.457 22.6323C139.855 22.6323 149.931 32.181 149.931 44.8423C149.931 57.5563 139.855 66.9468 127.457 66.9468ZM154.362 24.3732C154.362 23.6874 154.732 23.2653 155.47 23.2653H162.434C163.12 23.2653 163.542 23.6346 163.542 24.3732V41.0966L179.105 23.8984C179.527 23.4236 179.949 23.2653 180.582 23.2653H190.605C191.291 23.2653 191.344 23.9511 190.922 24.4259L171.402 44.1564L191.977 65.2586C192.399 65.7334 192.346 66.4192 191.66 66.4192H181.742C180.898 66.4192 180.687 66.2082 180.212 65.8389L163.542 47.5855V65.3113C163.542 65.9972 163.172 66.4192 162.434 66.4192H155.47C154.784 66.4192 154.362 66.0499 154.362 65.3113V24.3732Z"/> <path d="M44.7895 21.5241C46.7941 21.5241 48.5882 22.3155 49.8543 23.6343C51.1731 24.9532 51.9645 26.7472 51.9645 28.6991C51.9645 30.7036 51.173 32.4974 49.8543 33.7634C48.5355 35.0823 46.7414 35.8736 44.7895 35.8736C42.7849 35.8736 40.9913 35.0822 39.7252 33.7634C38.4064 32.4446 37.615 30.651 37.615 28.6991C37.615 26.7472 38.4591 24.9532 39.7252 23.6343C41.044 22.3156 42.8377 21.5241 44.7895 21.5241Z"/> <path fill-rule="evenodd" clip-rule="evenodd" d="M46.5829 0C66.8409 0 77.023 0.000213146 83.3009 6.27809C89.5786 12.556 89.5785 22.7377 89.5785 42.9956V46.5829C89.5785 66.8409 89.5788 77.023 83.3009 83.3009C77.023 89.5788 66.8409 89.5785 46.5829 89.5785H42.9956C22.7378 89.5785 12.556 89.5786 6.27809 83.3009C0.000232697 77.023 0 66.8937 0 46.5829V42.9956C0 22.7376 0.000287056 12.556 6.27809 6.27809C12.6087 0.000223637 22.7376 0 42.9956 0H46.5829ZM61.4605 44.6308C61.1968 44.2616 60.6689 44.2089 60.3523 44.5252C55.9737 48.2708 50.5925 50.6976 44.7895 50.6977C38.9865 50.6977 33.6053 48.2708 29.2267 44.5252C28.9102 44.2617 28.3828 44.3145 28.119 44.6308L23.4767 50.9615C23.2656 51.278 23.318 51.7003 23.5817 51.964C27.4856 55.1293 32.0227 57.2924 36.7706 58.4003L26.9583 75.7039C26.6946 76.1787 27.0639 76.8116 27.5915 76.8116H37.193C37.5094 76.8115 37.7733 76.6534 37.8788 76.3371L44.737 61.0381L51.5952 76.3371C51.7007 76.6008 51.9645 76.8116 52.2809 76.8116H61.8825C62.4625 76.8114 62.7791 76.2313 62.5156 75.7039L52.7028 58.4003C57.4507 57.2924 61.9878 55.182 65.8917 51.964C66.3135 51.7003 66.3665 51.278 66.1029 50.9615L61.4605 44.6308ZM44.7895 12.9251C40.4109 12.9251 36.454 14.7187 33.6053 17.5674C30.7565 20.4162 28.9629 24.373 28.9629 28.7517C28.9629 33.1303 30.7565 37.0871 33.6053 39.9359C36.454 42.7846 40.4636 44.5783 44.7895 44.5783C49.1681 44.5782 53.125 42.7846 55.9737 39.9359C58.8225 37.0871 60.6161 33.1303 60.6161 28.7517C60.6161 24.373 58.8225 20.4162 55.9737 17.5674C53.125 14.7187 49.1681 12.9251 44.7895 12.9251Z"/></svg>