<svg xmlns="http://www.w3.org/2000/svg" width="338" height="126" viewBox="-0.2944951057434082 -35.85498620616272 338 126"><path fill-rule="evenodd" clip-rule="evenodd" d="M8.26192 16.815C8.72523 15.83 10.5868 14.8784 12.0393 14.4401C12.753 14.2272 16.3634 13.2589 16.9353 13.6345C15.1196 14.9201 14.5019 14.6196 12.8699 16.6189C11.4633 18.3427 9.98992 18.1716 8.26192 16.815ZM130.423 7.31109C120.644 6.97301 110.902 6.66831 101.081 7.31109C97.0448 7.57405 92.4076 10.5876 90.7923 14.5945L83.7635 32.0247C93.5429 32.3628 103.326 32.6675 113.106 32.0247C117.142 31.7576 121.779 28.7482 123.395 24.7413L124.133 22.9131H113.169C112.029 24.7621 110.585 26.0936 109.099 26.2397C104.145 26.7322 98.8729 26.511 93.9185 26.2522C94.8994 23.8063 95.8677 21.3521 96.8695 18.9145C98.0799 15.9677 100.037 13.5302 102.083 13.3257C107.037 12.8332 112.309 13.0544 117.263 13.3131C116.867 14.3065 116.47 15.3041 116.069 16.2975H126.8L130.423 7.31109ZM337.411 7.12744C327.631 6.78936 317.61 6.48466 307.789 7.12744C303.753 7.3904 299.115 10.5876 297.5 14.5945L290.471 32.0247H298.318L301.161 25.1712H310.886L317.234 31.5322H329.844L322.873 24.5451C328.362 24.4616 331.254 22.4039 333.22 17.5288L337.411 7.12744ZM303.703 18.9562C308.657 19.215 313.929 19.4362 318.883 18.9437C320.494 18.7851 321.992 17.4077 323.115 15.3625L324.163 12.8165C319.209 12.5577 313.937 12.3365 308.982 12.829C307.371 12.9876 305.894 14.4109 304.771 16.4561L303.703 18.9562ZM253.958 32.0247H243.732L266.726 9.4356C268.871 7.25683 270.466 6.28849 274.59 6.28849H286.214L287.249 32.0289H275.625L275.445 27.5503H258.487L253.958 32.0289V32.0247ZM275.212 21.6609L274.961 12.541C274.932 11.8189 274.03 12.182 273.726 12.4784L264.439 21.6609H275.212ZM252.681 6.71423C242.901 6.37614 232.642 6.12153 222.825 6.76431C218.793 7.02727 213.939 10.5793 212.353 14.5945L205.691 31.4779C215.471 31.816 225.254 32.1207 235.034 31.4779C239.066 31.215 243.173 28.6439 244.976 24.7162L248.745 16.5062H226.193L224.123 21.6609H235.722C234.537 23.7771 232.968 25.3507 231.344 25.5134C226.39 26.006 221.118 25.7847 216.163 25.526C217.144 23.0801 218.113 20.6258 219.114 18.1883C220.325 15.2415 222.282 12.8039 224.328 12.5994C229.144 12.1194 234.257 12.3156 239.086 12.566L250.143 13.0293L252.685 6.7184L252.681 6.71423ZM211.91 7.31109C208.083 7.17753 204.164 7.15248 200.228 7.16501L199.418 9.18517H199.405L194.735 20.655C193.533 23.6018 191.567 26.0393 189.522 26.2439C184.567 26.7364 179.295 26.5152 174.341 26.2564L181.929 7.31109C178.331 7.31109 175.756 7.03144 173.477 10.1619C172.475 11.5392 171.72 13.238 171.173 14.5945L164.144 32.0247C173.924 32.3628 184.809 32.6675 194.589 32.0247C198.625 31.7618 203.262 28.7482 204.877 24.7413L211.906 7.31109H211.91ZM169.862 7.31109C160.083 6.97301 150.341 6.66831 140.52 7.31109C136.484 7.57405 131.847 10.5876 130.231 14.5945L123.203 32.0247C132.982 32.3628 142.766 32.6675 152.545 32.0247C156.581 31.7576 161.218 28.7482 162.834 24.7413L169.862 7.31109ZM133.487 26.2564C138.441 26.5152 143.713 26.7364 148.667 26.2439C150.713 26.0393 152.67 23.5976 153.881 20.655C154.882 18.2175 155.851 15.7632 156.832 13.3173C151.877 13.0585 146.606 12.8373 141.651 13.3298C139.606 13.5344 137.648 15.9761 136.438 18.9187C135.436 21.3562 134.468 23.8105 133.487 26.2564ZM65.3148 7.79526C65.6947 7.26935 68.0571 5.77093 68.6373 5.37023C70.8536 3.85928 73.6209 2.50694 76.0793 1.53443C76.6595 1.30486 79.8233 0.399127 80.224 0.00260694C67.0888 -0.135132 54.158 5.1991 43.9153 12.7079L41.4736 14.7531C36.5776 18.6599 29.5696 27.5753 34.1234 33.8612C36.6068 37.288 39.6162 37.7555 41.148 38.6528C41.0353 39.2121 39.8249 39.905 39.3825 40.2389C38.748 40.7189 38.0468 41.1614 37.3706 41.6205C29.5905 46.8587 13.7673 52.3808 4.04212 53.9585C3.31586 54.0754 3.16143 53.9335 2.69813 54.2674C20.6166 54.5888 36.707 51.4876 50.8106 44.8803C55.3184 42.7683 61.7128 39.1871 65.6529 35.8104C65.9535 35.5516 66.3416 35.3137 66.6547 35.0424C69.7726 32.3252 71.6466 30.3259 74.0049 27.1663C77.6821 22.2369 80.1572 14.0352 73.7461 10.1285C71.4755 8.74274 68.4035 7.99978 65.3107 7.79526H65.3148ZM27.4618 6.37197C27.2239 5.15319 30.4712 -1.04087 26.9777 1.23808C24.5484 2.82416 22.762 4.3518 20.5457 6.22171C20.0699 6.6224 19.6984 7.08153 19.377 7.357C18.9596 7.71596 18.4629 8.06239 18.0873 8.38378C17.7367 8.68848 17.3401 9.21021 16.9812 9.43978C14.2932 11.1719 7.41463 12.8999 5.51133 16.1806C4.91864 17.199 4.47203 18.1674 3.78334 19.0773C2.13883 21.2477 -0.603421 22.6084 0.118662 24.1987L2.06787 26.7489C3.90438 28.7023 3.09047 27.6713 4.55134 28.7524C5.5322 29.4786 6.33359 29.9127 7.96975 29.7833C7.81532 29.0779 7.03063 28.5312 6.90958 27.7632C8.37045 26.319 12.4442 22.1994 14.5812 22.5333C17.2817 22.9548 19.0431 28.3141 19.1224 31.0188C19.1892 33.2644 19.2977 33.1099 17.9412 34.1826C14.1471 37.1962 15.4035 35.1677 13.233 34.6626C13.2372 36.1652 13.6629 36.6953 14.1889 37.8598C15.729 41.2699 16.2341 41.0904 18.4045 39.6796C19.2893 39.1036 20.0406 38.5944 20.7502 38.0894C22.4072 36.9082 24.3064 35.8146 26.4601 35.7729C31.2684 35.6769 32.2242 36.6243 33.3345 36.7078C32.17 35.5099 30.9429 34.2536 30.3168 32.3336C29.002 28.2849 30.7383 24.2112 32.8503 20.9722L36.0433 16.8317C36.4733 16.3601 37.4458 15.4919 37.9675 14.9535C38.8899 14.0018 39.8917 12.9125 40.8266 12.2446C41.219 11.965 41.4235 11.6979 41.7616 11.414C43.1598 10.2203 46.8203 7.79109 48.3229 6.83527L53.0686 4.31006C50.9901 4.10554 48.3814 4.43528 46.3069 4.53545C44.195 4.6398 41.8534 4.66484 39.7873 4.9445L27.466 6.37614L27.4618 6.37197Z"/></svg>