<svg xmlns="http://www.w3.org/2000/svg" width="338" height="126" viewBox="-10.371505737304688 -37.212249755859375 338 126"><path d="M242.186 40.8477C247.959 40.8477 252.562 39.9189 257.053 37.8883V29.4902C257.053 29.325 256.88 29.2228 256.729 29.3014C252.08 31.7334 247.825 32.7882 242.186 32.7882C235.362 32.7882 231.867 29.5376 231.867 23.2726C231.867 17.0076 235.371 13.757 242.186 13.757C247.832 13.757 252.08 14.8116 256.729 17.2437C256.88 17.3224 257.053 17.2201 257.053 17.0548V8.65694C252.562 6.62632 247.959 5.69758 242.186 5.69758C229.826 5.69758 222.718 12.0807 222.718 23.2806C222.718 34.4803 229.826 40.8634 242.186 40.8634V40.8477Z"/> <path d="M218.572 23.8386C218.572 11.2456 210.822 5.73617 199.68 5.73617C187.558 5.73617 180.212 12.3475 180.212 23.146C180.212 36.4394 188.492 40.8469 200.504 40.8469C207.794 40.8469 213.567 39.6822 217.527 38.1237V30.0721C217.527 29.9069 217.354 29.8045 217.212 29.8754C214.341 31.3 207.809 33.0158 200.621 33.0158C194.311 33.0158 190.334 30.9773 189.448 25.9952H218.098C218.279 25.9952 218.43 25.8613 218.461 25.6882C218.548 25.0822 218.588 24.4446 218.588 23.8465L218.572 23.8386ZM199.68 13.2762C205.326 13.2762 208.443 15.7948 209.598 19.4862H189.606C190.586 15.5037 193.631 13.2762 199.673 13.2762"/> <path d="M159.504 5.67428C153.415 5.67428 149.264 8.04328 146.678 11.5536C146.615 11.6402 146.473 11.6008 146.473 11.4906L146.33 6.60306H137.648V51.5755H146.567V35.1259C146.567 35.0157 146.702 34.9686 146.773 35.0629C149.359 38.5181 153.487 40.8479 159.512 40.8479C169.832 40.8479 176.245 33.481 176.245 23.2649C176.245 13.049 169.832 5.68206 159.512 5.68206M156.832 32.7797C150.822 32.7797 146.567 29.0097 146.567 23.2641C146.567 17.5188 150.822 13.7487 156.832 13.7487C163.3 13.7487 166.859 17.4007 166.859 23.2641C166.859 29.1278 163.3 32.7797 156.832 32.7797Z"/> <path d="M109.244 39.9745H118.163V14.6783H133.085V6.61094H94.3147V14.6783H109.244L109.244 39.9745Z"/> <path d="M62.0036 25.0985V6.60302H53.0284V40.5087C53.0284 40.9887 53.574 41.2643 53.9616 40.981L80.8953 21.4466V39.9734H89.8705V6.06773C89.8705 5.58763 89.3249 5.31216 88.9375 5.5955L62.0038 25.0912L62.0036 25.0985Z"/> <path d="M4.31765 40.3761C1.82671 40.3761 0 40.266 0 40.266V32.2459H1.44709C3.13144 32.2459 4.40461 31.8445 5.24272 31.0416C6.08884 30.2388 6.71354 28.9323 7.11677 27.1142C7.52006 25.3039 7.83637 22.5807 8.0657 18.9523C8.21595 16.3945 8.3741 12.2939 8.52434 6.64281C8.56388 4.88766 8.61924 2.66814 8.69831 0H44.6781V39.9751H34.7777V7.67377H17.958C17.9185 8.20899 17.8236 10.3263 17.6734 14.0333C17.5943 16.6305 17.5231 18.2756 17.4441 18.9603C17.0961 24.5012 16.5584 28.7356 15.8309 31.6714C15.1034 34.6149 13.8541 36.7951 12.0905 38.2274C10.3271 39.6599 7.73347 40.3761 4.32522 40.3761H4.31765Z"/> <path d="M277.166 6.57907C276.913 6.57907 276.842 6.73649 277.024 6.90964C278.004 7.89347 278.621 9.24714 278.621 10.7427C278.621 12.2382 278.013 13.5919 277.031 14.5678C276.842 14.7567 276.906 14.9062 277.262 14.9062H298.336C299.53 13.9145 300.296 12.4112 300.296 10.7348C300.296 9.05839 299.53 7.56287 298.336 6.5634H277.175L277.166 6.57907Z"/> <path d="M277.166 19.1102C276.913 19.1102 276.842 19.2675 277.024 19.4407C278.004 20.4245 278.621 21.7783 278.621 23.2737C278.621 24.769 278.013 26.1229 277.031 27.0988C276.842 27.2878 276.906 27.4372 277.262 27.4372H290.119C291.312 26.4456 292.081 24.9422 292.081 23.2658C292.081 21.5893 291.312 20.094 290.119 19.0944H277.175L277.166 19.1102Z"/> <path d="M277.166 31.6395C276.897 31.6395 276.832 31.7891 277.031 31.9781C278.011 32.9619 278.621 34.3076 278.621 35.8109C278.621 37.3143 278.011 38.6601 277.031 39.6362C276.842 39.825 276.904 39.9745 277.26 39.9745H281.909C283.104 38.9828 283.871 37.4796 283.871 35.8032C283.871 34.1267 283.104 32.6312 281.909 31.6318H277.173L277.166 31.6395Z"/> <path d="M315.295 6.57963H309.642C310.836 7.57919 311.602 9.0667 311.602 10.751C311.602 12.4353 310.836 13.9229 309.642 14.9224H315.295C316.489 13.9307 317.257 12.4353 317.257 10.751C317.257 9.0667 316.489 7.5791 315.295 6.57963Z"/> <path d="M309.642 6.57963H303.985C305.181 7.57919 305.947 9.0667 305.947 10.751C305.947 12.4353 305.181 13.9229 303.985 14.9224H309.642C310.836 13.9307 311.602 12.4353 311.602 10.751C311.602 9.0667 310.836 7.57919 309.642 6.57963Z"/> <path d="M315.295 19.1084H301.427C302.62 20.108 303.387 21.5954 303.387 23.2798C303.387 24.9641 302.62 26.4517 301.427 27.4512H315.295C316.491 26.4596 317.257 24.9641 317.257 23.2798C317.257 21.5954 316.491 20.108 315.295 19.1084Z"/> <path d="M301.425 19.1084H295.77C296.964 20.108 297.732 21.5954 297.732 23.2798C297.732 24.9641 296.964 26.4517 295.77 27.4512H301.425C302.619 26.4596 303.385 24.9641 303.385 23.2798C303.385 21.5954 302.619 20.108 301.425 19.1084Z"/> <path d="M303.985 6.57963H298.332C299.526 7.57919 300.294 9.0667 300.294 10.751C300.294 12.4353 299.526 13.9229 298.332 14.9224H303.985C305.181 13.9307 305.947 12.4353 305.947 10.751C305.947 9.0667 305.181 7.57919 303.985 6.57963Z"/> <path d="M295.77 19.1084H290.117C291.311 20.108 292.079 21.5954 292.079 23.2798C292.079 24.9641 291.311 26.4517 290.117 27.4512H295.77C296.965 26.4596 297.732 24.9641 297.732 23.2798C297.732 21.5954 296.964 20.108 295.77 19.1084Z"/> <path d="M315.295 31.6395H293.219C294.412 32.639 295.179 34.1266 295.179 35.8109C295.179 37.4952 294.412 38.9826 293.219 39.9823H315.295C316.491 38.9905 317.257 37.4952 317.257 35.8109C317.257 34.1266 316.491 32.639 315.295 31.6395Z"/> <path d="M293.21 31.6395H287.555C288.748 32.639 289.516 34.1266 289.516 35.8109C289.516 37.4952 288.748 38.9826 287.555 39.9823H293.21C294.403 38.9905 295.17 37.4952 295.17 35.8109C295.17 34.1266 294.403 32.639 293.21 31.6395Z"/> <path d="M287.555 31.6395H281.902C283.095 32.639 283.863 34.1266 283.863 35.8109C283.863 37.4952 283.095 38.9826 281.902 39.9823H287.555C288.75 38.9905 289.516 37.4952 289.516 35.8109C289.516 34.1266 288.748 32.639 287.555 31.6395Z"/></svg>