<svg xmlns="http://www.w3.org/2000/svg" width="338" height="126" viewBox="-45.63249957561493 -35.854999540548306 338 126"><path fill-rule="evenodd" clip-rule="evenodd" d="M61.9549 42.4332C61.8498 43.4961 61.5255 44.4854 60.7464 45.218C60.0033 45.9596 58.8263 46.368 57.7769 46.35H42.5259C41.4179 46.362 40.1884 45.9116 39.4243 45.1099C38.6076 44.3158 38.3224 43.2184 38.3479 42.0789V26.7918C38.3254 25.6494 38.6091 24.5475 39.4243 23.7458C40.1884 22.9442 41.4194 22.4998 42.5259 22.5223H57.7769C58.8878 22.5028 60.1189 22.9457 60.889 23.7458C61.7072 24.5445 61.9879 25.6509 61.9474 26.7933V42.4332H61.9549ZM71.3256 45.1054C70.5461 44.379 70.06 43.3919 69.9595 42.3311V26.2904C69.9616 24.7203 69.6396 23.1666 69.0137 21.7266C68.4167 20.3245 67.5582 19.0487 66.4841 17.9675C65.4258 16.9006 64.1719 16.0474 62.7911 15.4545C61.3709 14.8232 59.834 14.4969 58.2798 14.4967H42.0274C40.4738 14.4971 38.9374 14.8234 37.5177 15.4545C36.137 16.0502 34.8822 16.903 33.8202 17.9675C32.7518 19.0479 31.8953 20.3188 31.2951 21.7146C30.6707 23.1549 30.3503 24.7086 30.3538 26.2784V42.5818C30.3421 44.1336 30.6647 45.6696 31.2996 47.0856C32.5018 49.8781 34.7257 52.1058 37.5162 53.3127C38.9424 53.9267 40.4752 54.242 42.0259 54.2435H58.2798C61.1634 54.2493 63.9487 53.1964 66.1073 51.2845C67.1602 52.2407 68.3639 53.0162 69.6697 53.5799C71.0779 54.1774 72.5911 54.2765 74.1194 54.2675H75.8548V46.344H74.1344C73.0769 46.2889 72.0764 45.8477 71.3226 45.1039L71.3256 45.1054ZM232.835 42.4332C232.728 43.4961 232.405 44.4854 231.626 45.218C230.883 45.9596 229.706 46.368 228.657 46.35H213.406C212.298 46.362 211.07 45.9116 210.304 45.1099C209.488 44.3158 209.202 43.2184 209.228 42.0789V26.7918C209.205 25.6494 209.491 24.5475 210.304 23.7458C211.068 22.9442 212.299 22.4998 213.406 22.5223H228.657C229.766 22.5028 230.999 22.9457 231.769 23.7458C232.587 24.5445 232.868 25.6509 232.829 26.7933V42.4332H232.835ZM242.206 45.1054C241.427 44.3788 240.941 43.3917 240.841 42.3311V26.2904C240.843 24.7202 240.52 23.1665 239.894 21.7266C239.297 20.3245 238.438 19.0487 237.364 17.9675C236.303 16.9035 235.05 16.0507 233.671 15.4545C232.251 14.8234 230.715 14.4971 229.161 14.4967H212.907C211.354 14.4971 209.817 14.8234 208.398 15.4545C207.017 16.0502 205.762 16.903 204.7 17.9675C203.632 19.048 202.776 20.3189 202.177 21.7146C201.552 23.1548 201.231 24.7085 201.234 26.2784V42.5818C201.223 44.1337 201.546 45.6697 202.181 47.0856C203.382 49.879 205.606 52.1071 208.398 53.3127C209.822 53.926 211.355 54.2427 212.906 54.2435H229.16C232.043 54.2493 234.829 53.1964 236.987 51.2845C238.042 52.2385 239.245 53.0138 240.55 53.5799C241.956 54.1774 243.471 54.2765 244.999 54.2675H246.735V46.344H245.014C243.957 46.2889 242.956 45.8477 242.203 45.1039L242.206 45.1054ZM11.3707 2.17302C9.84905 2.23009 8.35371 2.58721 6.97053 3.22389C5.63248 3.84338 4.41193 4.6901 3.36306 5.72645C2.31089 6.79348 1.47622 8.0549 0.905529 9.44051C0.29748 10.8636 -0.010682 12.3967 0.000282644 13.9442V54.2675H8.00188V29.9174H24.7527V22.0074H8.00188V13.9457C8.00188 11.7359 9.75833 10.1671 11.8541 10.1671H24.7212V2.17302H11.3707ZM153.635 0.000727095C152.947 -0.0110733 152.263 0.120878 151.628 0.388155C150.993 0.655432 150.421 1.05216 149.948 1.55301C149.452 2.02814 149.059 2.60019 148.793 3.23367C148.527 3.86715 148.394 4.54854 148.402 5.23554C148.387 6.61518 148.949 7.93777 149.954 8.88506C150.441 9.35963 151.017 9.73254 151.65 9.98204C152.282 10.2315 152.957 10.3526 153.637 10.3383C154.31 10.3488 154.979 10.2233 155.602 9.9692C156.226 9.7151 156.791 9.33766 157.265 8.85953C157.752 8.38632 158.137 7.81926 158.398 7.19271C158.659 6.56617 158.79 5.89318 158.783 5.21453C158.79 4.5315 158.66 3.85402 158.4 3.22224C158.141 2.59045 157.757 2.01722 157.271 1.53649C156.807 1.04014 156.243 0.647048 155.617 0.382728C154.99 0.118407 154.315 -0.0112312 153.635 0.00222833"/> <path d="M157.59 14.4997H149.597V54.2705H157.59V14.4997ZM174.803 2.17302H166.81V54.2705H174.803V2.17302Z"/> <path fill-rule="evenodd" clip-rule="evenodd" d="M119.32 14.5027C116.337 14.4652 113.417 15.6496 111.229 17.7003C109.047 15.6707 106.124 14.4426 103.173 14.5027H94.4522C91.3611 14.5027 88.5703 15.7022 86.4656 17.6598C84.3473 15.8178 81.5746 14.6348 78.6697 14.5027H77.3441V22.5643H78.5376C80.7639 22.6934 82.5203 24.5039 82.5203 26.7213L82.5173 54.29H90.7111V26.6402C90.7111 24.3853 92.367 22.5628 94.6218 22.5628L103.008 22.5568C105.03 22.5628 106.951 24.1196 106.983 26.1643V54.2735H115.521V26.1973C115.515 23.8554 117.247 22.5959 119.49 22.5298H127.831C130.098 22.5628 131.753 24.3853 131.806 26.6207V54.2735H139.875V26.3144C139.633 19.8216 134.51 14.4652 127.999 14.5027H119.32ZM188.041 0.000727095C187.352 -0.0110733 186.669 0.120878 186.034 0.388155C185.399 0.655432 184.827 1.05216 184.354 1.55301C183.858 2.02827 183.465 2.60038 183.199 3.23385C182.933 3.86733 182.801 4.54865 182.809 5.23554C182.8 5.91813 182.934 6.59504 183.201 7.2233C183.468 7.85157 183.862 8.41746 184.36 8.88506C184.846 9.36031 185.422 9.73367 186.054 9.98322C186.687 10.2328 187.363 10.3535 188.042 10.3383C188.716 10.3488 189.384 10.2233 190.008 9.9692C190.631 9.7151 191.197 9.33766 191.671 8.85953C192.157 8.38632 192.543 7.81926 192.804 7.19271C193.064 6.56617 193.195 5.89318 193.189 5.21453C193.195 4.53139 193.065 3.85385 192.805 3.22206C192.545 2.59027 192.161 2.01709 191.675 1.53649C191.211 1.04033 190.647 0.64735 190.021 0.383036C189.395 0.118722 188.72 -0.0110195 188.041 0.00222833"/> <path d="M191.995 14.4997H184.003V54.2705H191.995V14.4997Z"/></svg>