<svg xmlns="http://www.w3.org/2000/svg" width="338" height="126" viewBox="-48.072998046875 -22.282501220703125 338 126"><path d="M46.1853 29.0848C48.9773 28.9685 52.0021 28.7358 54.5615 28.8522C58.0515 29.0848 60.1456 29.5502 61.7743 32.3422C62.2396 33.2729 63.5193 33.2729 63.5193 32.2259C63.5193 25.5948 59.5639 20.7087 54.7941 20.7087C51.4204 20.7087 49.7917 21.174 48.3957 22.6864C47.116 24.0824 46.3016 25.9438 45.4873 28.3868C45.4873 28.7358 45.6036 29.0848 46.1853 29.0848Z"/> <path d="M21.8711 68.6371C26.1755 63.053 27.2226 58.3996 27.2226 53.6298C27.2226 40.6002 20.2424 31.7587 20.2424 23.3826C20.2424 14.7737 27.3389 13.145 30.0146 12.796C29.8983 12.3307 29.6656 11.6326 29.3166 11.051C28.9676 10.5856 28.2696 10.2366 27.8042 10.4693C27.3389 10.5856 27.2226 11.051 27.2226 11.5163C27.2226 11.8653 27.4552 12.098 27.6879 12.447C27.5716 12.447 27.4552 12.447 27.2226 12.5633C26.9899 12.3307 26.8736 12.098 26.5245 11.8653C25.3612 10.702 23.9652 10.9346 23.3835 11.2836C22.9181 11.6326 23.0345 12.2143 23.2671 12.5633C23.3835 12.796 23.7325 13.145 23.9652 13.3777C23.8488 13.3777 23.7325 13.494 23.7325 13.494C22.9181 13.145 21.7548 12.796 20.3588 12.796C19.4281 12.796 18.381 13.0287 18.032 13.7267C17.683 14.3084 17.9157 15.1227 18.9627 15.7044C19.3117 15.8207 19.5444 15.9371 19.7771 16.0534C19.6607 16.1697 19.6607 16.1697 19.5444 16.2861C15.7053 15.9371 12.7969 17.2168 12.9133 18.7291C13.0296 20.0088 15.0073 20.1252 16.7523 19.8925C16.7523 20.0088 16.636 20.1252 16.636 20.2415C14.7746 21.0558 11.6336 23.2662 11.9826 25.1276C12.2153 26.0583 13.9603 26.7563 16.636 23.9642L16.8687 24.1969C16.0543 28.5013 18.4974 35.2488 18.4974 42.8106C18.4974 48.8601 15.4727 52.1175 10.0049 52.1175C6.86381 52.1175 2.79206 51.1868 1.10946e-06 50.6051V59.912C2.21038 59.7956 4.76977 59.7956 6.04946 59.912L5.70045 61.4243C5.70045 61.4243 2.90839 62.006 1.10946e-06 62.4714V71.8946C1.10946e-06 76.0826 2.09404 79.1074 5.11877 80.6197C13.2623 77.0133 18.4974 72.9416 21.8711 68.6371Z"/> <path d="M36.2967 0H9.7722C4.42076 0 0 3.95542 0 10.1212V46.5343C2.67572 47.3486 6.63114 48.2793 9.42319 48.2793C12.9133 48.2793 15.4727 46.9996 15.4727 41.4155C15.4727 37.3438 13.9603 31.527 13.7276 27.9206C9.42319 28.9676 6.98014 23.9652 12.2153 20.9404C8.1435 20.3587 9.30686 15.1236 15.24 14.891C13.844 11.7499 16.985 10.3539 19.4281 11.1682C19.5444 8.84151 22.9181 8.1435 25.0122 9.42319C27.3389 7.56182 31.178 7.91083 32.8067 11.7499C36.6458 12.6806 39.4378 19.4281 42.8115 19.4281C47.5813 19.4281 49.4427 18.381 54.4451 18.381C60.4946 18.381 66.3114 22.8018 66.3114 31.9923C66.3114 36.1804 64.9153 37.3438 62.705 37.3438C61.5416 37.3438 60.4946 36.8784 59.9129 35.9477C59.3312 35.0171 59.2149 33.5047 56.1902 32.923C54.7941 32.8067 52.1184 32.6903 48.9773 32.923C50.1407 34.319 50.955 38.3908 50.955 40.9502C50.955 42.2299 50.3734 42.5789 49.7917 42.5789C48.3957 42.5789 46.3016 39.4378 42.8115 37.9254C39.3215 36.2967 34.9007 35.7151 32.574 35.7151C29.3166 35.7151 28.6186 37.9254 29.2003 40.8338C29.5493 43.0442 30.48 46.767 30.7126 51.0714C34.7844 52.2347 38.6235 52.8164 42.3462 52.8164C48.512 52.8164 55.0268 50.955 61.6579 46.8833C62.4723 46.418 62.8213 46.418 63.054 46.9996C63.752 49.21 63.2866 52.5837 61.1926 55.2595C61.0763 58.2842 58.7495 62.4723 55.3758 64.45C51.7694 70.4994 45.4873 73.8732 38.0418 73.8732C34.0864 73.8732 29.6656 73.0588 25.1285 70.9648C22.8018 74.2222 19.4281 77.5959 12.6806 81.435H36.2967C60.0292 81.435 78.1776 64.9153 78.1776 40.4848C78.2939 16.287 60.0292 0 36.2967 0Z"/> <path d="M50.8387 64.3336C48.861 64.9153 45.7199 65.6133 42.3462 65.497C42.5789 65.148 42.6952 64.799 42.8115 64.45C48.6283 64.2173 55.0268 62.2396 56.3065 57.4698C54.0961 58.9822 49.0937 60.7272 43.8586 60.9599C43.9749 60.6109 43.9749 60.2619 43.9749 59.9129C50.955 59.0985 58.1679 56.0738 60.0292 51.1877C56.8882 53.2818 51.1877 56.0738 43.6259 56.5392C39.3215 56.8882 34.2027 56.3065 30.3636 55.2595C30.131 59.3312 29.3166 63.752 26.8736 67.9401C30.131 69.4524 33.8537 70.0341 36.8784 70.0341C43.1606 70.2668 49.0937 67.591 50.8387 64.3336Z"/> <path d="M46.418 36.9954C46.6506 36.2974 44.2076 33.2727 37.8091 31.8767C33.3883 30.946 28.3859 29.5499 25.8265 25.7109C25.8265 25.5945 25.7102 25.5945 25.5939 25.5945C25.4775 25.5945 25.4775 25.7109 25.4775 25.8272C25.4775 26.0599 25.4775 26.2925 25.5939 26.5252L25.2449 26.6416C24.5468 25.7109 24.4305 24.5475 25.1285 23.6168C26.0592 22.4535 28.1532 22.5698 29.3166 23.2678L29.2003 23.6168C28.6186 23.5005 27.9206 23.5005 27.4552 23.8495C27.1062 24.0822 26.9899 24.4312 27.2226 24.8965C29.4329 28.9683 35.7151 29.7826 43.1606 29.2009C43.9749 29.0846 44.0912 28.7356 44.2076 28.3866C44.9056 25.8272 46.0689 23.5005 47.814 21.7555C46.418 21.9881 45.1383 21.9881 44.0912 22.1045C40.2522 22.3371 38.0418 21.8718 37.3438 21.2901L37.4601 20.9411C37.9254 21.0574 38.2745 21.0574 38.3908 20.9411C38.5071 20.8248 38.3908 20.7084 38.2745 20.4758C37.5764 19.7777 34.2027 16.404 34.2027 16.404C33.8537 13.4956 29.6656 13.4956 28.0369 16.2877L27.4552 16.1713C27.5716 15.5897 27.9206 15.008 28.1532 14.659C24.6632 15.4733 22.6855 18.6144 22.3365 21.6391C20.8241 34.5524 40.4848 31.644 46.0689 36.7628C45.9526 36.8791 46.1853 37.2281 46.418 36.9954ZM30.7126 16.2877C31.7597 15.9387 33.1557 16.9857 33.97 18.4981C34.7844 20.0104 34.5517 21.5228 33.5047 21.8718C32.4577 22.2208 31.0616 21.2901 30.3636 19.6614C30.2473 19.4287 30.131 19.1961 30.131 19.0797H30.3636C30.7126 19.4287 31.0616 19.4287 31.2943 19.3124C31.6433 19.0797 31.6433 18.4981 31.2943 17.9164C31.0616 17.451 30.5963 16.9857 30.131 17.102L30.0146 16.9857C30.2473 16.6367 30.48 16.404 30.7126 16.2877Z"/> <path d="M117.848 48.2807H100.863C98.8854 48.2807 97.8383 49.6767 97.8383 51.3054V70.7335C97.8383 72.5948 99.2344 73.7582 100.979 73.7582C102.608 73.7582 104.004 72.7112 104.004 70.7335V54.2138H114.823V70.7335C114.823 72.5948 116.219 73.7582 117.848 73.7582C119.477 73.7582 120.873 72.5948 120.873 70.7335V51.3054C120.873 49.6767 119.709 48.2807 117.848 48.2807Z"/> <path d="M147.397 48.2807H147.165C145.42 48.2807 144.14 49.2114 142.977 50.9564L133.088 65.033V51.3054C133.088 49.444 131.925 48.2807 130.18 48.2807C128.435 48.2807 127.271 49.3277 127.271 51.3054V70.0355C127.271 72.0132 128.551 73.4092 130.645 73.4092H130.878C132.739 73.4092 134.019 72.4785 135.182 70.7335L145.071 56.6569V70.5008C145.071 72.3622 146.234 73.5255 147.979 73.5255C149.608 73.5255 150.887 72.4785 150.887 70.5008V51.7708C150.887 49.5604 149.608 48.2807 147.397 48.2807Z"/> <path d="M181.251 67.5924H179.739V51.0727C179.739 49.2114 178.343 48.048 176.598 48.048C174.969 48.048 173.573 49.095 173.573 51.0727V67.5924H162.986V51.0727C162.986 49.2114 161.707 48.048 159.962 48.048C158.217 48.048 156.937 49.095 156.937 51.0727V70.5008C156.937 72.1295 157.984 73.4092 159.962 73.4092H178.226V76.0849C178.226 77.9463 179.506 79.1096 181.135 79.1096C182.88 79.1096 184.159 78.0626 184.159 76.0849V70.5008C184.276 68.6394 183.112 67.5924 181.251 67.5924Z"/> <path d="M211.847 67.5924H210.219V51.0727C210.219 49.2114 208.823 48.048 207.078 48.048C205.449 48.048 204.053 49.095 204.053 51.0727V67.5924H193.466V51.0727C193.466 49.2114 192.187 48.048 190.442 48.048C188.697 48.048 187.417 49.095 187.417 51.0727V70.5008C187.417 72.1295 188.464 73.4092 190.442 73.4092H208.706V76.0849C208.706 77.9463 209.986 79.1096 211.615 79.1096C213.36 79.1096 214.639 78.0626 214.639 76.0849V70.5008C214.756 68.6394 213.592 67.5924 211.847 67.5924Z"/> <path d="M241.513 69.2211L233.253 51.1891C232.322 49.2114 231.043 48.397 229.181 48.397H228.832C226.855 48.397 225.575 49.2114 224.644 51.1891L216.384 69.2211C215.57 70.9662 216.152 72.5949 217.78 73.1765C219.293 73.7582 220.689 73.4092 221.503 71.6642L223.365 67.7087C224.993 68.2904 227.087 68.5231 229.065 68.5231C231.159 68.5231 233.02 68.2904 234.533 67.7087L236.278 71.6642C237.092 73.4092 238.605 73.6419 240.001 73.1765C241.629 72.5949 242.327 70.9662 241.513 69.2211ZM228.949 63.1716C227.669 63.1716 226.389 63.0553 225.342 62.7063L228.832 54.7955L232.322 62.7063C231.508 63.0553 230.228 63.1716 228.949 63.1716Z"/> <path d="M125.061 27.2239H123.549V10.9369C123.549 9.30822 122.502 8.02853 120.524 8.02853H106.564C104.935 8.02853 103.888 9.07555 103.888 11.0533V15.0087C103.888 17.8007 103.888 20.0111 103.306 22.4542C102.841 24.7809 102.259 26.1769 101.328 27.3403H100.63C98.6527 27.3403 97.722 28.5036 97.722 30.365V35.9491C97.722 37.8105 99.0017 38.9738 100.747 38.9738C102.492 38.9738 103.771 37.9268 103.771 35.9491V33.2734H122.153V35.9491C122.153 37.8105 123.432 38.9738 125.061 38.9738C126.806 38.9738 128.086 37.9268 128.086 35.9491V30.365C128.086 28.5036 127.155 27.2239 125.061 27.2239ZM117.499 27.2239H107.611C108.192 25.9442 108.658 24.7809 109.123 22.9195C109.472 21.0581 109.705 19.1968 109.705 16.7537V13.8453H117.383V27.2239H117.499Z"/> <path d="M142.395 7.79586C135.066 7.79586 129.482 13.2636 129.482 20.5928C129.482 28.0383 135.066 33.3897 142.395 33.3897C149.724 33.3897 155.308 27.8056 155.308 20.4764C155.308 13.2636 149.608 7.79586 142.395 7.79586ZM142.395 27.6893C138.44 27.6893 135.531 24.6645 135.531 20.5928C135.531 16.521 138.44 13.6126 142.395 13.6126C146.467 13.6126 149.259 16.6374 149.259 20.5928C149.259 24.6645 146.583 27.6893 142.395 27.6893Z"/> <path d="M200.33 7.79586C193.001 7.79586 187.417 13.2636 187.417 20.5928C187.417 28.0383 193.001 33.3897 200.33 33.3897C207.659 33.3897 213.243 27.8056 213.243 20.4764C213.127 13.2636 207.543 7.79586 200.33 7.79586ZM200.33 27.6893C196.375 27.6893 193.466 24.6645 193.466 20.5928C193.466 16.521 196.375 13.6126 200.33 13.6126C204.402 13.6126 207.194 16.6374 207.194 20.5928C207.194 24.6645 204.402 27.6893 200.33 27.6893Z"/> <path d="M183.229 27.2239H181.716V10.9369C181.716 9.30822 180.669 8.02853 178.692 8.02853H164.731C163.103 8.02853 162.056 9.07555 162.056 11.0533V15.0087C162.056 17.8007 162.056 20.0111 161.474 22.4542C161.009 24.7809 160.427 26.1769 159.496 27.3403H158.798C156.821 27.3403 155.89 28.5036 155.89 30.365V35.9491C155.89 37.8105 157.17 38.9738 158.915 38.9738C160.66 38.9738 161.939 37.9268 161.939 35.9491V33.2734H180.32V35.9491C180.32 37.8105 181.6 38.9738 183.345 38.9738C185.09 38.9738 186.37 37.9268 186.37 35.9491V30.365C186.253 28.5036 185.206 27.2239 183.229 27.2239ZM175.551 27.2239H165.662C166.244 25.9442 166.709 24.7809 167.174 22.9195C167.523 21.0581 167.756 19.1968 167.756 16.7537V13.8453H175.434V27.2239H175.551Z"/></svg>