<svg xmlns="http://www.w3.org/2000/svg" width="338" height="126" viewBox="-83.68250274658203 -4.638317108154297 338 126"><path d="M99.5614 88.054V84.0487L100.877 83.4233V83.1082C100.877 81.4231 101.204 80.0148 101.855 78.8834C102.521 77.7281 103.524 76.833 104.865 76.1957C105.906 75.7016 106.777 75.4175 107.476 75.3483V78.9478C106.97 78.9884 106.472 79.1221 105.987 79.3536C105.226 79.714 104.846 80.3561 104.846 81.2751V81.6164L107.457 80.3752V84.3017L104.91 85.5119V95.981L100.881 97.8953V87.4262L99.5661 88.0516L99.5614 88.054Z"/> <path d="M108.718 78.3033V74.5344L112.923 72.5365V76.3055L108.718 78.3033ZM108.811 94.1263V79.5732L112.84 77.6589V92.212L108.811 94.1263Z"/> <path d="M114.425 81.0292V76.9046L115.781 76.2601V72.5819L119.81 70.6675V74.3458L122.483 73.076V77.2006L119.81 78.4704V83.4066C119.81 83.915 119.9 84.2444 120.079 84.39C120.258 84.538 120.538 84.5213 120.917 84.3399C121.407 84.106 121.915 83.7026 122.44 83.1297V87.1159C121.645 88.0492 120.714 88.7724 119.643 89.2808C118.385 89.8776 117.428 89.9516 116.769 89.498C116.11 89.0469 115.781 87.98 115.781 86.3019V80.3847L114.425 81.0292Z"/> <path d="M124.214 72.2525L128.243 70.3381V72.4004C129.226 70.3405 130.372 68.9991 131.682 68.3761C132.897 67.7984 133.852 67.8223 134.547 68.4477C135.241 69.0731 135.587 70.2164 135.587 71.8801V81.404L131.558 83.3183V75.4581C131.558 74.68 131.41 74.1501 131.117 73.866C130.823 73.582 130.429 73.5581 129.937 73.792C129.431 74.0331 129.023 74.4413 128.711 75.0165C128.398 75.5942 128.243 76.2649 128.243 77.0335V84.8937L124.214 86.808V72.2525Z"/> <path d="M137.191 73.3743C137.191 72.3241 137.335 71.2619 137.621 70.1878C137.907 69.1136 138.304 68.1183 138.807 67.2017C139.311 66.2827 139.924 65.4545 140.645 64.7121C141.366 63.9698 142.147 63.4017 142.98 63.0055C143.939 62.5496 144.796 62.3538 145.548 62.4207C146.3 62.4875 146.909 62.7811 147.372 63.3015C147.835 63.8218 148.186 64.4973 148.422 65.3304C148.661 66.1634 148.78 67.1253 148.78 68.2209C148.78 68.6864 148.773 69.0396 148.758 69.2807L141.073 72.9327C141.232 73.6536 141.526 74.119 141.958 74.3315C142.39 74.5415 142.922 74.4962 143.56 74.1954C144.457 73.7682 145.307 72.8587 146.107 71.4672L148.334 72.768C147.111 75.3006 145.448 77.0669 143.34 78.0694C142.147 78.6375 141.082 78.8261 140.149 78.6399C139.215 78.4513 138.49 77.9047 137.969 76.9953C137.447 76.0883 137.187 74.8805 137.187 73.3743H137.191ZM141.013 70.3501L145.001 68.4548C144.925 67.6767 144.713 67.1349 144.359 66.8293C144.006 66.5238 143.557 66.5 143.013 66.7601C142.495 67.006 142.058 67.4523 141.703 68.0992C141.347 68.7461 141.118 69.4955 141.013 70.3501Z"/> <path d="M149.62 72.842L151.133 69.0277C152.458 69.4788 153.773 69.3953 155.079 68.7747C155.755 68.4525 156.093 68.0252 156.093 67.4881C156.093 67.2327 155.955 67.0871 155.678 67.0537C155.401 67.0179 154.926 67.0537 154.248 67.1516C153.738 67.2232 153.303 67.2685 152.943 67.2876C152.585 67.3043 152.217 67.2757 151.845 67.1969C151.472 67.1182 151.174 66.9845 150.95 66.7935C150.725 66.6026 150.541 66.3161 150.396 65.9342C150.25 65.5523 150.179 65.0797 150.179 64.5188C150.179 62.9768 150.604 61.5757 151.453 60.313C152.303 59.0503 153.411 58.0932 154.778 57.4439C155.621 57.0429 156.456 56.7995 157.285 56.7135C158.113 56.6276 158.855 56.704 159.512 56.9451L158.134 60.8429C157.54 60.726 156.938 60.6925 156.332 60.7474C155.724 60.8023 155.194 60.9384 154.738 61.1532C154.435 61.2988 154.203 61.4707 154.043 61.676C153.883 61.8788 153.804 62.0961 153.804 62.3252C153.804 62.5806 153.94 62.7262 154.213 62.762C154.485 62.7978 154.969 62.7787 155.669 62.7023C156.179 62.6379 156.614 62.6021 156.974 62.5925C157.332 62.583 157.7 62.6188 158.072 62.6976C158.445 62.7763 158.743 62.91 158.967 63.101C159.192 63.2919 159.376 63.5736 159.521 63.9412C159.667 64.3111 159.738 64.767 159.738 65.3136C159.738 66.9033 159.318 68.3259 158.476 69.5767C157.633 70.8298 156.494 71.7966 155.058 72.4792C153.007 73.4531 151.193 73.5772 149.62 72.8468V72.842Z"/> <path d="M160.516 67.6624L162.03 63.8481C163.355 64.2992 164.67 64.2157 165.975 63.5951C166.651 63.2728 166.99 62.8456 166.99 62.3085C166.99 62.0531 166.851 61.9075 166.574 61.8741C166.298 61.8383 165.823 61.8741 165.145 61.9719C164.634 62.0435 164.199 62.0889 163.839 62.108C163.481 62.1247 163.113 62.0961 162.741 62.0173C162.369 61.9385 162.07 61.8049 161.846 61.6139C161.622 61.4229 161.438 61.1365 161.292 60.7546C161.147 60.3727 161.075 59.9001 161.075 59.3391C161.075 57.7972 161.5 56.3961 162.35 55.131C163.199 53.8683 164.307 52.9111 165.675 52.2619C166.517 51.8609 167.353 51.6174 168.181 51.5315C169.009 51.4456 169.752 51.5219 170.408 51.763L169.031 55.6609C168.436 55.5439 167.835 55.5105 167.229 55.5654C166.622 55.6203 166.09 55.7564 165.634 55.9712C165.331 56.1168 165.099 56.2887 164.939 56.4939C164.78 56.6968 164.701 56.914 164.701 57.1432C164.701 57.3986 164.837 57.5442 165.109 57.58C165.381 57.6158 165.866 57.5967 166.565 57.5203C167.076 57.4559 167.51 57.4201 167.871 57.4105C168.229 57.401 168.596 57.4368 168.969 57.5155C169.341 57.5943 169.639 57.728 169.864 57.9189C170.088 58.1099 170.272 58.3915 170.417 58.7591C170.563 59.1291 170.635 59.585 170.635 60.1316C170.635 61.7213 170.215 63.1439 169.372 64.3971C168.529 65.6502 167.391 66.6169 165.954 67.2996C163.904 68.2734 162.089 68.3976 160.516 67.6672V67.6624Z"/> <path d="M145.655 10.3521L152.964 6.88869L152.967 24.1128L145.66 27.5786L145.665 51.6103L132.446 57.8783L132.441 33.8539L128.73 35.613L128.725 18.3865L132.437 16.625V6.27047L145.653 0L145.655 10.3521Z"/> <path d="M112.324 67.4977L112.317 26.2395L125.538 19.9667L125.546 61.2248L112.324 67.4977Z"/> <path d="M99.7738 37.1789C101.903 33.4505 103.801 30.2066 109.706 27.4044V44.6309L108.319 45.2897C108.245 45.3231 108.173 45.3565 108.099 45.3899C105.755 46.5022 103.521 48.839 101.967 51.8155C100.318 55.3506 99.5399 59.1577 99.7905 62.4827V73.3672L86.5741 79.6376L86.5669 38.3843L99.7929 32.1066L99.7738 37.1789Z"/> <path d="M69.9419 46.2707L83.1655 39.9931L83.1727 81.2512L69.9515 87.5241L69.9419 46.2707Z"/> <path d="M64.1083 53.9829C65.39 55.3721 66.3687 57.1861 67.0036 59.3344C67.7244 61.7858 68.0777 64.5403 68.0491 67.4881V67.6481C68.0777 70.6604 67.7149 73.8421 66.9797 77.0693C66.34 79.8596 65.3614 82.6523 64.0868 85.3137C62.9339 87.715 61.4707 89.9205 59.807 91.768C58.1934 93.5487 56.4152 94.9235 54.6154 95.7757C50.8226 97.5754 47.3758 97.1267 45.0892 94.6276V109.744L31.8703 116.014L31.8608 64.3278L45.082 58.0574V63.1248C47.2398 58.3032 50.7056 54.4125 54.3934 52.6629C56.3364 51.7415 58.1337 51.4169 59.7688 51.6628C61.4444 51.9158 62.9243 52.7059 64.1083 53.9781V53.9829ZM55.6848 73.6584V73.4555C55.5941 69.4359 52.966 67.4643 49.7819 68.9752C49.727 69.0014 49.6721 69.0277 49.6172 69.0563C46.3566 70.72 43.7907 75.3769 43.879 79.4682C43.9673 83.4901 46.5953 85.4594 49.7795 83.9484C49.8344 83.9222 49.8893 83.8959 49.9442 83.8673C53.1642 82.2752 55.7277 77.7114 55.6824 73.6607"/> <path d="M29.9751 93.0999V93.2527C30.1517 97.2078 28.8055 101.745 26.347 105.486C23.6641 109.193 20.456 112.019 17.1716 113.577C16.8589 113.725 16.5462 113.861 16.2335 113.988C16.1619 114.024 16.0903 114.057 16.0187 114.091C13.1425 115.456 10.2781 116.306 7.50929 116.616C4.83831 116.907 2.30339 116.606 0 115.719L4.46356 103.853C6.30628 104.49 8.30653 104.71 10.4094 104.507C12.2784 104.35 14.2237 103.808 16.1786 102.908C17.4485 102.306 18.0882 101.54 18.0882 100.638V100.485C18.0333 100.012 17.7659 99.7165 17.3936 99.7213C16.403 99.6306 15.3718 99.6759 14.3192 99.8597C12.3094 100.158 10.5144 100.318 8.92952 100.347C7.48781 100.392 6.1201 100.151 4.87173 99.6282C3.78568 99.1627 2.89774 98.2891 2.29146 97.0694C1.65414 95.6921 1.34146 93.9855 1.38203 92.0998V91.9399C1.34623 89.8776 1.68518 87.6482 2.36306 85.4307C3.00754 83.3851 3.97186 81.4111 5.17726 79.6758C6.48768 77.8116 7.97474 76.1814 9.55251 74.8781C11.3164 73.4197 13.1353 72.2358 14.9637 71.3669C15.0353 71.3335 15.1069 71.3001 15.1785 71.2667C17.8017 70.0207 20.3414 69.2354 22.8024 68.8964C25.1249 68.5503 27.3423 68.684 29.3951 69.2807L25.2227 81.4589C23.5447 81.0602 21.7641 80.9552 19.9142 81.1462C18.3651 81.2607 16.7539 81.6808 15.1308 82.3993C13.8943 82.9865 13.2761 83.705 13.2761 84.5595V84.7123C13.3477 85.204 13.6365 85.4975 14.0304 85.488C15.0377 85.5787 16.0855 85.5119 17.1644 85.2875C19.1718 84.9915 20.9692 84.8292 22.5541 84.8006C23.9958 84.7504 25.3516 85.0106 26.5857 85.5715C27.6431 86.0633 28.5095 86.9464 29.1063 88.1542C29.7221 89.5386 30.0252 91.231 29.9799 93.1023L29.9751 93.0999Z"/> <path d="M157.158 31.0349L170.379 24.7573L170.386 39.7687L157.165 46.0392L157.158 31.0349Z"/></svg>