<svg width="360" height="360" viewBox="0 0 360 360" fill="none" xmlns="http://www.w3.org/2000/svg">
<rect x="160" y="200" width="40" height="40" fill="#442CBF"/>
<rect x="160" y="120" width="40" height="40" fill="#442CBF"/>
<rect x="200" y="160" width="40" height="40" fill="#442CBF"/>
<rect x="120" y="160" width="40" height="40" fill="#442CBF"/>
<rect x="320" y="160" width="40" height="40" fill="#442CBF"/>
<rect x="280" y="160" width="40" height="40" fill="#442CBF"/>
<rect x="40" y="160" width="40" height="40" fill="#442CBF"/>
<rect y="160" width="40" height="40" fill="#442CBF"/>
<rect x="80" y="80" width="40" height="40" fill="#442CBF"/>
<rect x="40" y="40" width="40" height="40" fill="#442CBF"/>
<rect x="280" y="40" width="40" height="40" fill="#442CBF"/>
<rect x="240" y="80" width="40" height="40" fill="#442CBF"/>
<rect x="40" y="280" width="40" height="40" fill="#442CBF"/>
<rect x="80" y="240" width="40" height="40" fill="#442CBF"/>
<rect x="280" y="280" width="40" height="40" fill="#442CBF"/>
<rect x="240" y="240" width="40" height="40" fill="#442CBF"/>
<rect x="160" y="320" width="40" height="40" fill="#442CBF"/>
<rect x="160" y="280" width="40" height="40" fill="#442CBF"/>
<rect x="160" y="40" width="40" height="40" fill="#442CBF"/>
<rect x="160" width="40" height="40" fill="#442CBF"/>
</svg>
